<?xml version="1.0" encoding="UTF-8" standalone="no"?>
<svg width="51px" height="50px" viewBox="0 0 51 50" version="1.1" xmlns="http://www.w3.org/2000/svg" xmlns:xlink="http://www.w3.org/1999/xlink" xmlns:sketch="http://www.bohemiancoding.com/sketch/ns">
    <!-- Generator: Sketch 3.3.3 (12081) - http://www.bohemiancoding.com/sketch -->
    <title>flickr</title>
    <desc>Created with Sketch.</desc>
    <defs></defs>
    <g id="Centered-Logo" stroke="none" stroke-width="1" fill="none" fill-rule="evenodd" sketch:type="MSPage">
        <g id="Desktop-HD" sketch:type="MSArtboardGroup" transform="translate(-648.000000, -3915.000000)" fill="#737E8C">
            <g id="Footer" sketch:type="MSLayerGroup" transform="translate(0.000000, 3849.000000)">
                <path d="M673.667653,115.554496 C687.328059,115.554496 698.402006,104.48055 698.402006,90.8201439 C698.402006,77.1597382 687.328059,66.0857914 673.667653,66.0857914 C660.007248,66.0857914 648.933301,77.1597382 648.933301,90.8201439 C648.933301,104.48055 660.007248,115.554496 673.667653,115.554496 Z M664,99 C668.418278,99 672,95.418278 672,91 C672,86.581722 668.418278,83 664,83 C659.581722,83 656,86.581722 656,91 C656,95.418278 659.581722,99 664,99 Z M664,97.0500002 C667.341323,97.0500002 670.05,94.3413228 670.05,91 C670.05,87.6586772 667.341323,84.9499998 664,84.9499998 C660.658677,84.9499998 657.95,87.6586772 657.95,91 C657.95,94.3413228 660.658677,97.0500002 664,97.0500002 L664,97.0500002 Z M682.667653,98.5029921 C686.910773,98.5029921 690.350501,95.0632638 690.350501,90.8201439 C690.350501,86.577024 686.910773,83.1372957 682.667653,83.1372957 C678.424533,83.1372957 674.984805,86.577024 674.984805,90.8201439 C674.984805,95.0632638 678.424533,98.5029921 682.667653,98.5029921 L682.667653,98.5029921 Z" id="flickr" sketch:type="MSShapeGroup"></path>
            </g>
        </g>
    </g>
</svg>