<?xml version="1.0" encoding="UTF-8" standalone="no"?>
<svg width="165px" height="165px" viewBox="0 0 165 165" version="1.1" xmlns="http://www.w3.org/2000/svg" xmlns:xlink="http://www.w3.org/1999/xlink" xmlns:sketch="http://www.bohemiancoding.com/sketch/ns">
    <!-- Generator: Sketch 3.3.3 (12081) - http://www.bohemiancoding.com/sketch -->
    <title>tech-silverstripe</title>
    <desc>Created with Sketch.</desc>
    <defs></defs>
    <g id="Tech-Icons" stroke="none" stroke-width="1" fill="none" fill-rule="evenodd" sketch:type="MSPage">
        <g id="tech-silverstripe" sketch:type="MSArtboardGroup" fill="#1A5281">
            <g id="Fill-81-+-Fill-82" sketch:type="MSLayerGroup" transform="translate(44.000000, 44.000000)">
                <path d="M30.8635313,51.5279565 C36.8565177,47.392986 38.3868301,39.1457843 34.2868313,33.1065159 L23.4331128,40.5877181 C20.4388311,42.6538658 16.347678,41.8842993 14.2954672,38.861767 C12.2432564,35.8419099 13.0128355,31.7194237 16.0071172,29.6510467 C16.0071172,29.6497091 16.0115401,29.646588 16.0159629,29.6448045 L32.2788492,18.4218865 C38.2674126,14.2860243 39.8021479,6.0392684 35.7021491,0 L8.59881303,18.701891 C8.59439016,18.708579 8.58554443,18.7117 8.57669869,18.7161587 C-0.406146542,24.916831 -2.70161512,37.2909776 3.45059449,46.3478738 C9.6028041,55.4087828 21.8762632,57.7232783 30.8591085,51.5239437 L30.8635313,51.5279565" id="Fill-81" sketch:type="MSShapeGroup"></path>
                <path d="M45.1393175,26.4771624 L45.1393175,26.4793918 L45.1304721,26.4851882 C45.1083586,26.5021313 45.0862451,26.5226415 45.0641316,26.5400305 L45.1437402,26.4825129 C39.1509836,30.6179836 37.6207299,38.8657397 41.7205715,44.9041957 L52.569451,37.4188823 L52.5650283,37.4144235 C55.5636179,35.3455735 59.6546141,36.11515 61.7023235,39.1359386 C63.7544557,42.1558355 62.9893288,46.2797135 59.9907392,48.3485635 L50.0927398,55.1824567 L43.7240539,59.5774255 C37.7312974,63.7137879 36.196621,71.9615439 40.3008852,78 L51.1497648,70.5160242 L67.4164501,59.2835952 L67.4164501,59.2822576 C76.4033735,53.081058 78.7031768,40.7112074 72.5512031,31.6519628 C66.3992294,22.5900429 54.1262409,20.2768545 45.1393175,26.4771624" id="Fill-82" sketch:type="MSShapeGroup"></path>
            </g>
        </g>
    </g>
</svg>