<?xml version="1.0" encoding="UTF-8"?>
<svg width="165px" height="165px" viewBox="0 0 165 165" version="1.1" xmlns="http://www.w3.org/2000/svg" xmlns:xlink="http://www.w3.org/1999/xlink">
    <!-- Generator: Sketch 46.2 (44496) - http://www.bohemiancoding.com/sketch -->
    <title>tech-webpack</title>
    <desc>Created with Sketch.</desc>
    <defs></defs>
    <g id="Page-1" stroke="none" stroke-width="1" fill="none" fill-rule="evenodd">
        <g id="tech-webpack" fill-rule="nonzero">
            <g transform="translate(32.000000, 27.000000)" id="Shape">
                <path d="M98.8594579,86.3209352 L53.0135533,112 L53.0135533,92.0042507 L81.5789628,76.4420828 L98.8594579,86.3209352 Z M102,83.5090329 L102,29.8150903 L85.2304066,39.4112646 L85.2304066,73.9277364 L102,83.5090329 L102,83.5090329 Z M3.14054212,86.3209352 L48.9864467,112 L48.9864467,92.0042507 L20.4060106,76.4420828 L3.14054212,86.3209352 Z M0,83.5090329 L0,29.8150903 L16.7695935,39.4112646 L16.7695935,73.9277364 L0,83.5090329 Z M1.96847377,26.3336875 L48.9864467,0 L48.9864467,19.3262486 L18.8582793,35.7364505 L18.617855,35.8703506 L1.96847377,26.3336875 Z M100.031526,26.3336875 L53.0135533,0 L53.0135533,19.3262486 L83.1417207,35.7215728 L83.3821449,35.8554729 L100.031526,26.3336875 Z" fill="#8ED6FB"></path>
                <path d="M48,87 L20,71.8025771 L20,41.716981 L48,57.6654395 L48,87 Z M52,87 L80,71.8173032 L80,41.716981 L52,57.6654395 L52,87 Z M21.8955223,38.2416014 L50,23 L78.1044775,38.2416014 L50,54.2489646 L21.8955223,38.2416014 Z" fill="#1C78C0"></path>
            </g>
        </g>
    </g>
</svg>