<svg xmlns="http://www.w3.org/2000/svg" viewBox="0 0 236.7 64.4">
  <path d="M88.5 46.6L94 60.7h-1.4l-1.7-4.4h-6.4l-1.7 4.4h-1.4L87 46.6h1.5zm1.9 8.6L87.6 48l-2.8 7.2h5.6zM96.6 50.5v1.8c.2-.6.7-1.1 1.3-1.5.6-.4 1.3-.6 2-.6s1.3.1 1.8.3c.5.2.9.4 1.2.8.3.3.5.7.6 1.2l.2 1.6v6.5h-1.2v-6.3l-.1-1.2a3 3 0 0 0-.4-1l-.8-.7c-.3-.2-.8-.2-1.3-.2s-.9.1-1.3.3l-1 .7c-.3.3-.5.7-.6 1.1-.2.4-.2.9-.2 1.4v5.9h-1.2V50.5h1zM113.9 46.6v14.1h-1.3V46.6h1.3zM123.2 46.6l1.7.2a3.5 3.5 0 0 1 2.4 1.7c.2.4.4 1 .4 1.6l-.2 1.1-.5.9-.8.7a3 3 0 0 1-1 .4c.9.1 1.6.5 2.2 1.1.5.6.8 1.4.8 2.3l-.1.8-.2.9-.5.9-.9.8c-.4.2-.8.4-1.4.5l-2 .2h-6V46.6h6.1zm0 6.2l1.4-.2 1-.5c.3-.2.5-.5.6-.8l.2-.9c0-1.8-1.1-2.6-3.2-2.6h-4.6v5h4.6zm0 6.7l1.4-.1c.4-.1.8-.2 1.2-.5.3-.2.6-.5.8-.9.2-.4.3-.8.3-1.4 0-.9-.3-1.6-1-2-.6-.5-1.5-.7-2.7-.7h-4.6v5.6h4.6zM132.7 46.6l4.7 12.3 4.8-12.3h2v14.1h-1.3V48.5L138 60.7h-1.3l-4.6-12.2v12.2h-1.3V46.6h1.9zM163 49.4l-1-1.1-1.3-.7-1.5-.2a6 6 0 0 0-2.4.5c-.7.4-1.2.8-1.6 1.4-.4.6-.7 1.2-.9 2a8.5 8.5 0 0 0 .9 6.6c.4.6 1 1.1 1.6 1.4a6 6 0 0 0 2.4.5c.7 0 1.3-.1 1.8-.4a4.5 4.5 0 0 0 2.3-2.4c.2-.5.4-1.1.4-1.8h1.3a7 7 0 0 1-1.8 4.1c-.5.5-1.1.9-1.8 1.1-.7.3-1.4.4-2.3.4-1.1 0-2.1-.2-2.9-.6-.8-.4-1.5-.9-2.1-1.6-.5-.7-1-1.4-1.2-2.3-.3-.9-.4-1.8-.4-2.8 0-1 .1-1.9.4-2.8.3-.9.7-1.7 1.2-2.3.6-.7 1.2-1.2 2.1-1.6.8-.4 1.8-.6 2.9-.6a7 7 0 0 1 2 .3 5.6 5.6 0 0 1 3 2.3c.3.6.6 1.2.7 2h-1.3l-.5-1.4zM173.6 50.7c.6.3 1.1.7 1.5 1.2.4.5.7 1.1.9 1.7a7.6 7.6 0 0 1 0 4.2c-.2.6-.5 1.2-.9 1.7s-.9.9-1.5 1.2c-.6.3-1.3.4-2.1.4s-1.5-.1-2.1-.4c-.6-.3-1.1-.7-1.5-1.2-.4-.5-.7-1.1-.9-1.7a7.1 7.1 0 0 1 0-4.2 4.6 4.6 0 0 1 2.4-2.9c.6-.3 1.3-.4 2.1-.4.9-.1 1.5.1 2.1.4zm-3.6.9c-.4.2-.8.6-1.1 1l-.7 1.4c-.2.5-.2 1.1-.2 1.6l.2 1.6.7 1.4 1.1 1c.5.2 1 .4 1.6.4a3 3 0 0 0 1.6-.4c.4-.2.8-.6 1.1-1l.7-1.4c.2-.5.2-1 .2-1.6L175 54c-.1-.5-.4-1-.7-1.4l-1.1-1c-.4-.2-1-.4-1.6-.4l-1.6.4zM179.8 50.5v1.7h.1c.3-.6.8-1.1 1.3-1.5.5-.4 1.2-.5 2-.5.7 0 1.3.2 1.8.5s.9.8 1.1 1.5c.3-.7.7-1.2 1.3-1.5.6-.3 1.2-.5 1.9-.5 2.2 0 3.4 1.2 3.4 3.6v6.9h-1.2v-6.8c0-.8-.2-1.5-.5-1.9-.4-.4-1-.7-1.9-.7-.5 0-1 .1-1.3.3-.4.2-.6.5-.9.8-.2.3-.4.7-.4 1.2l-.1 1.4v5.8H185v-6.9l-.1-1-.4-.8-.7-.5a3 3 0 0 0-2.4.1c-.4.2-.7.5-.9.8l-.5 1.2-.2 1.5v5.7h-1.2V50.5h1.2zM196.6 50.5v1.9c.3-.7.8-1.3 1.4-1.6.7-.4 1.4-.6 2.2-.6.8 0 1.4.1 2 .4.6.3 1.1.7 1.4 1.2.4.5.7 1.1.8 1.7a7.6 7.6 0 0 1 0 4.2c-.2.7-.5 1.2-.8 1.7-.4.5-.9.9-1.4 1.2-.6.3-1.2.4-2 .4l-1.1-.1a3 3 0 0 1-1-.4l-.8-.7-.6-1v5.7h-1.2v-14h1.1zm6.8 3.5c-.1-.5-.3-1-.6-1.4l-1-1c-.4-.3-.9-.4-1.5-.4-.7 0-1.3.1-1.7.4-.5.2-.8.5-1.1.9-.3.4-.5.9-.6 1.4l-.2 1.7.2 1.6c.1.5.3 1 .6 1.4l1.1 1c.4.3 1 .4 1.7.4.6 0 1.1-.1 1.5-.4.4-.3.8-.6 1-1 .3-.4.5-.9.6-1.4l.2-1.6-.2-1.6zM207.4 52.1a3.1 3.1 0 0 1 2.2-1.7 7.8 7.8 0 0 1 2.9-.1l1.2.5c.4.2.6.6.9 1 .2.4.3 1 .3 1.7v5.4c0 .5.2.8.7.8l.4-.1v1l-.4.1h-.4l-.8-.1a.8.8 0 0 1-.4-.4l-.2-.6v-.7l-.7.9c-.2.3-.5.5-.8.6a3 3 0 0 1-1 .4l-1.3.1-1.3-.2-1.1-.5c-.3-.2-.6-.5-.7-.9-.2-.4-.3-.8-.3-1.3 0-.7.2-1.3.5-1.7.3-.4.7-.7 1.3-.9.5-.2 1.1-.4 1.7-.4l2-.2.7-.1.5-.2.3-.4.1-.7-.2-1a.9.9 0 0 0-.6-.6c-.2-.2-.5-.3-.8-.3l-1-.1c-.8 0-1.4.2-1.9.6-.5.4-.8 1-.8 1.8H207a6 6 0 0 1 .4-1.7zm6.2 3c-.1.1-.2.3-.5.3l-.6.1-1.6.2-1.5.3c-.5.1-.8.4-1.1.6-.3.3-.4.7-.4 1.2l.2.8.5.6.7.4.8.1 1.4-.2c.4-.1.8-.4 1.1-.6l.8-1c.2-.4.3-.8.3-1.3l-.1-1.5zM219 50.5v1.8c.2-.6.7-1.1 1.3-1.5.6-.4 1.3-.6 2-.6s1.3.1 1.8.3c.5.2.9.4 1.2.8.3.3.5.7.6 1.2l.2 1.6v6.5h-1.2v-6.3l-.1-1.2a3 3 0 0 0-.4-1l-.8-.7c-.3-.2-.8-.2-1.3-.2s-.9.1-1.3.3l-1 .7c-.3.3-.5.7-.6 1.1l-.2 1.4v5.9H218V50.5h1zM228.9 50.5l3.4 8.7 3.1-8.7h1.2l-4.4 11.7-.5 1.1-.5.7-.7.4-1 .1h-.6l-.4-.1v-1l.4.1h.4l.7-.1.5-.3.3-.5.3-.7.4-1.1-4.1-10.1h1.5zM209.8 19c0-6.4 2.6-9.6 7.9-9.6 5.3 0 7.9 3.2 7.9 9.6 0 6.2-2.6 9.3-7.9 9.3-5.3 0-7.9-3.1-7.9-9.3m7.8-13.8c-4.8 0-9 1.1-12.6 3.2-4.3 2.5-6.5 6-6.5 10.6 0 4.4 2.2 7.9 6.6 10.4 3.6 2 7.8 3 12.5 3 4.8 0 9-1 12.5-3.1 4.4-2.6 6.6-6 6.6-10.3 0-4.5-2.2-8-6.5-10.6a24.6 24.6 0 0 0-12.6-3.2m-21.8 15.5h-8.1V25c0 1.9-1.3 2.8-3.8 2.8-2 0-3-.9-3-2.6V10.3h13.8V6.8h-13.8V0h-5.5c-.5 2.5-1.3 4.2-2.3 5.2-1.3 1.2-3.4 1.9-6.3 1.9v3.3h3.6V23c0 6 4.5 9 13.4 9 3 0 5.5-.4 7.6-1.2 3-1 4.4-2.8 4.4-5.4v-4.7zM163.4 6c-1.2-.2-2.6-.3-4.3-.3-5.7 0-10 1.8-13 5.3h-.1V5.8L129.8 7v3.4h3.2c1.7 0 2.5.9 2.5 2.6v12.2c0 1.8-.8 2.6-2.5 2.6h-3.3v3.4H152v-3.4h-3.5c-1.6 0-2.5-.9-2.5-2.6v-3.5c0-3.1.4-5.3 1.1-6.8 1.1-2 3-3 5.8-3 1.7 0 2.5.6 2.5 1.9v3.6h7.9V6zm-35.7 12.8c0-4.4-2.2-8-6.5-10.5-3.6-2-7.7-3-12.5-3-4.7 0-8.9 1.1-12.6 3.2-4.3 2.5-6.5 6-6.5 10.6 0 4.3 2.3 7.8 6.8 10.4a30.2 30.2 0 0 0 23 1.3c3.8-1.4 6.5-3.6 8.1-6.6h-10.7a6.2 6.2 0 0 1-3.2 3.2c-1.4.6-2.9.9-4.6.9-5 0-7.7-2.7-8.1-8h26.8v-1.5zM101 16.9c.4-5 3-7.5 7.8-7.5s7.4 2.5 7.8 7.5H101zm-34.6 11c-5.7 0-8.5-3-8.5-8.9 0-2.8.8-5 2.3-6.6 1.5-1.7 3.6-2.5 6.3-2.5 2.7 0 4.7.9 6.1 2.6a10 10 0 0 1 2 6.5c0 2.7-.7 4.8-2 6.4-1.5 1.7-3.5 2.5-6.2 2.5m4.9-22.4c-5.8 0-10.2 1.6-13.2 4.8h-.2V5.7l-9.3.5-6.8.4v3.6H45c1.6 0 2.4.7 2.4 2.2v21.9c0 1.8-.8 2.6-2.4 2.6h-3.2v3.5h21.9V37h-3.3c-1.7 0-2.5-.9-2.5-2.6v-6.2h.3a13 13 0 0 0 5.4 3.1l3.2.8c1 .2 2.1.3 3.1.3 4.7 0 8.5-1.1 11.3-3.3 3-2.5 4.5-6 4.5-10.6 0-4.2-1.4-7.5-4.1-9.7a15 15 0 0 0-10.3-3.3M25.6 22c0 1.8-1.2 3.3-3.5 4.7-2 1.1-4 1.7-6 1.7-3.8 0-5.7-1.2-5.7-3.6 0-1.9 1.4-3.2 4.1-3.9 1.3-.3 3.5-.4 6.4-.4h4.7V22zm13 5.8c-1.7 0-2.5-.9-2.5-2.6V13.9c0-3.5-2.2-5.9-6.6-7.1-2.5-.7-6.1-1-10.8-1-11.5 0-17.3 2.7-17.3 8.1h10.5c0-3 2.3-4.4 6.8-4.4 4.6 0 7 1.7 7 5.1V17h-10C5.3 17 .1 19.6 0 24.8c-.1 5.1 4 7.7 12.1 7.7 2.6 0 5.1-.3 7.4-.9 3.2-.9 5.2-2.2 6-3.9h.2v3.6h15v-3.5h-2.1z"/>
</svg>
