<svg xmlns="http://www.w3.org/2000/svg" viewBox="0 0 566 566">
    <path d="M392.7 226.7h-5.4L382 236c41.3 0 77.3 2.7 118.7 10.7l-12 10.6c-36-6.6-66.7-9.3-106.7-9.3h-8l-6.7 10.7 18.7-1.4c32 0 62.7 2.7 94.7 8l-12 12c-37.1-5.5-74.6-7.3-112-5.3l-9.4 10.7a424 424 0 0 1 113.4 2.6l-12 10.7-50.7-2.7c-44 0-77.3 9.4-112 30.7 33.3 36 88 58.7 141.3 58.7h4L414 400c-77.3-13.3-158.7-48-226.7-93.3-65.3-45.4-88-57.4-138.6-80l-1.4-13.4L82 228l12-9.3 113.3 52-8 5.3-57.3-25.3-5.3 5.3 29.3 16c25.3 14.7 45.3 21.3 62.7 21.3 40 0 74.6-28 97.3-77.3l57.3-2.7c44 0 88 4 137.4 13.4l-12 12c-30.7-6.7-82.7-12-116-12z"/>
    <path d="M283 566a283 283 0 1 0 0-566 283 283 0 0 0 0 566zm0-16a267 267 0 1 1 0-534 267 267 0 0 1 0 534z"/>
</svg>
