<svg xmlns="http://www.w3.org/2000/svg" viewBox="0 0 419 245">
  <path fill="#FFF" fill-rule="nonzero" d="M280.9 158.12c20.19 0 27.45-8.65 27.45-35.52 0-26.87-7.26-35.5-27.44-35.5h-25.69v71.02h25.69zm137.21-71.03h-40.78c-18.36 0-22.14 7.6-22.14 20.18l-.32 7.76h54.98v19.18H354.9l-.04 43.1H331.6V140.7c-2.33 11.78-7.38 20.75-15.4 27.13-11.17 8.9-22.07 9.62-34.23 9.62H231.2a122.1 122.1 0 0 1-109 66.92C54.72 244.37 0 189.69 0 122.2 0 54.71 54.73 0 122.2 0c47.92 0 89.38 27.59 109.41 67.75h49.78c29.7 0 45.9 12.94 50.33 40.23l.01-2.27c0-23.17 10.85-37.96 37.27-37.96h49.11V87.1zm-241.8 26.1c-26.38 0-37.27 13.76-37.27 36.9v27.22h92.2v-18.73h-68.72v-5.87c0-12.57 3.96-19.22 22.34-19.22h14.69c29.56 0 34.7-20.01 34.7-32.63 0-11.85-4.3-33.1-34.66-33.1h-59.87v19.33h51.46c12.37 0 19.48 2.94 19.48 13.45 0 10.22-7.11 12.64-19.19 12.64H176.3z"/>
</svg>
