<?xml version="1.0" encoding="UTF-8" standalone="no"?>
<svg width="165px" height="165px" viewBox="0 0 165 165" version="1.1" xmlns="http://www.w3.org/2000/svg" xmlns:xlink="http://www.w3.org/1999/xlink" xmlns:sketch="http://www.bohemiancoding.com/sketch/ns">
    <!-- Generator: Sketch 3.3.3 (12081) - http://www.bohemiancoding.com/sketch -->
    <title>tech-html5</title>
    <desc>Created with Sketch.</desc>
    <defs></defs>
    <g id="Tech-Icons" stroke="none" stroke-width="1" fill="none" fill-rule="evenodd" sketch:type="MSPage">
        <g id="tech-html5" sketch:type="MSArtboardGroup">
            <g id="HTML5_Badge" sketch:type="MSLayerGroup" transform="translate(46.000000, 45.000000)">
                <path d="M6.63636364,75.46875 L0,0 L73,0 L66.3636364,75.46875 L36.4190687,84" id="Shape" fill="#E34F26" sketch:type="MSShapeGroup"></path>
                <path d="M36.5809313,77.4375 L60.6984479,70.7109375 L66.3636364,6.0703125 L36.5809313,6.0703125" id="Shape" fill="#EF652A" sketch:type="MSShapeGroup"></path>
                <path d="M36.5809313,34.125 L24.4412417,34.125 L23.631929,24.609375 L36.5809313,24.609375 L36.5809313,15.421875 L36.4190687,15.421875 L13.5964523,15.421875 L13.7583149,17.8828125 L16.0243902,43.4765625 L36.5809313,43.4765625 L36.5809313,34.125 Z M36.5809313,58.2421875 L36.4190687,58.2421875 L26.2217295,55.453125 L25.5742794,48.0703125 L20.7184035,48.0703125 L16.5099778,48.0703125 L17.6430155,62.671875 L36.4190687,67.921875 L36.5809313,67.921875 L36.5809313,58.2421875 Z" id="Shape" fill="#EBEBEB" sketch:type="MSShapeGroup"></path>
                <path d="M36.4190687,34.125 L36.4190687,43.4765625 L47.7494457,43.4765625 L46.616408,55.453125 L36.4190687,58.2421875 L36.4190687,67.921875 L55.195122,62.671875 L55.3569845,61.03125 L57.4611973,36.5859375 L57.7849224,34.125 L55.195122,34.125 L36.4190687,34.125 Z M36.4190687,15.421875 L36.4190687,21.1640625 L36.4190687,24.609375 L58.594235,24.609375 L58.7560976,22.640625 L59.2416851,17.8828125 L59.4035477,15.421875 L36.4190687,15.421875 Z" id="Shape" fill="#FFFFFF" sketch:type="MSShapeGroup"></path>
            </g>
        </g>
    </g>
</svg>