<?xml version="1.0" encoding="UTF-8" standalone="no"?>
<svg width="120px" height="120px" viewBox="0 0 120 120" version="1.1" xmlns="http://www.w3.org/2000/svg" xmlns:xlink="http://www.w3.org/1999/xlink" xmlns:sketch="http://www.bohemiancoding.com/sketch/ns">
    <!-- Generator: Sketch 3.3.2 (12043) - http://www.bohemiancoding.com/sketch -->
    <title>xiel-logo</title>
    <desc>Created with Sketch.</desc>
    <defs></defs>
    <g id="Centered-Logo" stroke="none" stroke-width="1" fill="none" fill-rule="evenodd" sketch:type="MSPage">
        <g id="Desktop-HD" sketch:type="MSArtboardGroup" transform="translate(-660.000000, -75.000000)" fill="#041231">
            <g id="Welcome-Stage" sketch:type="MSLayerGroup">
                <path d="M770.296273,94.6078431 L780,94.6078431 L780,75 L760.392157,75 L760.392157,84.7833333 L770.296273,84.7833333 L770.296273,94.6078431 L770.296273,94.6078431 Z M770.296273,175.392157 L770.296273,185.243979 L760.392157,185.243979 L760.392157,195 L780,195 L780,175.392157 L770.296273,175.392157 L770.296273,175.392157 Z M755.686275,114.247211 L741.536105,100.098039 L720.392656,121.242486 L699.247211,100.098039 L685.098039,114.247211 L706.242486,135.391658 L685.098039,156.535108 L699.247211,170.686275 L720.392656,149.54083 L741.536105,170.686275 L755.686275,156.535108 L734.54083,135.391658 L755.686275,114.247211 L755.686275,114.247211 Z M669.835294,175.392157 L660,175.392157 L660,195 L679.607843,195 L679.607843,185.215686 L669.835294,185.215686 L669.835294,175.392157 L669.835294,175.392157 Z M660,75 L660,94.6078431 L669.835294,94.6078431 L669.835294,84.7833333 L679.607843,84.7833333 L679.607843,75 L660,75 L660,75 Z" id="xiel-logo" sketch:type="MSShapeGroup"></path>
            </g>
        </g>
    </g>
</svg>