<?xml version="1.0" encoding="UTF-8" standalone="no"?>
<svg width="165px" height="165px" viewBox="0 0 165 165" version="1.1" xmlns="http://www.w3.org/2000/svg" xmlns:xlink="http://www.w3.org/1999/xlink" xmlns:sketch="http://www.bohemiancoding.com/sketch/ns">
    <!-- Generator: Sketch 3.3.3 (12081) - http://www.bohemiancoding.com/sketch -->
    <title>tech-grunt</title>
    <desc>Created with Sketch.</desc>
    <defs></defs>
    <g id="Tech-Icons" stroke="none" stroke-width="1" fill="none" fill-rule="evenodd" sketch:type="MSPage">
        <g id="tech-grunt" sketch:type="MSArtboardGroup">
            <g id="Group" sketch:type="MSLayerGroup" transform="translate(47.359340, 35.329204)">
                <path d="M4.75352175,22.9289494 C4.75352175,22.9289494 6.3679519,29.1602819 6.59814257,31.2377683 C6.82917746,33.3146913 2.44711254,37.9303889 2.44711254,40.2385193 C2.44711254,42.5466497 3.36843804,46.7007775 8.4427634,48.7782639 C13.5170888,50.8554686 14.2082236,56.16338 14.2082236,59.3952131 C14.2082236,62.6262014 12.3636028,68.8569707 12.3636028,68.8569707 C12.3636028,68.8569707 11.210961,84.31998 17.4370839,87.0893986 C23.6632068,89.8585355 22.280093,89.8585355 23.6632068,89.8585355 C25.0466021,89.8585355 35.1944086,94.0137898 41.1900595,92.3981548 C47.1862732,90.7825198 48.7995777,88.9365224 48.7995777,88.9365224 C48.7995777,88.9365224 54.7963542,89.397529 56.640975,84.0887727 C58.4867215,78.7811429 59.6390818,67.7034688 58.9471028,62.6256382 C58.2551238,57.547526 57.3329541,50.8557502 61.4837027,48.5473382 C65.6358583,46.2392078 70.017079,43.4706341 69.3251,41.1622221 C68.6331209,38.8540917 64.9441607,35.6228218 64.9441607,35.6228218 C64.9441607,35.6228218 64.0214282,29.8536222 64.7128444,28.4686313 C65.4042606,27.0839221 69.5558535,23.6211632 67.2494443,21.082952 C64.9444421,18.5444591 60.792005,18.5444591 60.792005,18.5444591 L55.4883332,19.0054656 C55.4883332,19.0054656 46.4942941,10.9281357 34.7326203,11.3897055 C22.9715092,11.8512752 15.591056,19.0054656 15.591056,19.0054656 C15.591056,19.0054656 11.6710609,17.6207564 8.21144711,19.0054656 C4.75183331,20.3907382 4.06210552,19.005184 4.75352175,22.9289494 L4.75352175,22.9289494 Z" id="Shape" fill="#FBA919" sketch:type="MSShapeGroup"></path>
                <path d="M25.8260986,57.2912548 C25.8260986,57.2912548 21.2591495,64.279573 17.9092843,69.238843 C17.3909332,70.0059668 21.2591495,70.0591924 21.2591495,70.0591924 L25.8260986,57.2912548 L25.8260986,57.2912548 Z" id="Shape" fill="#E78724" sketch:type="MSShapeGroup"></path>
                <path d="M28.0005281,42.8026393 C28.0005281,42.8026393 26.6238866,46.239771 25.8697167,48.061831 C25.0511046,50.0427228 21.9300231,51.0280996 21.9300231,51.0280996 C21.9300231,51.0280996 23.5478301,49.329951 23.5478301,45.0279744 C23.5478301,43.223093 25.876189,42.5055337 25.876189,42.5055337 L28.0005281,42.8026393 L28.0005281,42.8026393 Z" id="Shape" fill="#E78724" sketch:type="MSShapeGroup"></path>
                <path d="M26.6098163,44.7460761 C26.6098163,44.7460761 23.789277,48.1060448 18.5522986,46.2242821 C13.3141946,44.3430826 12.7772706,37.6223003 12.7772706,35.7405375 C12.7772706,33.8587748 22.7157105,37.6223003 24.0591461,38.4288505 C25.4025816,39.2354007 27.952689,42.4607566 26.6098163,44.7460761 L26.6098163,44.7460761 Z" id="Shape" fill="#E78724" sketch:type="MSShapeGroup"></path>
                <path d="M6.82720762,8.84248249 C6.82720762,8.84248249 11.6617745,7.90103789 14.8847253,10.4550197 C18.1090831,13.0084382 19.0478558,15.0250953 19.0478558,15.0250953 L13.6152997,19.3346756 C13.6152997,19.3346756 10.9903381,18.1166834 10.1843894,14.6218202 C9.37872204,11.1272387 9.91592741,9.51470153 6.82720762,8.84248249 L6.82720762,8.84248249 Z" id="Shape" fill="#E78724" sketch:type="MSShapeGroup"></path>
                <path d="M25.1996874,35.0407201 C23.1181221,32.0837448 19.6877746,30.7939403 16.9488433,30.5801933 C12.2786179,30.2146548 10.0614147,31.8668999 10.0614147,31.8668999 C10.0614147,31.8668999 17.7100484,32.1910408 19.9145884,35.0885949 C24.0186235,40.4815545 30.0058321,40.9197501 30.9631777,39.7352703 C29.8561238,39.7904672 28.6381957,39.2415962 27.3347199,38.0081151 C26.5203289,37.2364854 25.8601488,35.9793485 25.1996874,35.0407201 L25.1996874,35.0407201 Z" id="Shape" fill="#E78724" sketch:type="MSShapeGroup"></path>
                <path d="M12.2879044,45.4963029 C12.2879044,45.4963029 3.80152293,42.5767827 5.41454605,39.6203707 C7.02588074,36.6631138 5.74322906,35.0519847 5.74322906,35.0519847 C5.74322906,35.0519847 1.00462187,38.5919065 2.21213796,42.3548688 C2.95420739,44.6646889 4.19915057,46.3369288 11.0353632,49.5431348 C14.3143139,55.6381649 11.7124277,66.6091063 11.868327,66.6606422 C12.1280654,66.7470985 16.4721404,64.5119068 16.1755377,54.2478232 C16.0852062,51.0959692 15.8333472,46.7931478 12.2879044,45.4963029 L12.2879044,45.4963029 Z" id="Shape" fill="#E78724" sketch:type="MSShapeGroup"></path>
                <path d="M23.4085338,14.1016742 C19.8501462,15.9107798 14.9753382,18.4301227 14.9753382,18.4301227 L16.893969,19.3907173 C16.7107733,19.6875413 16.6224116,19.8646782 16.6224116,19.8646782 L18.5916955,20.7607825 C18.5916955,20.7607825 23.398966,24.245789 26.3444498,26.4863314 C25.3623404,23.4600785 22.4796103,18.7058255 22.4796103,18.7058255 C22.4796103,18.7058255 21.6626867,16.5213248 23.4085338,14.1016742 L23.4085338,14.1016742 Z" id="Shape" fill="#E78724" sketch:type="MSShapeGroup"></path>
                <path d="M35.2295845,87.845821 C24.2924322,87.845821 20.5877132,82.2892421 20.5877132,82.2892421 L22.2969774,86.4546345 C22.9430871,88.2566997 29.8352997,93.8642513 35.2129815,93.8642513" id="Shape" fill="#E78724" sketch:type="MSShapeGroup"></path>
                <path d="M21.7862242,78.5347283 C21.7862242,78.5347283 22.7925346,84.6891795 26.8217155,84.6891795 C30.2455906,84.6891795 31.2544336,79.4905354 31.2544336,78.4161677 L21.7862242,78.5347283 L21.7862242,78.5347283 Z" id="Shape" fill="#E78724" sketch:type="MSShapeGroup"></path>
                <path d="M15.0811471,69.2529238 C15.4390964,68.2667021 16.6924818,64.279573 17.0951748,60.650942 C17.5777873,56.3050332 17.4019081,49.9486628 17.4019081,49.9486628 C17.4019081,49.9486628 16.3269345,54.1151818 15.3867548,54.7885273 C14.4471379,55.4601831 12.700728,60.0294139 12.700728,60.0294139 C12.700728,60.0294139 11.7653321,66.8321467 11.3201468,69.1185926 C12.5521452,69.3655705 13.5894103,68.6389994 15.0811471,69.2529238 L15.0811471,69.2529238 Z" id="Shape" fill="#E78724" sketch:type="MSShapeGroup"></path>
                <path d="M5.35122955,42.2881256 C5.35122955,42.2881256 7.63371918,41.4810122 8.30599975,36.5087879 C8.9771547,31.5354371 7.49948819,27.234587 7.49948819,27.234587 C7.49948819,27.234587 7.63371918,34.0891373 6.82833324,35.4335753 C6.02182168,36.7771686 5.35122955,37.1804437 4.41048699,38.9281569 C3.46974444,40.6761517 4.81317996,41.7502377 5.35122955,42.2881256 L5.35122955,42.2881256 Z" id="Shape" fill="#E78724" sketch:type="MSShapeGroup"></path>
                <path id="Shape" fill="#FDC168" sketch:type="MSShapeGroup" d="M8.0766533,10.0187954 L7.61064383,9.7233795 C6.23653498,9.76984626 8.0766533,10.0187954 8.0766533,10.0187954 L8.0766533,10.0187954 Z"></path>
                <path d="M25.2663807,12.6293821 C25.2663807,12.6293821 23.1181221,12.2711657 22.0431486,10.6586285 C20.968175,9.04552813 17.9244803,5.81932731 13.0721848,5.78328037 C8.22017071,5.74695182 3.41965405,7.07392967 3.41965405,7.07392967 L7.61008102,9.72366112 C8.05329655,9.70929867 8.82829056,9.71521262 10.1098166,9.75801835 C15.3687448,9.93290232 16.1783518,15.1385869 16.1783518,15.1385869 L34.712359,12.5846051" id="Shape" fill="#FBA919" sketch:type="MSShapeGroup"></path>
                <path d="M27.0575343,41.3813199 C27.0575343,41.3813199 24.5502007,43.8905246 20.699713,43.0834111 C16.8492253,42.2774242 14.5208664,40.5747697 14.3418918,37.6175128 C14.1629171,34.6605375 15.1484033,33.4957709 15.1484033,33.4957709 C15.1484033,33.4957709 19.4457648,34.8407722 21.5062246,36.6329808 C23.5655587,38.4246262 25.0874061,41.2920474 27.0575343,41.3813199 L27.0575343,41.3813199 Z" id="Shape" fill="#FFFFFF" sketch:type="MSShapeGroup"></path>
                <path d="M24.023126,40.4849339 C24.023126,40.4849339 21.8486965,41.4790408 19.418187,40.6693929 C16.236603,39.6074163 16.0247038,36.2961673 16.0247038,36.2961673 C16.0247038,36.2961673 14.072867,42.0281934 19.5451014,43.1315676 C23.9342015,44.0164072 26.5298968,41.4711556 26.5298968,41.4711556 L24.023126,40.4849339 L24.023126,40.4849339 Z" id="Shape" fill="#C9C9C9" sketch:type="MSShapeGroup"></path>
                <path d="M25.5683301,11.4133613 C25.3344812,6.4974603 29.3614108,2.58214344 30.7566252,2.41542636 C30.8337306,3.24844853 30.6789569,6.49774192 32.0738899,7.49691794 C32.4799597,4.84296224 33.8532244,1.91696482 39.2759312,-7.10542736e-15 C38.1145658,3.0825763 39.1208761,5.66471975 39.6001117,6.86159068 C43.3031423,3.49796092 45.798094,4.05387227 45.798094,4.05387227 C45.798094,4.05387227 43.2251926,8.49693881 44.231503,11.4122348 C36.7978639,10.8290066 25.6046316,12.2027329 25.5683301,11.4133613 L25.5683301,11.4133613 Z" id="Shape" fill="#463014" sketch:type="MSShapeGroup"></path>
                <path d="M9.80899287,18.9012675 C8.03528652,17.4286938 9.35733513,16.062008 9.2171946,14.3889232 C9.14093339,13.4987329 9.07058172,12.6586703 8.77735595,12.1954108 C7.14519717,9.61608354 3.29470948,8.83347076 3.25615677,8.82530387 L1.44896303,8.47103007 L2.64522285,7.07055027 C2.80027794,6.88918912 7.71307587,2.19829989 15.3155589,4.65456067 C20.6335825,6.37101441 24.570462,12.1914682 24.7170749,12.4266181 L22.0504651,13.6815021 C22.019229,13.6319376 18.906871,8.1609701 14.3444244,6.68867804 C10.6563084,5.49772105 7.25719703,6.630665 5.80119884,7.37328821 C7.34893561,7.99171847 9.37253109,9.11790361 10.5918663,11.0444434 C11.1670615,11.9543469 11.2641468,13.0999636 11.3578553,14.2092518 C11.4813928,15.6778828 11.597051,17.0642818 12.6770898,17.9620758 L9.80899287,18.9012675 L9.80899287,18.9012675 Z" id="Shape" fill="#463014" sketch:type="MSShapeGroup"></path>
                <path d="M5.07179271,40.3979144 C5.07179271,40.3979144 7.3064432,37.6248348 7.96831173,32.2287774 C8.22833151,30.1034162 7.76654314,25.9112702 7.02756918,24.2984514 C7.16180017,28.2633328 6.15464564,32.2287774 6.15464564,32.2287774 C6.15464564,32.2287774 5.4756113,39.5913642 5.07179271,40.3979144 L5.07179271,40.3979144 Z" id="Shape" fill="#463014" sketch:type="MSShapeGroup"></path>
                <path d="M16.8551349,16.1005895 C16.8540093,16.0946755 16.1381106,12.9639428 14.1533493,11.3835099 C11.3536342,9.1547954 7.93510574,10.3404017 7.90218116,10.3508215 L7.40577976,8.81629214 C7.5712469,8.76250335 11.4785787,7.53043033 15.0794587,10.0635725 C18.702007,12.6110771 19.1367803,14.9203339 19.1744888,15.1754786 L16.8551349,16.1005895 L16.8551349,16.1005895 Z" id="Shape" fill="#463014" sketch:type="MSShapeGroup"></path>
                <path d="M12.0903569,38.4091373 C12.0903569,38.4091373 10.9180166,36.7295753 11.1287902,34.8824515 C11.2337549,33.970295 11.6561464,33.0339195 12.4103163,32.7016118 C13.8117216,32.0854345 14.4327861,33.6751607 14.4327861,33.6751607 C14.4327861,33.6751607 12.4604067,34.1623576 12.0903569,38.4091373 L12.0903569,38.4091373 Z" id="Shape" fill="#463014" sketch:type="MSShapeGroup"></path>
                <path d="M24.9627429,40.969033 C25.0117077,41.0605584 25.0367529,41.1118127 25.0367529,41.1118127 C25.0367529,41.1118127 21.3801544,43.8581387 17.6326616,41.0712599 C15.6267947,39.5781282 15.8161814,35.8847253 16.4307736,34.3183732 C18.0288822,34.6808139 19.3844182,35.3341646 20.5173615,36.0970643 C19.0855643,34.8182429 17.8321789,33.8767983 17.8355558,33.8551138 L16.2081809,33.3941073 L13.0451698,32.3087565 C13.0046472,32.550102 11.8508798,37.96193 15.1810465,41.6494189 C16.6570246,43.2844855 23.576815,46.9460657 26.8622381,40.6851634 L24.9627429,40.969033 L24.9627429,40.969033 Z" id="Shape" fill="#463014" sketch:type="MSShapeGroup"></path>
                <path d="M24.620271,41.3714633 C26.6790423,44.5072651 31.8735283,42.7153381 31.784041,39.4001464 C31.784041,39.4001464 28.3131709,41.3171113 25.2466823,37.7876093 C23.4563729,35.7270199 17.7196162,30.0454032 9.93984697,31.9336431 C15.3124634,33.11587 22.4250174,38.0281099 24.620271,41.3714633 L24.620271,41.3714633 Z" id="Shape" fill="#463014" sketch:type="MSShapeGroup"></path>
                <path d="M9.2129735,50.2215494 C9.70824927,50.5079536 11.4549406,52.3181857 11.4560662,55.0256486 C11.4560662,56.3833226 11.320991,63.2037973 10.6495546,67.3705978 C11.6595232,68.027328 12.36304,68.1670098 13.3687874,68.8364127 C13.872224,64.0106291 14.2332688,57.0163969 14.0649876,54.192908 C13.8725054,50.9743108 12.1505779,48.8143108 10.553595,47.8931426 C10.0535353,47.6053304 9.53096306,47.3223056 9.00473256,47.0375911 C6.26945956,45.5585402 3.44104096,44.0285168 3.44104096,41.4159587 C3.44104096,39.3722664 4.23488922,38.7329965 5.07545099,38.0554267 L5.16606395,37.9819248 C5.723812,37.5310565 6.3550072,37.0196405 6.72899668,36.1798596 C7.74937733,33.8838387 7.91625149,28.0352232 6.72899668,26.55054 C6.13719842,25.810733 4.55147174,23.3229311 5.00735058,21.6512545 C5.1809785,21.013111 5.58254584,20.5402766 6.23625358,20.2051528 C6.92795121,19.8505973 7.86250282,19.6709259 9.01289335,19.6709259 C11.272589,19.6709259 13.778797,20.3591971 15.0718607,20.7689494 C19.6922771,22.2344826 25.2675064,26.4598595 26.8656149,27.7200942 C26.9114842,27.7552962 26.9384993,27.7758543 26.9432832,27.7792337 L27.9659151,28.490879 L27.3262777,27.4198908 C27.2868807,27.3531476 23.2363129,20.6878438 15.993749,18.2439741 C14.5847457,17.7686051 11.8165482,16.9707851 9.09618973,16.9707851 C7.47641284,16.9707851 6.10202259,17.2538098 5.01382293,17.8114109 C3.68755322,18.4903887 2.78930307,19.5737681 2.41615781,20.9432701 C1.50158608,24.3004227 4.48027585,28.038321 4.58186367,28.1577265 C4.92911952,28.7781281 5.07629521,33.28484 4.27400475,35.0885949 C4.16369333,35.337544 3.86118114,35.5822689 3.47818664,35.8914841 C3.35830739,35.9886418 3.22407641,36.0894606 3.08196603,36.1973198 C1.95014834,37.0523081 0.23863287,38.3440838 0.23863287,41.3216171 C0.23863287,45.3957658 4.3646177,47.6047671 7.68043269,49.3809236 C8.22439181,49.6738049 8.74358715,49.9509158 9.2129735,50.2215494 L9.2129735,50.2215494 Z" id="Shape" fill="#463014" sketch:type="MSShapeGroup"></path>
                <g transform="translate(0.844220, 3.661017)" id="Shape" fill="#463014" sketch:type="MSShapeGroup">
                    <path d="M8.96477281,15.2402505 C7.19106646,13.7676768 8.51311507,12.400991 8.37297455,10.7279062 C8.29671333,9.83771588 8.22636166,8.99765329 7.93313589,8.53439383 C6.30097711,5.95506655 2.45048942,5.17245377 2.41193671,5.16428689 L0.604742969,4.81001309 L1.80100279,3.40953328 C1.95605788,3.22817213 6.86885581,-1.46271709 14.4713388,0.993543687 C19.7893624,2.70999742 23.7262419,8.5304512 23.8728548,8.76560113 L21.2062451,10.0204851 C21.1750089,9.97092057 18.062651,4.49995311 13.5002044,3.02766105 C9.81208834,1.83670406 6.41297697,2.96964801 4.95697878,3.71227122 C6.50471555,4.33070148 8.52831104,5.45688663 9.74764621,7.38342641 C10.3228415,8.29332994 10.4199268,9.43894664 10.5136352,10.5482348 C10.6371727,12.0168658 10.7528309,13.4032648 11.8328698,14.3010588 L8.96477281,15.2402505 L8.96477281,15.2402505 Z"></path>
                    <path d="M8.90708444,15.541862 L8.79255191,15.4469571 C7.47725706,14.354566 7.71054321,13.2785086 7.93651277,12.2373717 C8.03922622,11.7569336 8.14756779,11.2601618 8.10366835,10.7507172 C8.03190964,9.89403922 7.962965,9.08579931 7.70519648,8.67773673 C6.15098735,6.22203918 2.39505231,5.43520214 2.35790662,5.42759849 L0.100743594,4.98461544 L1.59698294,3.23408608 C1.62427939,3.20141855 4.77856694,0.0149256846 10.1207915,0.0149256846 C11.5770711,0.0149256846 13.0690893,0.257397656 14.5535096,0.737272498 C20.1039751,2.52835465 24.0636486,8.56311873 24.1010757,8.62282147 L24.2611961,8.87909266 L21.1069085,10.3637759 L20.9802755,10.1627015 C20.640899,9.58369762 17.6501088,4.64780187 13.4191592,3.28196092 C12.3799244,2.94627382 11.2852523,2.77674058 10.166098,2.77674058 C8.13912559,2.77674058 6.49542913,3.32955414 5.62081715,3.70072494 C7.08244348,4.35942638 8.8550242,5.4681513 9.97671125,7.23839382 C10.5865195,8.20264937 10.6852933,9.38121522 10.7820972,10.5197915 C10.9008508,11.9357602 11.0131321,13.2672439 12.0056535,14.0918176 L12.3802058,14.4027224 L8.90708444,15.541862 L8.90708444,15.541862 Z"></path>
                </g>
                <g transform="translate(7.035167, 8.166884)" id="Shape" fill="#463014" sketch:type="MSShapeGroup">
                    <path d="M9.81996773,7.93370543 C9.8188421,7.92779148 9.10294349,4.79705872 7.11818213,3.21662585 C4.31846701,0.987911353 0.899938583,2.17351762 0.867014001,2.18393744 L0.370612606,0.64940809 C0.536079737,0.595619302 4.44341158,-0.636453722 8.04429154,1.89668842 C11.6668398,4.44419301 12.1016131,6.75344987 12.1393216,7.0085946 L9.81996773,7.93370543 L9.81996773,7.93370543 Z"></path>
                    <path d="M9.62748555,8.29980713 L9.55769669,7.99171847 C9.55038012,7.96158548 8.84827044,4.93786707 6.95018234,3.42755675 C5.86845504,2.56552806 4.56385364,2.12789572 3.07493086,2.12789572 C1.91272125,2.12789572 1.04908413,2.40556978 0.954812887,2.43823731 L0.698169989,2.52356717 L0.0323617689,0.476495442 L0.287597633,0.393981751 C0.402130155,0.357653198 1.43911379,0.0340756196 2.90608685,0.0340756196 C4.84132063,0.0340756196 6.67102691,0.602378103 8.19962803,1.67646416 C11.9127893,4.28789574 12.3661354,6.70275887 12.4049695,6.96916826 L12.4376127,7.17981755 L9.62748555,8.29980713 L9.62748555,8.29980713 Z M3.07521227,1.59113431 C4.66572286,1.59113431 6.12256527,2.08058412 7.2853377,3.00597656 C8.97068235,4.34928818 9.76340498,6.72078234 10.0031635,7.57098313 L11.8300557,6.84244075 C11.6645886,6.19697529 10.9363081,4.25973407 7.89036208,2.11691267 C6.43295685,1.09182791 4.75661722,0.572526733 2.90636826,0.572526733 C1.89105293,0.572526733 1.10226999,0.734174714 0.71252173,0.832740556 L1.04204896,1.85191136 C1.42419924,1.74912127 2.15951491,1.59113431 3.07521227,1.59113431 L3.07521227,1.59113431 Z"></path>
                </g>
                <path d="M26.6534343,83.2126632 L26.6534343,83.2126632 C25.8598674,83.2126632 25.049979,82.9245693 24.4885727,82.4382173 C24.0588646,82.0676097 22.6056805,80.7319018 21.9649175,79.0954272 C21.7257218,78.4834741 21.7794705,77.9940243 22.1264449,77.6417218 C22.3656406,77.4003763 22.862042,77.1117192 23.8697594,77.1117192 L24.5867836,77.1105927 C25.4411343,77.1097479 26.8796853,77.1097479 28.1091511,77.1097479 L29.2879637,77.1097479 C30.0545155,77.1097479 30.6041028,77.2756201 30.9201225,77.5989161 C31.3259109,78.016272 31.195901,78.5471195 31.0824941,78.8264832 C30.8849466,79.315933 30.0674602,80.908757 28.6835021,82.3894976 C28.187945,82.9200634 27.4666996,83.2126632 26.6534343,83.2126632 L26.6534343,83.2126632 Z" id="Shape" fill="#463014" sketch:type="MSShapeGroup"></path>
                <path d="M27.4852725,41.5559222 L24.6199896,41.3714633 C24.6199896,41.3714633 25.3524912,42.6635207 25.8269429,44.3346341 C26.3627412,46.2248453 25.3370138,48.9872235 25.3370138,48.9872235 C25.3370138,48.9872235 29.157391,44.6587749 27.4852725,41.5559222 L27.4852725,41.5559222 Z" id="Shape" fill="#463014" sketch:type="MSShapeGroup"></path>
                <path d="M23.9085935,90.7839279 C13.7106966,89.9996254 10.1227613,80.3562251 10.1227613,78.3477348 L12.7859942,78.3488613 L11.4543778,78.3477348 L12.7859942,78.3477348 C12.7992203,79.2159591 15.5094481,87.4650752 24.1126133,88.1271561 L23.9085935,90.7839279 L23.9085935,90.7839279 Z" id="Shape" fill="#463014" sketch:type="MSShapeGroup"></path>
                <path d="M21.0427478,73.5064623 C20.8834716,72.5847309 20.8668686,71.7105927 21.0613206,70.8516618 C20.2863266,70.2687152 18.8956148,70.052152 17.8521588,69.7136487 C16.9989337,69.1732263 12.6326276,70.2675887 9.46483249,66.4311245 C5.49587258,61.6270254 6.33108763,58.7587594 6.33108763,58.7587594 C5.31352105,59.8902953 4.32719062,59.4591401 2.77607696,64.7349472 C1.22271205,70.0118808 3.50520168,73.6906396 7.75922656,77.3837609 C9.76903312,79.1283763 12.610115,79.8470621 15.0538507,80.1222016 C14.2352386,79.2995993 16.4521605,79.2173672 17.9801988,78.6451221 C17.8583497,77.4105145 18.0623696,76.2119539 18.982288,75.2468535 C19.5369406,74.6650334 20.250588,74.3172368 20.990969,74.0401259 C21.0323357,73.9443763 21.0672302,73.8559486 21.1066271,73.7641416 C21.0821447,73.6802198 21.0582252,73.5954532 21.0427478,73.5064623 L21.0427478,73.5064623 Z" id="Shape" fill="#FFFFFF" sketch:type="MSShapeGroup"></path>
                <path d="M17.9596561,78.6130178 C17.8712944,78.3539304 17.804601,78.089774 17.7390333,77.8239278 C17.6684002,77.533581 17.3166418,76.7109786 17.7502896,77.6501703 C17.6388525,77.4096696 17.5659682,77.161847 17.5122195,76.9120529 C10.622821,76.9033228 4.62913999,72.1696279 5.7871285,62.2175756 C4.88522007,61.0192966 3.62226687,64.6338468 3.62226687,64.6338468 C3.62226687,64.6338468 0.173346519,74.6560216 9.08099377,78.5403607 C12.0489901,79.8357974 14.6719818,80.7642877 15.2907951,80.3894559 C16.5799191,80.651641 17.7435358,79.7521573 18.1799976,79.1607622 C18.0981082,78.9791195 18.0235354,78.7971951 17.9596561,78.6130178 L17.9596561,78.6130178 Z" id="Shape" fill="#C9C9C9" sketch:type="MSShapeGroup"></path>
                <path d="M20.9186474,72.0634584 C20.9293409,71.2233958 21.1007176,70.4098052 21.506506,69.5990307 C21.5349281,69.5432706 21.5678527,69.4897634 21.5982446,69.4354114 C18.9471122,69.4126005 15.8938496,69.1585822 13.2939333,68.1171637 C10.4362484,66.9732367 6.86153923,63.0596095 6.24722844,58.4613722 C6.24722844,58.4613722 0.86532556,62.6174713 2.44683114,71.5131794 C3.93125141,79.8664937 10.9160468,82.5897271 18.8821072,83.050452 C18.8863283,82.9963816 17.9861084,81.1354585 18.2706105,79.996319 C13.7472794,80.3252472 8.68899425,78.5764076 6.24722844,74.5554845 C4.01173372,70.8753176 4.63870782,64.5921676 5.55750065,63.6715626 C7.7986235,70.7483084 15.8626135,72.1868065 20.9186474,72.0634584 L20.9186474,72.0634584 Z" id="Shape" fill="#463014" sketch:type="MSShapeGroup"></path>
                <path d="M21.7532997,66.9971741 C20.319814,71.207062 17.3917774,74.6140607 17.3917774,74.6140607 C17.3917774,74.6140607 21.4195513,74.4307283 21.6418626,73.7173932 C21.8064855,73.1916148 25.2787626,65.0571167 26.6115047,55.5280527 C25.3578379,57.5892053 21.875993,66.6367047 21.7532997,66.9971741 L21.7532997,66.9971741 Z" id="Shape" fill="#463014" sketch:type="MSShapeGroup"></path>
                <path d="M44.5728493,57.2912548 C44.5728493,57.2912548 49.1386728,64.279573 52.4896636,69.238843 C53.0080147,70.0059668 49.1386728,70.0591924 49.1386728,70.0591924 L44.5728493,57.2912548 L44.5728493,57.2912548 Z" id="Shape" fill="#E78724" sketch:type="MSShapeGroup"></path>
                <path d="M42.397857,42.8026393 C42.397857,42.8026393 43.7747799,46.239771 44.5278242,48.061831 C45.3464362,50.0427228 48.4672364,51.0280996 48.4672364,51.0280996 C48.4672364,51.0280996 46.8497108,49.329951 46.8497108,45.0279744 C46.8497108,43.223093 44.5216333,42.5055337 44.5216333,42.5055337 L42.397857,42.8026393 L42.397857,42.8026393 Z" id="Shape" fill="#E78724" sketch:type="MSShapeGroup"></path>
                <path d="M43.7882874,44.7460761 C43.7882874,44.7460761 46.6088266,48.1060448 51.8472121,46.2242821 C57.0855976,44.3425194 57.6222401,37.6223003 57.6222401,35.7405375 C57.6222401,33.8587748 47.6838002,37.6223003 46.3403647,38.4288505 C44.9969291,39.2354007 42.4456961,42.4607566 43.7882874,44.7460761 L43.7882874,44.7460761 Z" id="Shape" fill="#E78724" sketch:type="MSShapeGroup"></path>
                <path d="M63.5714589,8.84248249 C63.5714589,8.84248249 58.736892,7.90103789 55.5128156,10.4550197 C52.2898648,13.0084382 51.3494037,15.0250953 51.3494037,15.0250953 L56.7822412,19.3343939 C56.7822412,19.3343939 59.4083284,18.1164018 60.2142771,14.6215386 C61.0196631,11.1272387 60.4827391,9.51470153 63.5714589,8.84248249 L63.5714589,8.84248249 Z" id="Shape" fill="#E78724" sketch:type="MSShapeGroup"></path>
                <path d="M45.1989791,35.0407201 C47.2805444,32.0837448 50.7097663,30.7939403 53.4498232,30.5801933 C58.12033,30.2146548 60.3364076,31.8668999 60.3364076,31.8668999 C60.3364076,31.8668999 52.6877739,32.1910408 50.4829525,35.0885949 C46.378636,40.4815545 40.3933972,40.9197501 39.4360516,39.7352703 C40.5428241,39.7904672 41.7613151,39.2415962 43.0639466,38.0081151 C43.8780562,37.2364854 44.5385177,35.9793485 45.1989791,35.0407201 L45.1989791,35.0407201 Z" id="Shape" fill="#E78724" sketch:type="MSShapeGroup"></path>
                <path d="M58.1107621,45.4963029 C58.1107621,45.4963029 66.5960179,42.5767827 64.9844019,39.6203707 C63.3730672,36.6631138 64.6545932,35.0519847 64.6545932,35.0519847 C64.6545932,35.0519847 69.394326,38.5919065 68.1856843,42.3548688 C67.4436149,44.6646889 66.1986717,46.3369288 59.3624591,49.5431348 C56.0835084,55.6381649 58.6853946,66.6091063 58.5303395,66.6606422 C58.2703197,66.7470985 53.9268075,64.5119068 54.2234102,54.2478232 C54.3134603,51.0959692 54.5653193,46.7931478 58.1107621,45.4963029 L58.1107621,45.4963029 Z" id="Shape" fill="#E78724" sketch:type="MSShapeGroup"></path>
                <path d="M46.9904141,14.1016742 C50.547676,15.9107798 55.4233283,18.4301227 55.4233283,18.4301227 L53.5049789,19.3907173 C53.6881747,19.6875413 53.7768178,19.8646782 53.7768178,19.8646782 L51.8075338,20.7607825 C51.8075338,20.7607825 46.9999819,24.245789 44.0544982,26.4863314 C45.0354819,23.4600785 47.918212,18.7058255 47.918212,18.7058255 C47.918212,18.7058255 48.7365426,16.5213248 46.9904141,14.1016742 L46.9904141,14.1016742 Z" id="Shape" fill="#E78724" sketch:type="MSShapeGroup"></path>
                <path d="M35.1696448,87.845821 C46.1051087,87.845821 49.8098277,82.2892421 49.8098277,82.2892421 L48.1016891,86.4546345 C47.4555794,88.2566997 40.562804,93.8642513 35.1862478,93.8642513" id="Shape" fill="#E78724" sketch:type="MSShapeGroup"></path>
                <path d="M48.6124422,78.5347283 C48.6124422,78.5347283 47.6050063,84.6891795 43.576951,84.6891795 C40.1536387,84.6891795 39.1445143,79.4905354 39.1445143,78.4161677 L48.6124422,78.5347283 L48.6124422,78.5347283 Z" id="Shape" fill="#E78724" sketch:type="MSShapeGroup"></path>
                <path d="M55.3175194,69.2529238 C54.9595701,68.2667021 53.7061847,64.279573 53.3023661,60.650942 C52.8197536,56.3050332 52.9967584,49.9486628 52.9967584,49.9486628 C52.9967584,49.9486628 54.0714506,54.1151818 55.0105047,54.7885273 C55.9515286,55.4601831 57.6968129,60.0294139 57.6968129,60.0294139 C57.6968129,60.0294139 58.6322087,66.8321467 59.0773941,69.1185926 C57.845677,69.3655705 56.8095376,68.6389994 55.3175194,69.2529238 L55.3175194,69.2529238 Z" id="Shape" fill="#E78724" sketch:type="MSShapeGroup"></path>
                <path d="M65.0482812,42.2881256 C65.0482812,42.2881256 62.7646659,41.4810122 62.093511,36.5087879 C61.422356,31.5354371 62.8997411,27.234587 62.8997411,27.234587 C62.8997411,27.234587 62.7646659,34.0891373 63.5708961,35.4335753 C64.3774076,36.7777318 65.0482812,37.1804437 65.9887423,38.9281569 C66.9280778,40.67587 65.5852051,41.7502377 65.0482812,42.2881256 L65.0482812,42.2881256 Z" id="Shape" fill="#E78724" sketch:type="MSShapeGroup"></path>
                <path id="Shape" fill="#FDC168" sketch:type="MSShapeGroup" d="M62.3217318,10.0187954 L62.7885855,9.7233795 C64.1629757,9.76984626 62.3217318,10.0187954 62.3217318,10.0187954 L62.3217318,10.0187954 Z"></path>
                <path d="M45.1314415,12.6293821 C45.1314415,12.6293821 47.2808258,12.2711657 48.3546737,10.6586285 C49.4293659,9.04552813 52.4741862,5.81932731 57.3267631,5.78328037 C62.1787772,5.74695182 66.9792939,7.07392967 66.9792939,7.07392967 L62.7885855,9.72366112 C62.3453699,9.70929867 61.5703759,9.71521262 60.2877243,9.75801835 C55.0296403,9.93290232 54.2200333,15.1385869 54.2200333,15.1385869 L35.6865889,12.5846051" id="Shape" fill="#FBA919" sketch:type="MSShapeGroup"></path>
                <path d="M43.3411322,41.3813199 C43.3411322,41.3813199 45.8484658,43.8905246 49.6981092,43.0834111 C53.5488783,42.2774242 55.8769559,40.5747697 56.0562119,37.6175128 C56.2349052,34.6605375 55.2505446,33.4957709 55.2505446,33.4957709 C55.2505446,33.4957709 50.9520574,34.8407722 48.8927233,36.6329808 C46.8333892,38.4251894 45.3115418,41.2920474 43.3411322,41.3813199 L43.3411322,41.3813199 Z" id="Shape" fill="#FFFFFF" sketch:type="MSShapeGroup"></path>
                <path d="M46.3746963,40.4849339 C46.3746963,40.4849339 48.54997,41.4790408 50.9796353,40.6693929 C54.1620635,39.6074163 54.3739627,36.2961673 54.3739627,36.2961673 C54.3739627,36.2961673 56.3246739,42.0281934 50.8524395,43.1315676 C46.4641836,44.0164072 43.8679255,41.4711556 43.8679255,41.4711556 L46.3746963,40.4849339 L46.3746963,40.4849339 Z" id="Shape" fill="#C9C9C9" sketch:type="MSShapeGroup"></path>
                <path d="M60.5893922,18.9012675 C62.3630986,17.4286938 61.0421756,16.062008 61.1823161,14.3889232 C61.2571703,13.4987329 61.327522,12.6586703 61.6210291,12.1954108 C63.2534693,9.61608354 67.1036756,8.83347076 67.143354,8.82530387 L68.9508291,8.47103007 L67.7542879,7.07055027 C67.5992328,6.88918912 62.6864349,2.19829989 55.0828262,4.65456067 C49.7656469,6.37101441 45.8287673,12.1914682 45.6824358,12.4266181 L48.34792,13.6815021 C48.3802817,13.6319376 51.4929211,8.1609701 56.0553677,6.68867804 C59.7432023,5.49772105 63.1423137,6.630665 64.5974677,7.37328821 C63.0505751,7.99171847 61.0261354,9.11790361 59.8068002,11.0444434 C59.231605,11.9543469 59.1353639,13.0999636 59.0419369,14.2092518 C58.9183993,15.6778828 58.8016155,17.0642818 57.7212953,17.9620758 L60.5893922,18.9012675 L60.5893922,18.9012675 Z" id="Shape" fill="#463014" sketch:type="MSShapeGroup"></path>
                <path d="M65.3257482,40.3979144 C65.3257482,40.3979144 63.0922233,37.6248348 62.4303548,32.2287774 C62.170335,30.1034162 62.6312791,25.9112702 63.3699717,24.2984514 C63.2357407,28.2633328 64.2437395,32.2287774 64.2437395,32.2287774 C64.2437395,32.2287774 64.9230552,39.5913642 65.3257482,40.3979144 L65.3257482,40.3979144 Z" id="Shape" fill="#463014" sketch:type="MSShapeGroup"></path>
                <path d="M53.5435316,16.1005895 C53.5446572,16.0946755 54.2605559,12.9639428 56.2455986,11.3835099 C59.0450323,9.1547954 62.4638422,10.3404017 62.4956411,10.3508215 L62.9934495,8.81629214 C62.8274196,8.76250335 58.9206506,7.53043033 55.318645,10.0635725 C51.6960967,12.6110771 51.262449,14.9203339 51.2236149,15.1754786 L53.5435316,16.1005895 L53.5435316,16.1005895 Z" id="Shape" fill="#463014" sketch:type="MSShapeGroup"></path>
                <path d="M58.3083096,38.4091373 C58.3083096,38.4091373 59.4806499,36.7295753 59.2687506,34.8824515 C59.1649116,33.970295 58.7425201,33.0339195 57.9883502,32.7016118 C56.5869449,32.0854345 55.965599,33.6751607 55.965599,33.6751607 C55.965599,33.6751607 57.9382598,34.1623576 58.3083096,38.4091373 L58.3083096,38.4091373 Z" id="Shape" fill="#463014" sketch:type="MSShapeGroup"></path>
                <path d="M45.436205,40.969033 C45.3872402,41.0605584 45.3619136,41.1118127 45.3619136,41.1118127 C45.3619136,41.1118127 49.0173865,43.8581387 52.7648793,41.0712599 C54.7721532,39.5781282 54.5824851,35.8847253 53.9667673,34.3183732 C52.3695029,34.6808139 51.0142483,35.3341646 49.8807422,36.0970643 C51.3128208,34.8182429 52.5662062,33.8767983 52.5617037,33.8551138 L54.1902042,33.3941073 L57.3529339,32.3093198 C57.3934565,32.5506653 58.5469425,37.9624932 55.2156501,41.6499822 C53.7399535,43.2850487 46.8201631,46.9466289 43.5355842,40.6857266 L45.436205,40.969033 L45.436205,40.969033 Z" id="Shape" fill="#463014" sketch:type="MSShapeGroup"></path>
                <path d="M45.7775513,41.3714633 C43.71878,44.5072651 38.525701,42.7153381 38.6154697,39.4001464 C38.6154697,39.4001464 42.0852142,41.3171113 45.1517028,37.7876093 C46.9420122,35.7270199 52.6798945,30.0454032 60.4593823,31.9336431 C55.0870473,33.11587 47.9739305,38.0281099 45.7775513,41.3714633 L45.7775513,41.3714633 Z" id="Shape" fill="#463014" sketch:type="MSShapeGroup"></path>
                <path d="M61.1865372,50.2215494 C60.69098,50.5079536 58.9434445,52.3181857 58.9434445,55.0256486 C58.9423189,56.3833226 59.0776755,63.2037973 59.7499561,67.3705978 C58.7397061,68.027328 58.0361894,68.1670098 57.0304419,68.8364127 C56.5270053,64.0106291 56.1648349,57.0163969 56.3342417,54.192908 C56.5264425,50.9743108 58.2478072,48.8143108 59.8445087,47.8931426 C60.3445684,47.6053304 60.867422,47.3223056 61.3947782,47.0375911 C64.1300512,45.5585402 66.9584698,44.0285168 66.9584698,41.4159587 C66.9584698,39.3722664 66.1637773,38.7329965 65.3232155,38.0554267 L65.2337282,37.9819248 C64.6759801,37.5310565 64.0436593,37.0196405 63.6707954,36.1798596 C62.6501334,33.8838387 62.4826964,28.0352232 63.6696698,26.55054 C64.2614681,25.810733 65.8483204,23.3229311 65.3924415,21.6512545 C65.217688,21.013111 64.8158392,20.5402766 64.1624129,20.2051528 C63.4704339,19.8505973 62.5372893,19.6709259 61.3857731,19.6709259 C59.1274845,19.6709259 56.6198695,20.3591971 55.3279314,20.7689494 C50.707515,22.2344826 45.1322858,26.4598595 43.5330516,27.7200942 C43.4874637,27.7552962 43.4610114,27.7758543 43.4559461,27.7792337 L42.4327514,28.490879 L43.0723888,27.4198908 C43.1129114,27.3531476 47.162635,20.6878438 54.4049175,18.2439741 C55.8142022,17.7686051 58.5821183,16.9707851 61.3027582,16.9707851 C62.9225351,16.9707851 64.2955183,17.2538098 65.3848436,17.8114109 C66.7113947,18.4903887 67.609082,19.5737681 67.9827901,20.9432701 C68.8973618,24.3004227 65.9183906,28.038321 65.8168028,28.1577265 C65.469547,28.7781281 65.3226527,33.28484 66.1238175,35.0885949 C66.2341289,35.337544 66.5366411,35.5822689 66.9204799,35.8914841 C67.0403591,35.9886418 67.1734645,36.0894606 67.3167005,36.1973198 C68.4487996,37.0523081 70.1594708,38.3440838 70.1594708,41.3216171 C70.1594708,45.3957658 66.033486,47.6047671 62.7187966,49.3809236 C62.1742747,49.6738049 61.6545165,49.9509158 61.1865372,50.2215494 L61.1865372,50.2215494 Z" id="Shape" fill="#463014" sketch:type="MSShapeGroup"></path>
                <path d="M56.2644529,18.4219559 C55.6082125,17.3095699 53.929903,15.1616794 50.0616867,13.2742844 C45.7449081,11.1686364 40.7488138,10.099901 35.209886,10.0973665 L35.209886,10.09624 L35.1991925,10.09624 L35.1884991,10.09624 L35.1884991,10.0968032 C29.6487271,10.0996194 24.6517885,11.1683547 20.3361356,13.2737211 C16.4679193,15.1613978 14.7901726,17.3090067 14.1333694,18.4213926 L13.8516813,18.7945347 L17.1641194,19.5323705 L17.2690841,19.399729 L17.3245212,19.2780706 C17.3757373,19.0589728 17.819797,17.8761827 21.5129784,16.0738359 C25.4611142,14.1467329 30.0660532,13.1698046 35.1986297,13.1681149 C40.3317691,13.1698046 44.9347383,14.1467329 48.8825927,16.0738359 C52.5760554,17.8761827 53.0215222,19.0589728 53.0721754,19.2780706 L53.1273311,19.399729 L53.2311702,19.5323705 L56.5447339,18.7945347 L56.2644529,18.4219559 L56.2644529,18.4219559 Z" id="Shape" fill="#463014" sketch:type="MSShapeGroup"></path>
                <g transform="translate(45.025070, 3.661017)" id="Shape" fill="#463014" sketch:type="MSShapeGroup">
                    <path d="M15.5643224,15.2402505 C17.3380288,13.7676768 16.0171058,12.400991 16.1572463,10.7279062 C16.2321005,9.83771588 16.3024522,8.99765329 16.5959593,8.53439383 C18.2283995,5.95506655 22.0786058,5.17245377 22.1182841,5.16428689 L23.9257593,4.81001309 L22.7292181,3.40953328 C22.574163,3.22817213 17.661365,-1.46271709 10.0577564,0.993543687 C4.74057704,2.70999742 0.803697496,8.5304512 0.657366019,8.76560113 L3.32285015,10.0204851 C3.35521192,9.97092057 6.46785128,4.49995311 11.0302979,3.02766105 C14.7181325,1.83670406 18.1172439,2.96964801 19.5723978,3.71227122 C18.0255053,4.33070148 16.0010656,5.45688663 14.7817304,7.38342641 C14.2065352,8.29332994 14.1102941,9.43894664 14.016867,10.5482348 C13.8933295,12.0168658 13.7765457,13.4032648 12.6962255,14.3010588 L15.5643224,15.2402505 L15.5643224,15.2402505 Z"></path>
                    <path d="M12.1505779,14.4038489 L12.5237232,14.0929441 C13.5170888,13.2683704 13.6285258,11.9366051 13.7484051,10.520918 C13.8446462,9.38177845 13.9439827,8.2032126 14.553791,7.23952028 C15.6743524,5.469841 17.4483402,4.36083447 18.9096851,3.70156979 C18.0347917,3.33068061 16.3908139,2.77786704 14.3635601,2.77786704 C13.2438429,2.77786704 12.1511407,2.94740029 11.1116244,3.28308739 C6.87954926,4.64892834 3.88904041,9.58482409 3.55050816,10.163828 L3.42359375,10.3646207 L0.269306199,8.88021913 L0.42970801,8.62394794 C0.466853693,8.5642452 4.42540155,2.52948112 9.97614844,0.738398965 C11.4605687,0.258524123 12.9523056,0.0163337681 14.4099922,0.0163337681 C19.7519353,0.0163337681 22.9065043,3.20338986 22.9335193,3.23549417 L24.4297587,4.98602352 L22.1723142,5.42900658 C22.1348871,5.43661023 18.3792335,6.22288403 16.8238987,8.67914481 C16.5661302,9.08748901 16.4985926,9.89488407 16.4254269,10.7521253 C16.3829345,11.2618515 16.489869,11.7586233 16.5939895,12.2387798 C16.8196776,13.2799167 17.0526824,14.3568189 15.7368247,15.4483652 L15.6225736,15.54327 L12.1505779,14.4038489 L12.1505779,14.4038489 Z"></path>
                </g>
                <g transform="translate(50.653204, 8.166884)" id="Shape" fill="#463014" sketch:type="MSShapeGroup">
                    <path d="M2.89032808,7.93370543 C2.8914537,7.92779148 3.60735231,4.79705872 5.59239508,3.21662585 C8.39182879,0.987911353 11.8106386,2.17351762 11.8424376,2.18393744 L12.340246,0.64940809 C12.1742161,0.595619302 8.26744704,-0.636453722 4.66544145,1.89668842 C1.04289318,4.44419301 0.609245476,6.75344987 0.570411353,7.0085946 L2.89032808,7.93370543 L2.89032808,7.93370543 Z"></path>
                    <path d="M0.274371519,7.17981755 L0.305607661,6.96916826 C0.345004597,6.70275887 0.798632176,4.28845898 4.51123059,1.67646416 C6.03870608,0.602378103 7.86897517,0.0340756196 9.80420895,0.0340756196 C11.2720262,0.0340756196 12.3090099,0.357089965 12.4238238,0.393981751 L12.6787783,0.476495442 L12.0132514,2.52356717 L11.7563271,2.43823731 C11.6603675,2.40585139 10.7970117,2.12789572 9.63536494,2.12789572 C8.14672357,2.12789572 6.84296639,2.56496482 5.76123909,3.42755675 C3.86286958,4.9384303 3.16019709,7.9618671 3.15372473,7.99171847 L3.08393588,8.29924389 L0.274371519,7.17981755 L0.274371519,7.17981755 Z M11.6685282,1.85191136 L11.9991811,0.832740556 C11.6091514,0.733611481 10.8195243,0.572526733 9.80420895,0.572526733 C7.9542414,0.572526733 6.27733895,1.09239115 4.82077794,2.11691267 C1.77370634,4.26029731 1.04542584,6.19697529 0.880240115,6.84244075 L2.70853936,7.57098313 C2.94773504,6.7202191 3.73961345,4.34872495 5.42580232,3.00597656 C6.58941897,2.08058412 8.04457294,1.59113431 9.63508353,1.59113431 C10.5496553,1.59113431 11.286378,1.74912127 11.6685282,1.85191136 L11.6685282,1.85191136 Z"></path>
                </g>
                <path d="M41.71629,82.3894976 C40.3326133,80.9090386 39.5140013,79.315933 39.3161724,78.8264832 C39.2030469,78.5476827 39.0741626,78.016272 39.4799511,77.5989161 C39.7962522,77.2756201 40.3444324,77.1097479 41.1109842,77.1097479 L42.290641,77.1097479 C43.5201069,77.1097479 44.9578136,77.1097479 45.8127271,77.1105927 L46.5297514,77.1117192 C47.5369059,77.1117192 48.0330259,77.4000947 48.2719402,77.6417218 C48.619196,77.993461 48.6735075,78.4829109 48.4343118,79.0954272 C47.7935488,80.7321834 46.3400833,82.0678913 45.9103752,82.4382173 C45.3475619,82.9245693 44.5396433,83.2126632 43.7460764,83.2126632 L43.7460764,83.2126632 C42.9325297,83.2126632 42.2118472,82.9200634 41.71629,82.3894976 L41.71629,82.3894976 Z" id="Shape" fill="#463014" sketch:type="MSShapeGroup"></path>
                <path d="M42.9139569,41.5559222 L45.7775513,41.3714633 C45.7775513,41.3714633 45.0461753,42.6635207 44.5717236,44.3346341 C44.0359253,46.2248453 45.0616527,48.9872235 45.0616527,48.9872235 C45.0616527,48.9872235 41.2409941,44.6587749 42.9139569,41.5559222 L42.9139569,41.5559222 Z" id="Shape" fill="#463014" sketch:type="MSShapeGroup"></path>
                <path d="M35.1997554,31.3188739 C33.3737074,31.3188739 30.9927254,31.2687461 29.2063558,29.9840107 C29.2063558,29.9840107 31.5454081,34.0874476 35.1966599,34.0874476 L35.1997554,33.5681464 L35.2028508,34.0874476 C38.854384,34.0874476 41.193155,29.9840107 41.193155,29.9840107 C39.4067853,31.2687461 37.0241149,31.3188739 35.1997554,31.3188739 L35.1997554,31.3188739 Z" id="Shape" fill="#E78724" sketch:type="MSShapeGroup"></path>
                <path d="M40.2276486,31.2991607 C38.3959725,32.4084488 36.7601554,32.7928556 35.1997554,32.8269312 C33.6390739,32.7928556 32.0038196,32.4084488 30.1718621,31.2991607 C30.1718621,31.2991607 32.8393161,34.556621 35.1862478,34.5816848 L35.1862478,34.5836562 C35.1904689,34.5836562 35.19469,34.5825297 35.199474,34.5825297 C35.2036951,34.5825297 35.2079162,34.5836562 35.2127001,34.5836562 L35.2127001,34.5816848 C37.559069,34.556621 40.2276486,31.2991607 40.2276486,31.2991607 L40.2276486,31.2991607 Z" id="Shape" fill="#463014" sketch:type="MSShapeGroup"></path>
                <path d="M46.4903544,90.7839279 L46.2860532,88.1268744 C54.8872485,87.4647936 57.5974763,79.2156775 57.6115467,78.3474532 L60.2747796,78.3474532 C60.2759052,80.3556619 56.6868443,89.9996254 46.4903544,90.7839279 L46.4903544,90.7839279 Z" id="Shape" fill="#463014" sketch:type="MSShapeGroup"></path>
                <path d="M49.3556373,73.5064623 C49.5157577,72.5847309 49.5312351,71.7105927 49.3370645,70.8516618 C50.1131841,70.2687152 51.5027703,70.052152 52.5462263,69.7136487 C53.3994514,69.1732263 57.7668832,70.2675887 60.9346782,66.4311245 C64.9036381,61.6270254 64.0672975,58.7587594 64.0672975,58.7587594 C65.0857083,59.8902953 66.0711945,59.4591401 67.6234338,64.7349472 C69.1767987,70.0118808 66.8931834,73.6906396 62.6391585,77.3837609 C60.6296334,79.1283763 57.7882701,79.8470621 55.3445344,80.1222016 C56.1631465,79.2995993 53.9462246,79.2173672 52.4190305,78.6451221 C52.541161,77.4105145 52.3360155,76.2119539 51.4163785,75.2468535 C50.8628515,74.6650334 50.1480785,74.3172368 49.4082604,74.0401259 C49.3666122,73.9443763 49.3308735,73.8559486 49.2926022,73.7641416 C49.3170846,73.6802198 49.3401599,73.5954532 49.3556373,73.5064623 L49.3556373,73.5064623 Z" id="Shape" fill="#FFFFFF" sketch:type="MSShapeGroup"></path>
                <path d="M52.4378847,78.6130178 C52.5273721,78.3539304 52.5929398,78.089774 52.6585076,77.8239278 C52.7302663,77.533581 53.0820246,76.7109786 52.6478141,77.6501703 C52.7592512,77.4096696 52.8321355,77.161847 52.8858842,76.9120529 C59.7752827,76.9033228 65.7689637,72.1696279 64.6098496,62.2175756 C65.511758,61.0192966 66.7755554,64.6338468 66.7755554,64.6338468 C66.7755554,64.6338468 70.2247572,74.6560216 61.3171099,78.5403607 C58.3491136,79.8357974 55.7264033,80.7642877 55.1073086,80.3894559 C53.8170589,80.651641 52.6534423,79.7521573 52.2181061,79.1607622 C52.2994327,78.9791195 52.3756939,78.7971951 52.4378847,78.6130178 L52.4378847,78.6130178 Z" id="Shape" fill="#C9C9C9" sketch:type="MSShapeGroup"></path>
                <path d="M49.4788934,72.0634584 C49.4693256,71.2233958 49.2968233,70.4098052 48.8921605,69.5990307 C48.863457,69.5432706 48.8305324,69.4897634 48.8004219,69.4354114 C51.4512729,69.4126005 54.5048169,69.1585822 57.1047332,68.1171637 C59.9621367,66.9732367 63.5368459,63.0596095 64.1514381,58.4613722 C64.1514381,58.4613722 69.5333409,62.6174713 67.9518354,71.5131794 C66.4662895,79.8664937 59.4823383,82.5897271 51.5165593,83.050452 C51.5123382,82.9963816 52.4128395,81.1354585 52.128056,79.996319 C56.6502614,80.3252472 61.7085466,78.5764076 64.1517195,74.5554845 C66.3858072,70.8753176 65.7591145,64.5921676 64.8403216,63.6715626 C62.600043,70.7483084 54.5352088,72.1868065 49.4788934,72.0634584 L49.4788934,72.0634584 Z" id="Shape" fill="#463014" sketch:type="MSShapeGroup"></path>
                <g transform="translate(16.321588, 71.812256)" id="Shape" fill="#463014" sketch:type="MSShapeGroup">
                    <path d="M36.3740655,2.34643027 C35.422348,1.31683965 33.6725613,0.0895541078 29.6380336,0.0895541078 C29.6380336,0.0895541078 21.9888371,0.0850482408 18.8916751,0.0830769239 L18.8916751,0.0830769239 L18.878449,0.0830769239 L18.8652228,0.0830769239 L18.8652228,0.0830769239 C15.7683423,0.0853298575 8.11717587,0.0895541078 8.11717587,0.0895541078 C4.08377383,0.0895541078 2.33398706,1.31712127 1.38170683,2.34643027 C-0.00534672704,3.84491269 -0.222874096,5.92943944 0.736722705,8.53495706 C3.28654869,15.4700497 6.86970003,22.5158177 18.86466,22.5256743 L18.86466,22.5268008 C18.8691625,22.5268008 18.8731022,22.5256743 18.8778861,22.5256743 C18.8821072,22.5256743 18.8863283,22.5268008 18.8911123,22.5268008 L18.8911123,22.5256743 C30.8849466,22.5152545 34.468098,15.4700497 37.0187682,8.53495706 C37.978365,5.92943944 37.7602748,3.84491269 36.3740655,2.34643027 L36.3740655,2.34643027 Z M34.5066507,8.04860504 C33.291818,11.531077 30.0269377,19.9604278 18.8776047,19.9750719 C7.72686479,19.9604278 4.46311005,11.5313587 3.24827738,8.04860504 C2.57599681,6.11643292 2.62721282,4.68666498 3.40558372,3.79844593 C3.93716095,3.19128035 5.15846597,2.4666806 7.9418595,2.4666806 L10.8496348,2.46555413 C12.994798,2.46358282 15.6881414,2.46132988 18.8778861,2.46020342 C22.0665053,2.46132988 24.7612557,2.46358282 26.9058561,2.46555413 L29.8125058,2.4666806 C32.5967435,2.4666806 33.8177671,3.19099873 34.3496258,3.79844593 C35.1271524,4.68750983 35.1789313,6.11643292 34.5066507,8.04860504 L34.5066507,8.04860504 Z"></path>
                </g>
                <path d="M48.644804,66.9971741 C50.0782897,71.207062 53.0060448,74.6140607 53.0060448,74.6140607 C53.0060448,74.6140607 48.9785523,74.4307283 48.7559597,73.7173932 C48.5924624,73.1916148 45.1199039,65.0571167 43.7871618,55.5280527 C45.0399844,57.5892053 48.5218293,66.6367047 48.644804,66.9971741 L48.644804,66.9971741 Z" id="Shape" fill="#463014" sketch:type="MSShapeGroup"></path>
            </g>
        </g>
    </g>
</svg>