<?xml version="1.0" encoding="UTF-8" standalone="no"?>
<svg width="165px" height="165px" viewBox="0 0 165 165" version="1.1" xmlns="http://www.w3.org/2000/svg" xmlns:xlink="http://www.w3.org/1999/xlink" xmlns:sketch="http://www.bohemiancoding.com/sketch/ns">
    <!-- Generator: Sketch 3.3.3 (12081) - http://www.bohemiancoding.com/sketch -->
    <title>tech-sass</title>
    <desc>Created with Sketch.</desc>
    <defs>
        <path id="path-1" d="M0,0 L104,0 L104,78 L0,78 L0,0 Z"></path>
    </defs>
    <g id="Tech-Icons" stroke="none" stroke-width="1" fill="none" fill-rule="evenodd" sketch:type="MSPage">
        <g id="tech-sass" sketch:type="MSArtboardGroup">
            <g id="Sass-Logo-(Color)" sketch:type="MSLayerGroup" transform="translate(35.000000, 40.000000)">
                <mask id="mask-2" sketch:name="Clip 2" fill="white">
                    <use xlink:href="#path-1"></use>
                </mask>
                <g id="Clip-2"></g>
                <path d="M73.5353909,58.9426405 C73.2054136,58.7076499 73.2602832,57.9481571 74.3455251,55.5826734 C74.7715718,54.653919 75.7436569,53.0902909 77.4336041,51.5960012 C77.6293501,52.2105483 77.7487723,52.7998296 77.7453548,53.3484577 C77.7235209,57.0083845 75.1137002,58.3752055 73.5353909,58.9426405 L73.5353909,58.9426405 Z M59.6436872,62.1111197 C59.2013125,62.3426909 58.7957708,62.4882065 58.6072394,62.3759353 C58.4690211,62.2932992 58.7896952,61.9884002 58.7896952,61.9884002 C58.7896952,61.9884002 61.0454263,59.560607 61.933783,58.4549922 C62.4505829,57.8121399 63.0497823,57.0490377 63.7027121,56.1955107 C63.7080282,56.2808064 63.7108761,56.3653423 63.7108761,56.4489282 C63.704231,59.357721 60.8960062,61.321612 59.6436872,62.1111197 L59.6436872,62.1111197 Z M41.6111287,53.5021419 C40.5676561,56.0475255 38.3836923,62.5594446 37.0544798,62.210473 C35.913419,61.9108932 35.21853,56.9607025 36.8266473,52.0889687 C37.6360221,49.6366695 39.3650805,46.7064104 40.3808335,45.5690709 C42.0161009,43.7389175 43.8165468,43.1403278 44.2539851,43.8823435 C44.811605,44.8278151 42.2653876,51.9065992 41.6111287,53.5021419 L41.6111287,53.5021419 Z M19.7847803,68.3485348 C16.7887836,71.6188369 12.6031219,72.8547699 10.8081819,71.8137443 C8.87008722,70.6893226 9.6376927,65.8747692 13.3143388,62.4044306 C15.5552608,60.2895149 18.4481633,58.3415812 20.3672719,57.1417422 C20.8039508,56.8788262 21.4456788,56.4926209 22.2254354,56.0251092 C22.3547303,55.9514016 22.4276367,55.9105584 22.4276367,55.9105584 L22.4247888,55.9056193 C22.5753481,55.8155744 22.7295147,55.7230599 22.8888075,55.6278858 C24.2265637,60.5674383 22.9294377,64.9161898 19.7847803,68.3485348 L19.7847803,68.3485348 Z M89.5034077,44.8308546 C85.8685309,44.8500414 82.7202662,45.7231351 80.081207,47.0246071 C79.1159569,45.09719 78.1391252,43.401534 77.9750859,42.1407152 C77.7835168,40.6688418 77.56157,39.7908089 77.7928199,38.0374026 C78.0242597,36.2839964 79.0381141,33.8011123 79.023305,33.6151335 C79.0084959,33.4291546 78.7958523,32.5359243 76.699414,32.5207268 C74.6027859,32.5057193 72.8093649,32.9242192 72.59843,33.4781664 C72.3873053,34.0321136 71.9836621,35.2786848 71.7324768,36.5784471 C71.3652869,38.4805984 67.5466252,45.2643619 65.3784197,48.8133474 C64.6692912,47.4282894 64.0662947,46.206984 63.9406071,45.2411858 C63.7492279,43.7693124 63.5270912,42.8912795 63.7583412,41.1376833 C63.989781,39.384467 65.0036354,36.901203 64.9888263,36.7152241 C64.9740171,36.5292453 64.7615634,35.6362049 62.6649353,35.6210075 C60.5683072,35.606 58.7748861,36.0244999 58.5639513,36.5784471 C58.3528265,37.1323943 58.1274623,38.4266474 57.6979981,39.6787277 C57.2685339,40.9309979 52.192427,52.2472121 50.8630247,55.1803208 C50.1856029,56.6748004 49.5960864,57.8753993 49.1799125,58.6954919 C49.1787733,58.6934022 49.1772544,58.6909327 49.1772544,58.6909327 C49.1772544,58.6909327 49.1516233,58.7454535 49.1073858,58.8375881 C48.7512078,59.5355312 48.5391337,59.9217365 48.5391337,59.9217365 C48.5391337,59.9217365 48.541412,59.9270556 48.5453991,59.936174 C48.2628869,60.4487082 47.9600596,60.9247684 47.8100699,60.9247684 C47.705267,60.9247684 47.4954713,59.560417 47.8558262,57.6877107 C48.6110908,53.7622083 50.4255864,47.6402939 50.4075496,47.4294292 C50.3980566,47.3213374 50.7447417,46.254666 49.2226311,45.6969195 C47.7430492,45.1551302 47.2161866,46.0588089 47.0811959,46.0616584 C46.9503821,46.0645079 46.8531736,46.3809949 46.8531736,46.3809949 C46.8531736,46.3809949 48.5015414,39.4965482 43.7090858,39.4965482 C40.7128993,39.4965482 36.5612225,42.7759688 34.5160466,45.7485908 C33.2253758,46.4529928 30.463477,47.9615301 27.533172,49.5724602 C26.4076797,50.1909966 25.2592143,50.8234007 24.1701752,51.4237001 C24.0961296,51.3416339 24.022274,51.2593776 23.94614,51.1780713 C18.1350835,44.9746605 7.3925938,40.5869655 7.84825869,32.2471727 C8.0140068,29.2152806 9.06735214,21.232058 28.4900682,11.5482403 C44.4003675,3.61554918 57.1373404,5.79847349 59.3385816,10.636393 C62.4830491,17.5480051 52.5313278,30.3940331 36.0083491,32.2471727 C29.7129589,32.9532844 26.3981867,30.5121933 25.5736231,29.6028157 C24.7057713,28.645756 24.5762865,28.6026332 24.2521949,28.7821531 C23.724383,29.0748941 24.058917,29.9198725 24.2521949,30.4234782 C24.745642,31.7082329 26.7699333,33.9863313 30.221405,35.1194915 C33.2576521,36.1164445 40.6489164,36.6641227 49.587163,33.2046123 C59.5985004,29.3300214 67.4158114,18.551607 65.1196401,9.54217632 C62.7845473,0.379061376 47.6000843,-2.63326398 33.2289831,2.47536019 C24.6759632,5.51561087 15.4170424,10.2874215 8.75977834,16.5178077 C0.84411969,23.9259967 -0.418072067,30.3737065 0.101955494,33.0678352 C1.95005636,42.6405215 15.1368085,48.8743272 20.4173951,53.4943532 C20.1567168,53.6381591 19.9123665,53.7732265 19.69004,53.8959459 C17.0426269,55.2063464 6.99065939,60.4697947 4.47633848,66.031113 C1.62444582,72.3393862 4.93048449,76.865378 7.11919486,77.4747959 C13.9008175,79.3628896 20.8597697,75.9668285 24.5996394,70.3853735 C28.3387495,64.8052484 27.8821353,57.5393456 26.1659874,54.2226912 C26.1447231,54.1814681 26.1211804,54.1411949 26.0993464,54.1003517 C26.7828438,53.6955295 27.4800111,53.2838685 28.170913,52.8779065 C29.518352,52.0863091 30.8409194,51.3477128 31.9888152,50.7227175 C31.3467074,52.4835326 30.8762334,54.594079 30.6315034,57.6421184 C30.3440548,61.2230185 31.8107262,65.8515931 33.7300247,67.672628 C34.5750932,68.4742937 35.5917955,68.4931005 36.2361816,68.4931005 C38.4695091,68.4931005 39.4886796,66.634072 40.6105646,64.4353803 C41.9868624,61.7387821 43.2078545,58.599558 43.2078545,58.599558 C43.2078545,58.599558 41.6753015,67.0797373 45.8509007,67.0797373 C47.3722519,67.0797373 48.9027163,65.105778 49.5843151,64.0993266 C49.5862137,64.1103448 49.587163,64.1162338 49.587163,64.1162338 C49.587163,64.1162338 49.6268438,64.0506948 49.7043068,63.9192368 C49.8622707,63.6775973 49.9516949,63.523723 49.9516949,63.523723 C49.9516949,63.523723 49.9547327,63.5077657 49.959669,63.4800304 C50.5712093,62.4175384 51.9275718,59.9952541 53.9617358,56.0007933 C56.5897831,50.8399279 59.1105593,44.374741 59.1105593,44.374741 C59.1105593,44.374741 59.3450368,45.9554662 60.113022,48.5692383 C60.5648897,50.1072206 61.5248238,51.8072458 62.2821768,53.4375527 C61.6725351,54.283861 61.2977508,54.7699895 61.2977508,54.7699895 C61.2977508,54.7699895 61.3013581,54.778918 61.3080032,54.7952553 C60.8208215,55.4422869 60.2745932,56.1406099 59.7031135,56.8214558 C57.6288889,59.2933217 55.1582359,62.1160589 54.8273093,62.9308324 C54.4377158,63.8907416 54.5297981,64.5968533 55.2829742,65.1648581 C55.8331895,65.5797486 56.8126792,65.6441478 57.8346976,65.5751894 C59.6987467,65.4498104 61.0103022,64.9872379 61.6573463,64.7055151 C62.6660745,64.3485649 63.8407406,63.7872089 64.9432598,62.9764247 C66.9779934,61.4796655 68.2052508,59.3385342 68.0873475,56.5023093 C68.0220356,54.9392512 67.5238419,53.3900607 66.8936954,51.9274957 C67.0784295,51.6619202 67.2635434,51.3938751 67.4492268,51.1224106 C70.6569178,46.4303866 73.145038,41.2744604 73.145038,41.2744604 C73.145038,41.2744604 73.3795156,42.8549956 74.1476906,45.4689577 C74.5363348,46.792086 75.3031809,48.2352742 75.9927537,49.6509171 C72.9766318,52.1030263 71.1061275,54.952169 70.4566151,56.8214558 C69.2557483,60.2783067 70.1963166,61.8447843 71.9604991,62.2013546 C72.7596214,62.3630175 73.8881515,61.9965689 74.7372071,61.6369591 C75.7935902,61.2864678 77.0629966,60.7026956 78.2486747,59.8307417 C80.2834083,58.3339825 82.2397296,56.2380636 82.1218263,53.4020287 C82.0679059,52.110815 81.7179933,50.8292897 81.2431525,49.5981059 C83.7998122,48.5325744 87.1100278,47.9400637 91.3262571,48.4326512 C100.371205,49.4894441 102.14564,55.1402375 101.80655,57.5053413 C101.467269,59.870635 99.5699945,61.1705873 98.935671,61.5632515 C98.3015374,61.9557257 98.1078798,62.0919329 98.1612305,62.383914 C98.2383138,62.8083029 98.5316481,62.7919656 99.0723705,62.7007809 C99.8170028,62.575022 103.822107,60.7769732 103.993551,56.4113146 C104.211321,50.8688031 98.9041542,44.780703 89.5034077,44.8308546 L89.5034077,44.8308546 Z" id="Fill-1" fill="#BF5F8B" sketch:type="MSShapeGroup" mask="url(#mask-2)"></path>
            </g>
        </g>
    </g>
</svg>