<svg width="165" height="165" viewBox="0 0 165 165" xmlns="http://www.w3.org/2000/svg"><g fill="#1A5281" fill-rule="evenodd"><path d="M74.864 95.528c5.993-4.135 7.523-12.382 3.423-18.42l-10.854 7.48c-2.994 2.066-7.085 1.296-9.138-1.726-2.052-3.02-1.282-7.143 1.712-9.21 0-.002.005-.005.01-.007l16.262-11.223C82.266 58.286 83.8 50.04 79.7 44L52.6 62.702c-.006.007-.014.01-.023.014-8.983 6.2-11.28 18.575-5.126 27.632 6.153 9.06 18.426 11.375 27.41 5.176l.004.004M89.14 70.477v.002l-.01.005c-.022.017-.044.038-.066.055l.08-.057c-5.993 4.135-7.523 12.383-3.423 18.42l10.85-7.484-.005-.006c3-2.068 7.09-1.3 9.137 1.722 2.052 3.02 1.287 7.144-1.71 9.213l-9.9 6.832-6.368 4.395C81.73 107.714 80.197 115.962 84.3 122l10.85-7.484 16.266-11.232v-.002c8.987-6.2 11.287-18.57 5.135-27.63-6.15-9.062-18.424-11.375-27.41-5.175"/></g></svg>