<?xml version="1.0" encoding="UTF-8" standalone="no"?>
<svg width="165px" height="165px" viewBox="0 0 165 165" version="1.1" xmlns="http://www.w3.org/2000/svg" xmlns:xlink="http://www.w3.org/1999/xlink" xmlns:sketch="http://www.bohemiancoding.com/sketch/ns">
    <!-- Generator: Sketch 3.3.3 (12081) - http://www.bohemiancoding.com/sketch -->
    <title>tech-es5</title>
    <desc>Created with Sketch.</desc>
    <defs></defs>
    <g id="Tech-Icons" stroke="none" stroke-width="1" fill="none" fill-rule="evenodd" sketch:type="MSPage">
        <g id="tech-es5" sketch:type="MSArtboardGroup">
            <g id="logo" sketch:type="MSLayerGroup" transform="translate(45.000000, 45.000000)">
                <rect id="background" fill="#F7DF1E" sketch:type="MSShapeGroup" x="0" y="0" width="75" height="75"></rect>
                <path d="M19.7202381,62.6754464 L25.4598214,59.2019345 C26.5671131,61.1651786 27.5744048,62.8261905 29.9904762,62.8261905 C32.3063988,62.8261905 33.7665179,61.9202679 33.7665179,58.3964286 L33.7665179,34.4321429 L40.8145833,34.4321429 L40.8145833,58.496131 C40.8145833,65.796131 36.5355655,69.1188988 30.2925595,69.1188988 C24.6543155,69.1188988 21.3815476,66.1988095 19.7202381,62.6748512" id="j" fill="#000000" sketch:type="MSShapeGroup"></path>
                <path d="M44.6428571,61.9202381 L50.3816964,58.5974702 C51.8924107,61.0645833 53.8558036,62.8769345 57.3294643,62.8769345 C60.2498512,62.8769345 62.1120536,61.4168452 62.1120536,59.4029762 C62.1120536,56.9864583 60.1991071,56.130506 56.9769345,54.7212798 L55.2153274,53.965625 C50.1302083,51.8011905 46.756994,49.0825893 46.756994,43.3433036 C46.756994,38.0571429 50.7845238,34.0293155 57.0778274,34.0293155 C61.5584821,34.0293155 64.780506,35.5901786 67.096131,39.6681548 L61.6084821,43.1921131 C60.4001488,41.0275298 59.0915179,40.1717262 57.0778274,40.1717262 C55.0136905,40.1717262 53.7046131,41.4806548 53.7046131,43.1921131 C53.7046131,45.3066964 55.0136905,46.1626488 58.0340774,47.4717262 L59.7959821,48.2267857 C65.7870536,50.794494 69.1602679,53.4122024 69.1602679,59.3022321 C69.1602679,65.6459821 64.1761905,69.119494 57.480506,69.119494 C50.9357143,69.119494 46.7066964,65.9983631 44.6428571,61.9202381" id="s" fill="#000000" sketch:type="MSShapeGroup"></path>
            </g>
        </g>
    </g>
</svg>