<svg width="165" height="165" viewBox="0 0 165 165" xmlns="http://www.w3.org/2000/svg" xmlns:xlink="http://www.w3.org/1999/xlink"><defs><path id="a" d="M0 0h104v78H0V0z"/></defs><g transform="translate(35 40)" fill="none" fill-rule="evenodd"><mask id="b" fill="#fff"><use xlink:href="#a"/></mask><path d="M73.535 58.943c-.33-.235-.275-.995.81-3.36.427-.93 1.4-2.493 3.09-3.987.194.615.314 1.204.31 1.752-.02 3.66-2.63 5.027-4.21 5.595zm-13.89 3.168c-.444.233-.85.378-1.038.266-.138-.083.183-.388.183-.388s2.255-2.427 3.144-3.533c.517-.643 1.116-1.406 1.77-2.26.004.086.007.17.007.254-.006 2.908-2.814 4.872-4.066 5.66zM41.61 53.503c-1.042 2.546-3.226 9.057-4.556 8.708-1.14-.3-1.835-5.25-.227-10.12.81-2.453 2.538-5.384 3.554-6.52 1.636-1.83 3.437-2.43 3.874-1.688.558.946-1.99 8.025-2.643 9.62zM19.786 68.35c-2.996 3.27-7.182 4.505-8.977 3.464-1.938-1.125-1.17-5.94 2.506-9.41 2.24-2.114 5.134-4.062 7.053-5.262l1.858-1.117.203-.114-.003-.004.464-.278c1.337 4.94.04 9.288-3.105 12.72zm69.718-23.52c-3.634.02-6.783.893-9.422 2.195-.964-1.928-1.94-3.623-2.105-4.884-.19-1.47-.413-2.35-.182-4.103.23-1.753 1.245-4.236 1.23-4.422-.015-.186-.227-1.08-2.324-1.094-2.097-.014-3.89.404-4.102.958-.21.554-.614 1.8-.866 3.1-.367 1.903-4.185 8.686-6.354 12.235-.71-1.385-1.312-2.606-1.437-3.572-.19-1.47-.413-2.35-.182-4.102.232-1.754 1.246-4.237 1.23-4.423-.014-.186-.226-1.08-2.323-1.094-2.097-.014-3.89.404-4.1.958-.212.554-.438 1.85-.867 3.1-.43 1.253-5.506 12.57-6.835 15.502-.677 1.495-1.267 2.695-1.683 3.515 0-.002-.003-.004-.003-.004l-.07.148c-.356.698-.568 1.084-.568 1.084s0 .005.005.014c-.282.513-.585.99-.735.99-.105 0-.315-1.366.046-3.238.755-3.926 2.57-10.048 2.552-10.26-.01-.107.337-1.173-1.185-1.73-1.48-.543-2.007.36-2.142.364-.13.003-.227.32-.227.32s1.65-6.885-3.144-6.885c-2.997 0-7.15 3.28-9.194 6.252-1.29.703-4.053 2.212-6.983 3.822-1.125.62-2.274 1.25-3.363 1.852-.074-.082-.148-.165-.224-.246-5.81-6.203-16.553-10.59-16.098-18.93.166-3.033 1.22-11.016 20.642-20.7 15.91-7.932 28.647-5.75 30.85-.912 3.143 6.912-6.81 19.758-23.332 21.61-6.295.707-9.61-1.734-10.434-2.643-.868-.957-.998-1-1.322-.82-.528.292-.193 1.137 0 1.64.494 1.285 2.518 3.563 5.97 4.696 3.036.996 10.427 1.544 19.365-1.915C59.6 29.33 67.417 18.552 65.12 9.542 62.785.38 47.6-2.633 33.23 2.475c-8.554 3.04-17.813 7.812-24.47 14.043C.844 23.926-.418 30.374.102 33.068 1.95 42.64 15.137 48.874 20.417 53.494l-.727.402c-2.647 1.31-12.7 6.574-15.214 12.135-2.852 6.31.454 10.835 2.643 11.445 6.78 1.888 13.74-1.508 17.48-7.09 3.74-5.58 3.282-12.846 1.566-16.162-.02-.042-.045-.082-.067-.123.683-.404 1.38-.816 2.07-1.222 1.348-.792 2.67-1.53 3.82-2.155-.643 1.76-1.114 3.87-1.358 6.92-.288 3.58 1.18 8.21 3.098 10.03.845.8 1.862.82 2.506.82 2.234 0 3.253-1.86 4.375-4.058C41.988 61.74 43.21 58.6 43.21 58.6s-1.533 8.48 2.643 8.48c1.522 0 3.053-1.974 3.734-2.98l.003.016s.04-.065.117-.197c.158-.242.248-.396.248-.396l.008-.044c.61-1.062 1.968-3.485 4.002-7.48 2.628-5.16 5.15-11.625 5.15-11.625s.233 1.58 1 4.194c.453 1.537 1.413 3.237 2.17 4.868-.61.846-.984 1.332-.984 1.332l.01.025c-.487.647-1.033 1.346-1.605 2.026-2.074 2.473-4.545 5.296-4.876 6.11-.39.96-.297 1.667.456 2.235.55.415 1.53.48 2.552.41 1.864-.125 3.175-.588 3.822-.87 1.01-.356 2.184-.918 3.286-1.73 2.035-1.495 3.262-3.636 3.144-6.473-.065-1.563-.563-3.112-1.193-4.575.184-.265.37-.533.555-.805 3.207-4.692 5.695-9.848 5.695-9.848s.235 1.58 1.003 4.195c.388 1.322 1.155 2.765 1.845 4.18-3.016 2.453-4.887 5.302-5.536 7.17-1.2 3.458-.26 5.025 1.503 5.38.8.163 1.928-.203 2.777-.563 1.057-.35 2.326-.934 3.512-1.806 2.033-1.496 3.99-3.592 3.872-6.428-.054-1.29-.404-2.573-.88-3.804 2.558-1.065 5.868-1.658 10.084-1.165 9.045 1.056 10.82 6.707 10.48 9.072-.34 2.366-2.236 3.666-2.87 4.058-.634.393-.828.53-.775.82.078.425.372.41.912.318.745-.125 4.75-1.923 4.922-6.29.217-5.54-5.09-11.63-14.49-11.58z" fill="#BF5F8B" mask="url(#b)"/></g></svg>