<svg baseProfile="tiny" xmlns="http://www.w3.org/2000/svg" preserveAspectRatio="xMinYMin meet" viewBox="0 0 255 155" width="255" height="155"><title>Github</title><desc>Created with Sketch.</desc><g fill="none" fill-rule="evenodd"><g transform="translate(-190 -675)" fill="#696B69"><g><g transform="translate(135 675)"><path d="M100.966 17.46l.034-.172c-3.788-.77-7.674-.777-10.026-.678.386-1.415.503-3.043.503-4.858 0-2.603-.963-4.686-2.525-6.27.273-.896.638-2.886-.364-5.432 0 0-1.767-.57-5.765 2.15-1.566-.4-3.233-.595-4.902-.595-1.834 0-3.69.237-5.42.72C68.373-.535 66.55.05 66.55.05c-1.188 3.02-.453 5.26-.23 5.814-1.396 1.533-2.25 3.49-2.25 5.888 0 1.81.203 3.436.7 4.848-2.373-.088-6.118-.054-9.77.688l.034.172c3.674-.747 7.443-.773 9.8-.683.11.293.23.576.367.85-2.33.077-6.31.38-10.123 1.472l.047.166c3.844-1.1 7.86-1.396 10.167-1.468 1.394 2.638 4.14 4.342 9.024 4.877-.693.474-1.4 1.28-1.687 2.64-.945.46-3.936 1.582-5.73-1.556 0 0-1.004-1.866-2.927-2.01 0 0-1.866-.03-.13 1.18 0 0 1.248.597 2.11 2.843 0 0 1.122 3.83 6.542 2.602v3.957s-.114 1.4-1.377 1.866c0 0-.746.524.058.816 0 0 3.5.29 3.5-2.624v-4.316s-.14-1.71.688-2.306v7.088s-.055 1.69-.916 2.333c0 0-.574 1.05.688.76 0 0 2.41-.35 2.526-3.21l.054-7.172h.58l.055 7.172c.114 2.857 2.524 3.207 2.524 3.207 1.26.29.688-.76.688-.76-.86-.64-.918-2.332-.918-2.332V25.83c.826.656.688 2.246.688 2.246v4.316c0 2.915 3.5 2.624 3.5 2.624.802-.292.057-.817.057-.817-1.262-.468-1.377-1.868-1.377-1.868v-5.656c0-2.206-.914-3.374-1.808-3.99 5.21-.526 7.71-2.236 8.86-4.892 2.283.064 6.39.346 10.317 1.472l.047-.168c-3.905-1.12-7.985-1.41-10.29-1.478.11-.27.205-.548.29-.835 2.335-.1 6.24-.1 10.042.673z"/></g></g></g></g><g transform="translate(55)"><title>Twitter</title><desc>Created with Sketch.</desc><g fill="none" fill-rule="evenodd"><g transform="translate(-135 -678)" fill="#696B69"><g><g transform="translate(135 675)"><path d="M34.404 7.902c1.652-.97 2.92-2.502 3.518-4.33-1.546.897-3.258 1.548-5.08 1.9C31.382 3.95 29.302 3 27.002 3 22.58 3 19 6.504 19 10.826c0 .613.07 1.21.207 1.783-6.65-.328-12.546-3.444-16.492-8.18-.69 1.157-1.083 2.5-1.083 3.936 0 2.715 1.412 5.11 3.56 6.514-1.312-.04-2.546-.392-3.625-.978V14c0 3.792 2.758 6.955 6.418 7.674-.67.18-1.378.275-2.108.275-.516 0-1.017-.05-1.506-.143 1.02 3.11 3.975 5.372 7.477 5.435-2.74 2.1-6.19 3.35-9.937 3.35-.647 0-1.284-.037-1.91-.11C3.54 32.704 7.747 34 12.265 34 26.983 34 35.03 22.075 35.03 11.733c0-.34-.007-.677-.023-1.012C36.57 9.62 37.927 8.24 39 6.67c-1.435.623-2.977 1.044-4.596 1.233z"/></g></g></g></g></g><g transform="translate(100)"><title>xiel-logo</title><desc>Created with Sketch.</desc><g fill="none" fill-rule="evenodd"><g transform="translate(-645 -75)" fill="#041231"><g><path d="M782.87 99.51H795V75h-24.51v12.23h12.38v12.28zm0 100.98v12.315h-12.38V225H795v-24.51h-12.13zm-18.262-76.43l-17.688-17.687-26.43 26.43-26.43-26.43-17.687 17.686 26.43 26.43-26.43 26.43 17.686 17.687 26.43-26.432 26.43 26.432 17.687-17.69-26.432-26.428 26.432-26.43zm-107.314 76.43H645V225h24.51v-12.23h-12.216v-12.28zM645 75v24.51h12.294V87.23h12.216V75H645z"/></g></g></g></g></svg>