<?xml version="1.0" encoding="UTF-8" standalone="no"?>
<svg xmlns="http://www.w3.org/2000/svg" width="51" height="50" viewBox="0 0 51 50">
    <path fill="#737E8C" fill-rule="evenodd"
          d="M25.47 49.554c13.66 0 24.733-11.073 24.733-24.734C50.203 11.16 39.13.086 25.47.086 11.81.086.734 11.16.734 24.82c0 13.66 11.074 24.734 24.734 24.734zm11.81-33.872l.02-.023-.13-.112-.005-.005-.13.126-.124-.097c-.49.634-1.253 1.43-2.31 2.293-1.58 1.29-3.498 2.45-5.774 3.388l-.177.073.083.172c.34.697.653 1.382.938 2.056.102.233.198.465.29.697l.053.13.137-.018c1.08-.133 2.2-.196 3.337-.196 1.484 0 2.965.1 4.393.277.963.118 1.765.252 2.386.376l.22.044-.004-.223c-.055-3.296-1.192-6.42-3.2-8.962zM25.47 7.407c-9.616 0-17.44 7.812-17.44 17.414 0 9.604 7.824 17.416 17.44 17.416 9.614 0 17.436-7.813 17.437-17.418 0-9.604-7.823-17.413-17.438-17.413v.002zm.263 2.696h-.005c-1.127 0-2.253.13-3.35.384l-.266.062.163.22c.532.716 1.264 1.755 2.067 2.967 1.18 1.78 2.317 3.64 3.34 5.51l.076.137.146-.055c2.226-.843 4.07-1.92 5.565-3.136.99-.807 1.686-1.55 2.127-2.15l.098-.133-.124-.107c-2.703-2.37-6.163-3.7-9.824-3.7h-.013zm-6.25 1.512l-.088-.12-.135.064c-4.15 1.978-7.19 5.784-8.167 10.29l-.047.217h.365c1.248 0 2.89-.073 4.81-.264 2.83-.282 5.718-.772 8.55-1.516l.226-.06-.115-.202c-1.05-1.858-2.205-3.718-3.395-5.51-.79-1.192-1.485-2.184-2.005-2.9zM10.73 24.967c0 3.68 1.35 7.16 3.754 9.866l.162.183.126-.21c.737-1.217 1.89-2.744 3.462-4.31 2.417-2.403 5.242-4.27 8.472-5.312.146-.047.3-.094.483-.146l.198-.057-.084-.188c-.345-.776-.723-1.565-1.13-2.36l-.068-.134-.143.042c-5.14 1.526-10.39 2.086-14.66 2.086-.148 0-.275 0-.385-.003l-.177-.002-.004.178c-.005.15-.007.26-.007.37zm14.92 14.605c2 0 3.95-.398 5.76-1.158l.132-.056-.024-.14c-.52-3.024-1.517-6.903-3.125-11.094l-.07-.18-.174.082c.01-.004.01-.004.005-.003-3.6 1.254-6.48 3.115-8.714 5.356-.82.823-1.51 1.655-2.077 2.466-.387.555-.67 1.03-.86 1.4l-.067.134.118.09c2.593 2 5.764 3.102 9.096 3.102zm8.05-2.52l.028.166.166-.017h.004l.046-.004.038-.026c3.32-2.288 5.6-5.828 6.263-9.827l.025-.156-.15-.046c-.524-.158-1.24-.335-2.1-.49-1.27-.228-2.617-.36-4-.36-1.01 0-2.01.07-2.995.224l-.216.033.074.206c1.443 3.976 2.36 7.643 2.815 10.3z"/>
</svg>
