<?xml version="1.0" encoding="UTF-8" standalone="no"?>
<svg xmlns="http://www.w3.org/2000/svg" width="51" height="50" viewBox="0 0 51 50">
    <path fill="#737E8C" fill-rule="evenodd"
          d="M25.668 49.554c13.66 0 24.734-11.073 24.734-24.734C50.402 11.16 39.328.086 25.668.086 12.008.086.933 11.16.933 24.82c0 13.66 11.074 24.734 24.735 24.734zM16 33c4.418 0 8-3.582 8-8s-3.582-8-8-8-8 3.582-8 8 3.582 8 8 8zm0-1.95c3.34 0 6.05-2.71 6.05-6.05s-2.71-6.05-6.05-6.05S9.95 21.66 9.95 25s2.71 6.05 6.05 6.05zm18.668 1.453c4.243 0 7.683-3.44 7.683-7.683s-3.44-7.683-7.682-7.683c-4.243 0-7.683 3.44-7.683 7.683s3.44 7.683 7.683 7.683z"/>
</svg>
