<?xml version="1.0" encoding="UTF-8" standalone="no"?>
<svg xmlns="http://www.w3.org/2000/svg" width="50" height="50" viewBox="0 0 50 50">
    <path fill-rule="evenodd"
          d="M24.734 49.47c13.66 0 24.735-11.075 24.735-24.736C49.47 11.074 38.394 0 24.733 0 11.074 0 0 11.074 0 24.734 0 38.394 11.074 49.47 24.734 49.47zM13.586 12.22c-.854 0-1.547.692-1.547 1.546V36.59c0 .855.692 1.548 1.546 1.548H36.41c.855 0 1.548-.693 1.548-1.547V13.767c0-.854-.693-1.547-1.547-1.547H13.587zm8.104 9.957c.81-.917 1.99-1.5 3.308-1.5 1.317 0 2.498.583 3.308 1.5.687.78 1.107 1.797 1.107 2.915 0 2.434-1.98 4.415-4.415 4.415-2.434 0-4.415-1.98-4.415-4.415 0-1.117.42-2.136 1.107-2.915zM35.23 35.41H14.767V22.176h3.716c-.4.892-.628 1.876-.628 2.915 0 3.94 3.205 7.143 7.143 7.143 3.94 0 7.144-3.204 7.144-7.143 0-1.04-.23-2.024-.63-2.915h3.718V35.41zm0-17.59c0 .687-.558 1.245-1.246 1.245h-1.626c-.688 0-1.246-.558-1.246-1.245v-1.628c0-.687.558-1.244 1.246-1.244h1.626c.688 0 1.246.557 1.246 1.244v1.628z"/>
</svg>
