<svg xmlns="http://www.w3.org/2000/svg" viewBox="0 0 165 165">
    <g fill="none" fill-rule="evenodd">
        <path fill="#007ACC" d="M43 43h80v80H43z"/>
        <path fill="#FFF" fill-rule="nonzero" d="M109.008 82.866c1.848.462 3.257 1.281 4.55 2.62.668.716 1.661 2.021 1.743 2.332.022.093-3.141 2.217-5.057 3.406-.069.047-.346-.254-.658-.716-.935-1.362-1.916-1.95-3.417-2.054-2.205-.15-3.625 1.004-3.613 2.932 0 .565.08.9.311 1.361.485 1.005 1.386 1.605 4.214 2.829 5.206 2.24 7.434 3.717 8.82 5.818 1.547 2.344 1.893 6.084.843 8.866-1.155 3.025-4.018 5.08-8.047 5.76-1.247.22-4.201.185-5.54-.057-2.921-.52-5.692-1.963-7.4-3.856-.67-.739-1.975-2.666-1.894-2.805.035-.046.335-.23.67-.428a599.32 599.32 0 0 0 2.701-1.558l2.09-1.212.438.647c.612.935 1.951 2.217 2.76 2.643 2.32 1.224 5.506 1.05 7.076-.358.67-.612.946-1.247.946-2.181 0-.843-.103-1.213-.543-1.848-.565-.807-1.72-1.488-4.997-2.909-3.753-1.615-5.369-2.62-6.846-4.213-.855-.923-1.662-2.401-1.998-3.637-.276-1.027-.346-3.601-.126-4.64.773-3.625 3.51-6.153 7.457-6.904 1.28-.242 4.26-.15 5.517.162zM92.604 85.902l.023 2.978h-9.466v26.898h-6.696V88.88H67v-2.92c0-1.616.034-2.967.08-3.002.035-.045 5.795-.069 12.78-.057l12.71.034.034 2.967z"/>
    </g>
</svg>
