<?xml version="1.0" encoding="UTF-8"?>
<svg xmlns="http://www.w3.org/2000/svg" width="165" height="165" viewBox="0 0 165 165">
    <g fill="none" fill-rule="nonzero">
        <path fill="#8ED6FB"
              d="M130.86 113.32L85.013 139v-19.996l28.565-15.562 17.28 9.88zm3.14-2.81V56.814l-16.77 9.596v34.518l16.77 9.58zm-98.86 2.81L80.987 139v-19.996l-28.58-15.562-17.265 9.88zM32 110.51V56.814l16.77 9.596v34.518L32 110.508zm1.968-57.176L80.986 27v19.326l-30.128 16.41-.24.134-16.65-9.536zm98.064 0L85.014 27v19.326l30.128 16.396.24.133 16.65-9.52z"/>
        <path fill="#1C78C0"
              d="M80 114L52 98.803V68.717l28 15.948V114zm4 0l28-15.183v-30.1L84 84.665V114zM53.896 65.242L82 50l28.104 15.242L82 81.25 53.896 65.24z"/>
    </g>
</svg>
