<?xml version="1.0" encoding="UTF-8" standalone="no"?>
<svg width="52px" height="50px" viewBox="0 0 52 50" version="1.1" xmlns="http://www.w3.org/2000/svg" xmlns:xlink="http://www.w3.org/1999/xlink" xmlns:sketch="http://www.bohemiancoding.com/sketch/ns">
    <!-- Generator: Sketch 3.3.3 (12081) - http://www.bohemiancoding.com/sketch -->
    <title>twitter</title>
    <desc>Created with Sketch.</desc>
    <defs></defs>
    <g id="Centered-Logo" stroke="none" stroke-width="1" fill="none" fill-rule="evenodd" sketch:type="MSPage">
        <g id="Desktop-HD" sketch:type="MSArtboardGroup" transform="translate(-430.000000, -3915.000000)" fill="#737E8C">
            <g id="twitter" sketch:type="MSLayerGroup" transform="translate(430.143677, 3915.000000)">
                <path d="M25.6350002,50 C39.7928199,50 51.2700005,38.8071187 51.2700005,25 C51.2700005,11.1928813 39.7928199,0 25.6350002,0 C11.4771805,0 0,11.1928813 0,25 C0,38.8071187 11.4771805,50 25.6350002,50 Z M39.9499175,16.3049834 C41.4257986,15.4189072 42.5591213,14.0158894 43.0928395,12.3441896 C41.7117737,13.1645312 40.1819855,13.7603543 38.5538138,14.0814963 C37.249849,12.6900937 35.3921581,11.8206107 33.3362982,11.8206107 C29.3885934,11.8206107 26.1880686,15.0260316 26.1880686,18.9796776 C26.1880686,19.5407827 26.2514062,20.0872091 26.3732387,20.6111709 C20.4325019,20.3126212 15.1655397,17.4624221 11.6400432,13.1310896 C11.0247635,14.1884585 10.6722648,15.418269 10.6722648,16.7302796 C10.6722648,19.2140245 11.9343018,21.4053464 13.8522718,22.6891485 C12.6804623,22.6520053 11.5783623,22.3299698 10.6145346,21.7937546 C10.6140248,21.8236223 10.6140248,21.8536177 10.6140248,21.8837407 C10.6140248,25.3524828 13.0779472,28.2460794 16.3479267,28.9036802 C15.7480673,29.0673145 15.1166028,29.1547479 14.4646204,29.1547479 C14.0040527,29.1547479 13.556229,29.1099463 13.1198749,29.0263421 C14.0294132,31.8706698 16.6692026,33.9404784 19.7970867,33.9982993 C17.3507511,35.9183864 14.2686179,37.0629334 10.9197531,37.0629334 C10.3428328,37.0629334 9.77381378,37.0291088 9.21460764,36.9629914 C12.37792,38.9942528 16.1352296,40.1793893 20.1718874,40.1793893 C33.3196036,40.1793893 40.5092511,29.2703896 40.5092511,19.8098476 C40.5092511,19.4994273 40.5023693,19.1906664 40.4886058,18.8836924 C41.8850919,17.8743161 43.097045,16.6133614 44.0553928,15.1776678 C42.7734752,15.7470694 41.3958502,16.1319037 39.9499175,16.3049834 Z" id="Oval-4-Copy" sketch:type="MSShapeGroup"></path>
            </g>
        </g>
    </g>
</svg>