<svg xmlns="http://www.w3.org/2000/svg" viewBox="0 0 36.6 42">
    <path fill="#fff" d="M36.3 31.7c.2-.1.3-.3.3-.6v-24c0-.4-.3-.7-.7-.7-.2 0-.3.1-.4.2 0 0-1.6 1.3-1.8 1.5-.2.1-.4.2-.6.2-.2 0-.3 0-.5-.1-.3-.2-14-8.1-14-8.1-.1-.1-.2-.1-.3-.1-.1 0-.3 0-.4.1L.3 10.3c-.2.1-.3.3-.3.5v24c0 .4.3.7.7.7.2 0 .3-.1.4-.2 0 0 1.6-1.3 1.8-1.5.2-.1.4-.2.6-.2.2 0 .3 0 .5.1.3.2 13.9 8.1 13.9 8.1.1.2.3.2.4.2.1 0 .3 0 .4-.1l17.6-10.2zm-17.7 5.1c-.1.1-.2.1-.4.1-.1 0-.2 0-.3-.1l-10.7-6c-.1 0-.2-.1-.3-.1-.2 0-.3 0-.4.1 0 0-.9.7-1 .9-.1.1-.3.2-.4.2-.4 0-.7-.3-.7-.7V13.4c0-.2.1-.4.3-.6L18 5.2c.1-.1.2-.1.4-.1.1 0 .2 0 .3.1l10.7 6.1c.1 0 .2.1.3.1.2 0 .3 0 .4-.1 0 0 .9-.7 1-.9.1-.1.3-.2.4-.2.4 0 .7.3.7.7v17.8c0 .2-.1.4-.3.6 0-.1-13.3 7.5-13.3 7.5z"/>
</svg>
