<svg xmlns="http://www.w3.org/2000/svg" viewBox="0 0 207.87 26.33">
  <path fill="#656868" d="M6.22 0C.83 0 .68.34.94 1.95h1.8c1.68 0 2.06.22 2.06 1.68v17.65c0 2.5-.71 2.77-4.72 3a2.99 2.99 0 0 0 0 1.45h14.06c10.7 0 15.1-5.16 15.1-12.86C29.24 4.87 24.56 0 13.8 0zm3.25 21.02V2.21h3.85c7.18 0 10.92 4.19 10.92 11.37 0 8.05-4.07 10.1-10.47 10.1-3.48 0-4.3-.37-4.3-2.65M45.83.26c-1.76 0-2.25.6-3.48 3.48l-7.4 17.55c-1.02 2.38-1.36 2.6-4.24 2.98a3.2 3.2 0 0 0 0 1.46h10.7c.94 0 1.2-.6.94-1.68h-3.22c-2.06 0-2.06-.56-1.2-2.77l1.54-4.08h9.65l2.35 5.65c.42.97 0 1.31-4.07 1.42a3.2 3.2 0 0 0 0 1.47H59.5c.98 0 1.2-.6.98-1.68h-.86c-1.9 0-2.32-.34-2.73-1.3L48.26 3.03a9.57 9.57 0 0 1-.97-2.76zm-1.65 5.16l4.08 9.73h-7.97zM64.56.75c-1.57 0-1.8.71-1.57 1.68h1.8c1.72 0 2.05.23 2.05 1.58v17.87c0 1.54-.72 1.91-3.7 2.4a2.27 2.27 0 0 0 0 1.46H74.5c1.12 0 1.22-.6.97-1.69h-2.01c-1.58 0-1.95-.26-1.95-1.57V4.71c0-1.57.48-2.27 3.73-2.5.11-.38.11-1.12 0-1.46zm44.92 0l-8.64 18-9.39-18H83.9c-1.56 0-1.79.81-1.56 1.68 3.7.1 3.93.52 3.81 1.72l-1.53 17.57c-.1 1.58-.45 2.32-4.56 2.55-.1.48-.1.97 0 1.45h12.27c1.05 0 1.2-.6.93-1.68h-2.01c-3.96 0-3.96-.37-3.86-1.84l1.2-16.8 10.34 20.42c.85 0 1.16-.23 1.84-1.58l8.98-18.85 1.68 16.3c.19 1.83-.34 2.25-3.48 2.43l-2.02.11c-.14.48-.14.96 0 1.45h13.2c1.05 0 1.16-.6 1.05-1.68-2.88-.37-3.48-.48-3.59-1.68l-1.8-18.25c-.11-1.08.12-1.68 3.59-1.9a2.3 2.3 0 0 0 0-1.46zm17.88 0c-1.57 0-1.8.71-1.57 1.68h1.8c1.57 0 2.05.23 2.05 1.58v17.12c0 2.44-.82 2.92-4.45 3.15-.12.48-.08.97 0 1.46h18.24a52.07 52.07 0 0 1 1.95-6.74c.38-1.11-.11-1.57-1.12-1.57h-.12l-1.06 2.32c-1.57 3.37-1.95 3.56-4.72 3.56h-2.4c-1.05 0-1.7-.34-1.7-1.58V5.2c0-2.43.75-2.77 4.68-3 .1-.36.1-1.11 0-1.45zm24.24 0c-1.65 0-1.8.71-1.65 1.68h1.79c1.68 0 2.01.23 2.01 1.58v17.28c0 2.5-.72 2.76-4.68 2.99-.15.48-.15.97 0 1.45h20.64c.48-2.32 1.2-4.6 1.95-6.73.36-1.08-.12-1.57-1.12-1.57h-.12l-1.06 2.32c-1.57 3.36-1.94 3.55-4.72 3.55h-3.2c-2.55 0-2.89-.56-2.89-1.9V14.8h3.93c.97 0 1.46.34 1.94 3.25.2.1.42.13.65.13.24 0 .48-.04.66-.12a82.11 82.11 0 0 1 0-7.36c.08-1.16-.33-1.41-1.08-1.41h-.45l-.25 1.9c-.12.98-.34 1.35-1.46 1.35h-3.93V2.94h5.99c2.06 0 2.84.6 3.47 2.88l.5 1.68.26.01c1 0 1.37-.62 1.2-1.69a55.9 55.9 0 0 1-.6-5.04zm26.77-.11c-1.53.11-1.8.82-1.53 1.8h1.8c1.53 0 2.06.22 2.06 1.69V21.4c0 2.28-.75 2.65-4 2.88-.12.49-.08 1.05 0 1.46h11.77c1.09 0 1.2-.6 1.09-1.68h-1.9c-1.95 0-2.29-.37-2.29-1.45v-5.5h2.5c2.29 0 2.36.13 3.3 1.8a17.15 17.15 0 0 0 3.55 4.31c2.77 2.4 5.05 3.15 8.53 3.15 3.97 0 4.9-.97 4.57-2.28-3.25 0-4.89-.33-9.82-4.3-1.42-1.17-4.23-3.74-4.23-3.74 3.1-1.3 5.05-3.85 5.05-6.99 0-5.12-3.96-8.52-11.14-8.52-5.23 0-7.48 0-9.27.15m7 2.02h1.28c4.23 0 7.21 1.57 7.21 6.62s-2.99 5.65-6.7 5.65h-1.79z"/>
</svg>
