<svg
        width="272"
        height="272"
        viewBox="0 0 272 272"
        xmlns="http://www.w3.org/2000/svg"
>
    <g
            stroke="#D0011B"
            stroke-width="2"
            fill="none"
            fill-rule="evenodd"
    >
        <path d="M116.62 149.87v8.828h38.76l.003-9.018c10.57-6.53 17.617-18.24 17.617-31.597C173 97.603 156.435 81 136 81s-37 16.603-37 37.083c0 13.36 7.044 25.26 17.62 31.786z"/>
        <path d="M128.6 159.57l-5.224-35.792"/>
        <path d="M143.4 159.57l5.224-35.792"/>
        <path d="M123.376 125.524l6.965 5.238 5.225-5.238 5.223 5.238 6.965-5.238"/>
        <path
                id="Rectangle-path"
                d="M116.412 158.698h39.176v10.476h-39.176z"
        />
        <path
                id="Rectangle-path"
                d="M119.894 170.048h31.34v10.476h-31.34z"
        />
        <path d="M123.376 180.524h24.376V191h-24.376z"/>
        <path d="M136 271c74.558 0 135-60.442 135-135 0-54.758-32.602-101.902-79.454-123.08C174.606 5.263 155.8 1 136 1 61.442 1 1 61.442 1 136c0 74.558 60.442 135 135 135z"/>
    </g>
</svg>
