<?xml version="1.0" encoding="UTF-8" standalone="no"?>
<svg width="46px" height="36px" viewBox="0 0 46 36" version="1.1" xmlns="http://www.w3.org/2000/svg" xmlns:xlink="http://www.w3.org/1999/xlink" xmlns:sketch="http://www.bohemiancoding.com/sketch/ns">
    <!-- Generator: Sketch 3.3.2 (12043) - http://www.bohemiancoding.com/sketch -->
    <title>Github</title>
    <desc>Created with Sketch.</desc>
    <defs></defs>
    <g id="Centered-Logo" stroke="none" stroke-width="1" fill="none" fill-rule="evenodd" sketch:type="MSPage">
        <g id="Desktop-HD" sketch:type="MSArtboardGroup" transform="translate(-190.000000, -675.000000)" fill="#696B69">
            <g id="Welcome-Stage" sketch:type="MSLayerGroup">
                <g id="Shape-+-Shape" transform="translate(135.000000, 675.000000)" sketch:type="MSShapeGroup">
                    <path d="M100.965938,17.459751 L101,17.2882601 C97.2124476,16.5184053 93.3255571,16.5106599 90.974081,16.6100417 C91.3603714,15.1953504 91.4765762,13.5674954 91.4765762,11.7522221 C91.4765762,9.14876682 90.5143,7.06600258 88.9520524,5.48112939 C89.2250952,4.58560186 89.5897,2.59632855 88.5878857,0.0498187202 C88.5878857,0.0498187202 86.8205,-0.520617809 82.8229905,2.19901934 C81.257019,1.80116468 79.5903952,1.6046919 77.9212524,1.6046919 C76.0848667,1.6046919 74.2293143,1.84240106 72.4985095,2.32501938 C68.3727476,-0.536217814 66.5512571,0.0498187202 66.5512571,0.0498187202 C65.3624857,3.07131051 66.0975,5.30865661 66.3209286,5.86425677 C64.9237333,7.39676631 64.0706524,9.35353051 64.0706524,11.7522221 C64.0706524,13.5632408 64.2734905,15.187714 64.7689762,16.5997872 C62.3974571,16.512078 58.6524,16.5458962 55,17.2882601 L55.0336238,17.459751 C58.7080381,16.7129145 62.4766429,16.6868417 64.8335952,16.7774963 C64.9427905,17.0697509 65.0644714,17.3533874 65.200719,17.6274238 C62.8699429,17.7037875 58.8899571,18.0057512 55.075681,19.0993879 L55.1227762,19.267497 C58.9670619,18.1655694 62.9816571,17.8713512 65.2898714,17.7994602 C66.6825762,20.4380428 69.4282286,22.1422615 74.3129905,22.6774617 C73.6195952,23.1509163 72.9122905,23.9560075 72.6257762,25.3180079 C71.6809143,25.7774989 68.6902571,26.8986265 66.8959286,23.7614983 C66.8959286,23.7614983 65.8915952,21.8948432 63.9689048,21.7487705 C63.9689048,21.7487705 62.1039333,21.7196432 63.8402143,22.9300072 C63.8402143,22.9300072 65.0881286,23.5278255 65.9490952,25.7737898 C65.9490952,25.7737898 67.0723714,29.6049546 72.4924857,28.3757179 L72.4924857,32.3332099 C72.4924857,32.3332099 72.3778143,33.7329558 71.1153333,34.1993195 C71.1153333,34.1993195 70.3694762,34.7243742 71.1730524,35.015538 C71.1730524,35.015538 74.6725571,35.3072471 74.6725571,32.3916827 L74.6725571,28.0762632 C74.6725571,28.0762632 74.5337905,26.3650627 75.3609143,25.7701898 L75.3609143,32.8581555 C75.3609143,32.8581555 75.3038524,34.5491742 74.4431048,35.190738 C74.4431048,35.190738 73.8690905,36.2401929 75.1314619,35.9489201 C75.1314619,35.9489201 77.5409857,35.5990654 77.6557667,32.7415373 L77.710419,25.5685898 L78.2894714,25.5685898 L78.3445619,32.7415373 C78.4592333,35.5990654 80.8687571,35.9489201 80.8687571,35.9489201 C82.1306905,36.2401929 81.5571143,35.190738 81.5571143,35.190738 C80.6965857,34.5491742 80.6393048,32.8581555 80.6393048,32.8581555 L80.6393048,25.8313898 C81.465881,26.4857173 81.3276619,28.0762632 81.3276619,28.0762632 L81.3276619,32.3916827 C81.3276619,35.3072471 84.8272762,35.015538 84.8272762,35.015538 C85.6303048,34.7243742 84.8848857,34.1993195 84.8848857,34.1993195 C83.6225143,33.7329558 83.5077333,32.3332099 83.5077333,32.3332099 L83.5077333,26.6765174 C83.5077333,24.4708076 82.5939762,23.3026618 81.7003714,22.6861889 C86.9096524,22.1611342 89.4094238,20.4512428 90.5613952,17.7948784 C92.8432143,17.8585875 96.9493714,18.1411331 100.877224,19.267497 L100.923881,19.0993879 C97.0185905,17.9796785 92.9393762,17.690042 90.6344476,17.6218602 C90.7437524,17.3533874 90.8389286,17.0743328 90.923481,16.7872054 C93.2589667,16.6858599 97.1632714,16.6868417 100.965938,17.459751 L100.965938,17.459751 L100.965938,17.459751 Z" id="Github"></path>
                </g>
            </g>
        </g>
    </g>
</svg>