<?xml version="1.0" standalone="no"?><!DOCTYPE svg PUBLIC "-//W3C//DTD SVG 1.1//EN" "http://www.w3.org/Graphics/SVG/1.1/DTD/svg11.dtd"><svg width="100%" height="100%" viewBox="0 0 1841 3055" version="1.1" xmlns="http://www.w3.org/2000/svg" xmlns:xlink="http://www.w3.org/1999/xlink" xml:space="preserve" style="fill-rule:evenodd;clip-rule:evenodd;stroke-linejoin:round;stroke-miterlimit:1.41421;"><g><path d="M1232.15,388.79c-41.392,-19.957 -116.045,-8.131 -184.785,-19.218c-138.22,-22.174 -155.221,-61.349 -155.221,-90.176c-0.739,-30.305 -28.087,-31.783 -28.087,0.739c0.739,192.178 289.744,93.872 371.789,143.394M291.962,323.006c0.739,-51.74 -34.74,-85.002 -65.784,-87.958c18.479,21.435 22.174,52.479 25.131,82.784c-5.913,-42.871 -37.696,-70.958 -65.045,-72.436c14.783,15.522 22.914,47.305 24.392,78.349c-4.435,-23.653 -26.609,-59.132 -63.566,-62.827c17,17.739 22.174,51.001 25.87,81.306c-5.174,-25.871 -31.784,-55.436 -61.349,-57.654c12.565,10.348 22.913,48.045 25.131,76.871c-3.696,-11.826 -24.392,-40.653 -56.914,-44.348c17,15.522 24.391,53.218 27.348,82.784M236.526,1105.02c-8.87,-40.653 -44.349,-83.523 -84.262,-78.349c18.478,12.565 32.522,59.87 37.696,90.175c-12.566,-34.001 -43.61,-70.219 -80.567,-65.784c19.957,17.74 31.783,61.349 39.175,93.872c-19.957,-37.697 -44.349,-65.784 -80.567,-61.349c24.392,23.652 33.262,65.044 39.175,96.827c-11.826,-26.609 -39.175,-59.131 -76.132,-55.435c22.913,20.696 32.522,65.783 40.653,99.045c-14.783,-19.957 -36.957,-48.044 -71.697,-45.088c22.913,22.174 33.261,65.784 42.87,99.045M354.789,2551.52c-39.175,-23.653 -93.132,-15.522 -118.263,17c28.087,-5.174 69.479,10.348 85.741,23.653c-26.61,-17 -82.045,-6.652 -103.48,22.913c25.13,-6.652 65.783,10.348 87.218,22.914c-28.087,-9.609 -71.696,-7.392 -99.045,25.87c22.914,-5.174 60.61,7.391 85.002,21.435c-34.74,-8.131 -68.741,5.174 -88.697,28.827c30.304,-6.653 64.305,11.087 85.001,20.696c-39.175,-0.74 -62.827,14.782 -76.871,31.044c25.131,-5.174 63.566,8.13 91.654,22.913M1382.94,2794.7c-51.001,-6.652 -93.132,24.392 -105.698,60.61c14.044,-11.087 58.393,-17.739 87.219,-8.87c-39.914,-2.217 -79.827,30.305 -87.958,59.871c16.261,-13.305 68.001,-17 87.219,-8.87c-36.218,1.478 -70.958,28.827 -81.306,59.132c17.001,-11.088 64.306,-15.522 90.915,-8.87c-39.175,5.913 -67.262,34.001 -76.132,59.871c23.653,-15.522 54.697,-14.044 93.132,-11.827c-39.914,14.783 -53.218,31.783 -66.523,58.393c22.175,-14.044 61.349,-14.783 99.785,-11.827" style="fill:#fff;fill-rule:nonzero;"/><path d="M1118.32,81.306l-180.351,6.652c-8.869,0.739 -15.522,5.174 -15.522,15.522c0.739,65.045 13.305,107.176 59.871,141.177c-5.913,36.218 -2.218,54.696 35.479,85.001c3.696,-29.566 15.522,-42.87 34,-55.436c1.479,0.739 2.957,0.739 3.696,1.479c-2.217,13.304 -2.217,27.348 0.739,35.478c7.392,20.697 43.61,21.436 53.219,6.653c8.869,21.435 27.348,22.174 42.131,22.174c15.522,0 22.913,-11.087 28.087,-21.435c8.87,7.391 17.74,15.522 25.87,25.87c25.87,35.479 30.305,81.306 30.305,124.915l-24.392,2.218l0,-17.74c-0.739,-25.131 -59.131,-29.566 -72.436,-8.13c-14.782,-16.262 -60.609,-13.305 -60.609,12.565l0,8.131c-10.348,-13.305 -18.479,-27.349 -25.131,-41.392c-18.479,11.826 -29.566,20.696 -26.609,62.827c-8.131,0.739 -16.262,1.478 -23.653,2.217c0.739,48.784 22.174,62.088 196.612,58.393c4.435,48.783 -44.348,76.131 -80.566,99.045c-94.611,53.957 -194.395,113.089 -248.353,212.134c-45.088,78.349 -56.175,171.481 -51.001,261.657l51.74,-22.914l5.914,28.088c-93.133,44.349 -263.136,134.524 -374.746,186.264c-27.349,12.566 -98.306,30.305 -113.089,5.174c-51.001,-87.958 -91.654,-154.481 -150.786,-221.743c-30.304,-34.74 -231.352,131.568 -194.394,187.743c84.262,127.871 221.743,311.179 450.877,312.657c237.265,1.479 443.486,-85.74 488.574,-99.045l9.609,30.305c-30.305,13.305 -56.914,22.913 -88.697,33.261c41.392,162.612 89.436,226.178 201.047,325.224l-22.914,17c-19.956,-11.826 -53.957,-49.523 -72.436,-67.262c-237.265,112.35 -325.962,224.7 -382.876,340.745c-62.827,139.698 -51.001,298.614 -24.392,445.704c5.174,24.391 -21.435,36.218 -41.392,28.826c-54.696,-12.565 -85.001,-67.262 -137.481,-87.219c-23.652,-10.348 -54.696,-22.174 -80.566,-17.739c-42.131,7.391 -87.219,220.265 -44.349,240.961c79.828,39.174 167.047,47.305 255.744,93.132c58.392,23.652 114.567,62.088 181.09,51.74c37.696,-3.696 75.393,-29.566 79.088,-69.48c33.262,-143.393 79.828,-295.657 189.221,-399.137c52.479,-51.74 120.481,-93.132 187.743,-124.915c-26.609,-102.002 -46.566,-204.004 -44.349,-310.441l32.522,-1.478c23.653,405.051 131.568,490.052 321.528,678.534c19.218,19.218 17.739,55.436 -10.348,66.523c-36.957,18.478 -80.567,19.217 -122.698,21.435c-45.088,2.217 -11.087,252.048 55.436,249.83c116.785,-3.695 238.004,-94.61 308.223,-184.046c29.565,-36.958 65.044,-73.915 93.132,-110.133c34.74,-45.087 -2.957,-97.567 -13.305,-138.959c-28.826,-118.263 -42.131,-458.269 -43.609,-505.574l41.392,0.739l5.913,-85.741c-123.437,-153.002 -103.48,-392.485 -154.481,-546.966c-19.957,-62.827 -42.131,-127.872 -42.131,-194.395c0,-90.175 102.002,-259.439 99.784,-410.224c-0.739,-63.567 -36.218,-146.351 -35.479,-184.047c0.739,-109.393 63.567,-85.741 62.088,-313.397c-0.739,-62.827 -8.13,-109.393 -24.391,-173.699c110.132,-116.045 -41.392,-232.091 -128.611,-159.655c-70.219,-18.478 -79.089,-36.957 -216.57,-36.957c-117.523,0 -184.785,31.783 -257.961,80.567M905.451,759.101c-77.61,95.349 -121.22,143.393 -118.263,374.745c-732.491,-418.355 -518.14,-478.226 -678.534,-728.056c-25.131,-39.175 138.22,-130.089 189.96,-91.654c104.219,76.871 65.784,221.743 152.264,287.527c85.74,65.045 238.743,93.871 454.573,157.438M1352.63,221.743c-11.087,0 -31.044,-5.913 -36.957,-14.044c-64.306,-98.306 -80.567,-62.827 -90.176,-28.826c-8.13,30.305 -43.609,31.044 -33.261,-9.609c25.87,-99.784 96.088,-85.741 183.307,52.479M1564.03,121.959c17.739,-23.653 45.088,-46.566 74.653,-56.175c43.61,-14.783 61.349,20.696 26.61,32.522c-28.827,12.566 -53.219,30.305 -73.915,51.001M990.453,249.831c11.087,6.652 26.609,14.782 49.522,21.435c-12.565,10.348 -24.392,25.131 -28.087,41.392c-19.957,-14.044 -28.088,-39.914 -21.435,-62.827M1108.71,289.005c0,9.609 -2.217,19.218 -5.174,23.653c-7.391,11.826 -34.739,11.087 -40.652,-5.174c-2.218,-6.653 -2.218,-18.479 0.739,-29.566c14.783,3.696 30.305,6.652 45.087,11.087M1117.59,291.223c19.957,5.913 39.175,12.565 56.175,23.652c-3.696,8.87 -10.348,17.74 -23.652,17.74c-11.827,0 -25.131,-0.739 -32.523,-14.783c-3.696,-7.392 -2.217,-17.74 0,-26.609M1034.06,487.096c-2.217,-20.696 0,-38.436 16.261,-50.262c8.131,14.783 17,28.827 27.348,41.392l0,5.174M1085.06,483.03l0,-23.283c0,-24.391 51.74,-22.913 52.479,0l0,18.479M1144.19,477.487l0,-20.696c0,-24.392 59.871,-22.914 59.871,-0.739l0,16.261" style="fill:#fff;fill-rule:nonzero;"/></g></svg>