<?xml version="1.0" encoding="UTF-8" standalone="no"?>
<svg width="51px" height="50px" viewBox="0 0 51 50" version="1.1" xmlns="http://www.w3.org/2000/svg" xmlns:xlink="http://www.w3.org/1999/xlink" xmlns:sketch="http://www.bohemiancoding.com/sketch/ns">
    <!-- Generator: Sketch 3.3.3 (12081) - http://www.bohemiancoding.com/sketch -->
    <title>dribbble</title>
    <desc>Created with Sketch.</desc>
    <defs></defs>
    <g id="Centered-Logo" stroke="none" stroke-width="1" fill="none" fill-rule="evenodd" sketch:type="MSPage">
        <g id="Desktop-HD" sketch:type="MSArtboardGroup" transform="translate(-578.000000, -3915.000000)" fill="#737E8C">
            <g id="Footer" sketch:type="MSLayerGroup" transform="translate(0.000000, 3849.000000)">
                <path d="M603.468949,115.554496 C617.129354,115.554496 628.203301,104.48055 628.203301,90.8201439 C628.203301,77.1597382 617.129354,66.0857914 603.468949,66.0857914 C589.808543,66.0857914 578.734596,77.1597382 578.734596,90.8201439 C578.734596,104.48055 589.808543,115.554496 603.468949,115.554496 Z M615.280704,81.6824469 L615.298652,81.6592605 L615.171198,81.547738 L615.165442,81.542702 L615.034253,81.6687671 L614.910536,81.5730028 C614.419632,82.2072007 613.656928,83.0033533 612.599765,83.8658568 C611.01967,85.1550025 609.102381,86.3166405 606.825994,87.2542004 L606.64899,87.3271017 L606.732773,87.4992219 C607.072403,88.1969389 607.385616,88.8822484 607.671373,89.555521 C607.771851,89.7887792 607.86837,90.0211393 607.961309,90.2534875 L608.012761,90.3821175 L608.150263,90.3652009 C609.229663,90.232404 610.350944,90.168705 611.486575,90.168705 C612.970774,90.168705 614.451612,90.2708087 615.880213,90.4465855 C616.843101,90.5650604 617.645416,90.6986121 618.266226,90.8234488 L618.48521,90.8674837 L618.481514,90.6441461 C618.426962,87.3479751 617.290467,84.2242668 615.280704,81.6824469 L615.280704,81.6824469 Z M603.470028,73.4068345 C593.8542,73.4068345 586.031179,81.218705 586.031179,90.821223 C586.031179,100.423741 593.853841,108.235612 603.468949,108.235612 C613.084057,108.235612 620.906359,100.422662 620.906718,90.8183453 C620.906718,81.2140288 613.084057,73.4046763 603.468949,73.4046763 L603.470028,73.4068345 L603.470028,73.4068345 Z M603.733473,76.1029751 L603.728437,76.1033348 C602.600527,76.1028777 601.475167,76.232727 600.378967,76.4873996 L600.111673,76.5494983 L600.275269,76.7698141 C600.807013,77.4859181 601.539286,78.5250692 602.342136,79.7365826 C603.522716,81.5180973 604.659422,83.3768316 605.682749,85.2471218 L605.757833,85.3843495 L605.904147,85.3290212 C608.129839,84.4873812 609.974951,83.4098499 611.468884,82.1942748 C612.46082,81.3871617 613.155718,80.6428464 613.596813,80.0444919 L613.694879,79.9114632 L613.5706,79.8025212 C610.867027,77.4325833 607.407071,76.102518 603.746287,76.102518 L603.733473,76.1029751 L603.733473,76.1029751 Z M597.483123,77.6154546 L597.395187,77.4945112 L597.260221,77.5588886 C593.110457,79.5382958 590.069674,83.3442231 589.092819,87.8485715 L589.045547,88.0665468 L589.268589,88.0665468 L589.412474,88.0665468 C590.660374,88.0665468 592.302733,87.9936195 594.221366,87.8028495 C597.052963,87.5213032 599.940439,87.0312459 602.772559,86.2872634 L602.998278,86.2279682 L602.883435,86.0248032 C601.83309,84.1666859 600.678449,82.307256 599.487657,80.5142989 C598.696721,79.3233999 598.003324,78.3309157 597.483123,77.6154546 L597.483123,77.6154546 L597.483123,77.6154546 Z M588.729021,90.9665468 C588.729021,94.6482423 590.079785,98.1258584 592.483734,100.833441 L592.645737,101.015906 L592.772092,100.807165 C593.509493,99.5889618 594.661141,98.0616539 596.233788,96.4972036 C598.650649,94.0929397 601.476142,92.2271292 604.705893,91.1837367 C604.852188,91.1365973 605.00726,91.090033 605.189222,91.0380439 L605.388273,90.9811721 L605.304148,90.7920197 C604.959222,90.0164684 604.580959,89.2268369 604.174063,88.4307354 L604.106029,88.2976252 L603.962722,88.3401725 C598.821809,89.8664959 593.572787,90.426259 589.301682,90.426259 C589.154952,90.426259 589.027925,90.4251953 588.918288,90.4234053 L588.740838,90.4205081 L588.735575,90.5979028 C588.73116,90.7466797 588.729021,90.857507 588.729021,90.9665468 L588.729021,90.9665468 L588.729021,90.9665468 Z M603.649884,105.571583 C605.651478,105.571583 607.600101,105.174493 609.410224,104.413646 L609.54206,104.358232 L609.517775,104.2173 C608.996836,101.194104 608.001317,97.314878 606.393342,93.124415 L606.324216,92.9442693 L606.149365,93.0258663 C606.159707,93.0216406 606.159707,93.0216406 606.15487,93.023295 C602.553966,94.2765232 599.675689,96.1383545 597.440852,98.378643 C596.61872,99.2027804 595.929404,100.03465 595.363372,100.845511 C594.975626,101.40097 594.69291,101.876769 594.504052,102.24706 L594.436206,102.380084 L594.554484,102.471236 C597.147151,104.469313 600.317506,105.571583 603.649884,105.571583 L603.649884,105.571583 L603.649884,105.571583 Z M611.699232,103.052691 L611.727562,103.217949 L611.894399,103.201266 L611.897996,103.200906 L611.944037,103.196302 L611.982141,103.17005 C615.303464,100.881781 617.581657,97.341789 618.244585,93.3427228 L618.270353,93.187275 L618.119645,93.1412847 C617.596241,92.9815621 616.881144,92.804869 616.021131,92.6505348 C614.749103,92.4222624 613.403128,92.2895683 612.020388,92.2895683 C611.010963,92.2895683 610.009965,92.3614442 609.025292,92.5136209 L608.809035,92.5470425 L608.883699,92.7527349 C610.327123,96.7292259 611.243763,100.395789 611.699232,103.052691 L611.699232,103.052691 L611.699232,103.052691 Z" id="dribbble" sketch:type="MSShapeGroup"></path>
            </g>
        </g>
    </g>
</svg>