<?xml version="1.0" encoding="UTF-8" standalone="no"?>
<svg width="52px" height="50px" viewBox="0 0 52 50" version="1.1" xmlns="http://www.w3.org/2000/svg" xmlns:xlink="http://www.w3.org/1999/xlink" xmlns:sketch="http://www.bohemiancoding.com/sketch/ns">
    <!-- Generator: Sketch 3.3.3 (12081) - http://www.bohemiancoding.com/sketch -->
    <title>Github</title>
    <desc>Created with Sketch.</desc>
    <defs></defs>
    <g id="Centered-Logo" stroke="none" stroke-width="1" fill="none" fill-rule="evenodd" sketch:type="MSPage">
        <g id="Desktop-HD" sketch:type="MSArtboardGroup" transform="translate(-502.000000, -3915.000000)" fill="#737E8C">
            <path d="M527.776316,3915 C513.62234,3915 502.143677,3926.47605 502.143677,3940.63347 C502.143677,3951.95846 509.488196,3961.5651 519.674841,3964.95458 C520.957417,3965.19061 521.42481,3964.39911 521.42481,3963.71932 C521.42481,3963.11035 521.402778,3961.49901 521.390189,3959.36053 C514.259694,3960.90893 512.755225,3955.92385 512.755225,3955.92385 C511.589103,3952.96239 509.908377,3952.17403 509.908377,3952.17403 C507.580856,3950.58473 510.084633,3950.6162 510.084633,3950.6162 C512.657654,3950.79716 514.011048,3953.25822 514.011048,3953.25822 C516.297653,3957.17484 520.011616,3956.04345 521.472022,3955.38727 C521.704931,3953.73187 522.367464,3952.60205 523.099241,3951.9616 C517.407121,3951.31487 511.42229,3949.11501 511.42229,3939.29278 C511.42229,3936.49498 512.421597,3934.20543 514.061406,3932.41471 C513.797023,3931.7664 512.917317,3929.15899 514.313201,3925.63104 C514.313201,3925.63104 516.464466,3924.94182 521.361862,3928.25891 C523.406115,3927.68927 525.599871,3927.40603 527.779464,3927.39502 C529.957483,3927.40603 532.149665,3927.68927 534.197066,3928.25891 C539.091314,3924.94182 541.239432,3925.63104 541.239432,3925.63104 C542.638463,3929.15899 541.758758,3931.7664 541.495948,3932.41471 C543.138904,3934.20543 544.130343,3936.49498 544.130343,3939.29278 C544.130343,3949.14019 538.13607,3951.307 532.426639,3951.94115 C533.345687,3952.73265 534.165592,3954.29678 534.165592,3956.68704 C534.165592,3960.11427 534.134118,3962.87904 534.134118,3963.71932 C534.134118,3964.4054 534.596789,3965.2032 535.896676,3964.953 C546.075453,3961.55566 553.413677,3951.95531 553.413677,3940.63347 C553.413677,3926.47605 541.935014,3915 527.776316,3915" id="Github" sketch:type="MSShapeGroup"></path>
        </g>
    </g>
</svg>