<?xml version="1.0" encoding="UTF-8" standalone="no"?>
<svg width="50px" height="50px" viewBox="0 0 50 50" version="1.1" xmlns="http://www.w3.org/2000/svg" xmlns:xlink="http://www.w3.org/1999/xlink" xmlns:sketch="http://www.bohemiancoding.com/sketch/ns">
    <!-- Generator: Sketch 3.3.3 (12081) - http://www.bohemiancoding.com/sketch -->
    <title>instagram</title>
    <desc>Created with Sketch.</desc>
    <defs></defs>
    <g id="Centered-Logo" stroke="none" stroke-width="1" fill="none" fill-rule="evenodd" sketch:type="MSPage">
        <g id="Desktop-HD" sketch:type="MSArtboardGroup" transform="translate(-460.000000, -3923.000000)" fill="#737E8C">
            <g id="Footer" sketch:type="MSLayerGroup" transform="translate(0.000000, 3849.000000)">
                <g id="Group" transform="translate(171.000000, 74.000000)" sketch:type="MSShapeGroup">
                    <path d="M313.734353,49.468705 C327.394758,49.468705 338.468705,38.3947582 338.468705,24.7343525 C338.468705,11.0739468 327.394758,0 313.734353,0 C300.073947,0 289,11.0739468 289,24.7343525 C289,38.3947582 300.073947,49.468705 313.734353,49.468705 L313.734353,49.468705 Z M302.585901,12.2189067 C301.73167,12.2189067 301.039051,12.9115265 301.039051,13.7657576 L301.039051,36.5908476 C301.039051,37.4450787 301.73167,38.1376985 302.585901,38.1376985 L325.410991,38.1376985 C326.265223,38.1376985 326.957842,37.4450787 326.957842,36.5908476 L326.957842,13.7657576 C326.957842,12.9115265 326.265223,12.2189067 325.410991,12.2189067 L302.585901,12.2189067 L302.585901,12.2189067 Z M310.690425,22.17695 C311.500223,21.2595555 312.681162,20.6767094 313.998446,20.6767094 C315.31486,20.6767094 316.495798,21.2595555 317.306033,22.17695 C317.99299,22.9558206 318.413353,23.9742767 318.413353,25.0916162 C318.413353,27.5258046 316.432635,29.506523 313.998446,29.506523 C311.563822,29.506523 309.583104,27.5258046 309.583104,25.0916162 C309.583104,23.9747123 310.003468,22.9558206 310.690425,22.17695 L310.690425,22.17695 L310.690425,22.17695 Z M324.229617,35.4094734 L303.767276,35.4094734 L303.767276,22.17695 L307.483028,22.17695 C307.083139,23.0686436 306.854879,24.0531221 306.854879,25.0916162 C306.854879,29.030837 310.059661,32.2347481 313.998446,32.2347481 C317.937232,32.2347481 321.141578,29.030837 321.141578,25.0916162 C321.141578,24.0531221 320.913319,23.068208 320.513429,22.17695 L324.229617,22.17695 L324.229617,35.4094734 L324.229617,35.4094734 L324.229617,35.4094734 Z M324.229617,17.8199794 C324.229617,18.5073719 323.672037,19.064517 322.984208,19.064517 L321.357641,19.064517 C320.669813,19.064517 320.112232,18.5073719 320.112232,17.8199794 L320.112232,16.192105 C320.112232,15.5047125 320.669813,14.9475674 321.357641,14.9475674 L322.984208,14.9475674 C323.672037,14.9475674 324.229617,15.5047125 324.229617,16.192105 L324.229617,17.8199794 L324.229617,17.8199794 Z" id="instagram"></path>
                </g>
            </g>
        </g>
    </g>
</svg>