<?xml version="1.0" encoding="UTF-8" standalone="no"?>
<svg width="165px" height="165px" viewBox="0 0 165 165" version="1.1" xmlns="http://www.w3.org/2000/svg" xmlns:xlink="http://www.w3.org/1999/xlink" xmlns:sketch="http://www.bohemiancoding.com/sketch/ns">
    <!-- Generator: Sketch 3.3.3 (12081) - http://www.bohemiancoding.com/sketch -->
    <title>tech-nodejs</title>
    <desc>Created with Sketch.</desc>
    <defs></defs>
    <g id="Tech-Icons" stroke="none" stroke-width="1" fill="none" fill-rule="evenodd" sketch:type="MSPage">
        <g id="tech-nodejs" sketch:type="MSArtboardGroup">
            <g id="nodejs-light" sketch:type="MSLayerGroup" transform="translate(23.000000, 61.000000)">
                <g id="Group-4" fill="#2D2E2B" sketch:type="MSShapeGroup">
                    <path d="M19.3832903,19.4096471 C19.3832903,19.0270588 19.185629,18.6755294 18.8610484,18.4856471 L10.2138871,13.4209412 C10.0675484,13.3334118 9.90317742,13.2875294 9.73741935,13.2804706 L9.64795161,13.2804706 C9.4828871,13.2875294 9.31920968,13.3334118 9.17079032,13.4209412 L0.522935484,18.4856471 C0.200435484,18.6755294 0,19.0270588 0,19.4096471 L0.0187258065,33.0487059 C0.0187258065,33.2385882 0.115822581,33.4150588 0.2795,33.5082353 C0.440403226,33.6056471 0.638758065,33.6056471 0.798274194,33.5082353 L5.93816129,30.5124706 C6.26274194,30.3162353 6.46040323,29.9696471 6.46040323,29.5905882 L6.46040323,23.2178824 C6.46040323,22.8381176 6.65875806,22.4865882 6.98195161,22.2981176 L9.17079032,21.0148235 C9.33377419,20.9195294 9.51201613,20.8722353 9.69441935,20.8722353 C9.87196774,20.8722353 10.0550645,20.9195294 10.2138871,21.0148235 L12.4013387,22.2981176 C12.7252258,22.4865882 12.9235806,22.8381176 12.9235806,23.2178824 L12.9235806,29.5905882 C12.9235806,29.9696471 13.1240161,30.3183529 13.4472097,30.5124706 L18.5850161,33.5082353 C18.7459194,33.6056471 18.9470484,33.6056471 19.1072581,33.5082353 C19.2660806,33.4150588 19.3666452,33.2385882 19.3666452,33.0487059 L19.3832903,19.4096471" id="Fill-1"></path>
                    <path d="M64.7573065,26.5115294 C64.7573065,26.6061176 64.707371,26.6943529 64.6269194,26.7416471 L61.6564516,28.4837647 C61.576,28.5310588 61.476129,28.5310588 61.3956774,28.4837647 L58.4252097,26.7416471 C58.3440645,26.6943529 58.2948226,26.6061176 58.2948226,26.5115294 L58.2948226,23.0209412 C58.2948226,22.9256471 58.3440645,22.8381176 58.4252097,22.7901176 L61.3949839,21.0444706 C61.476129,20.9964706 61.576,20.9964706 61.6564516,21.0444706 L64.6269194,22.7901176 C64.707371,22.8381176 64.7573065,22.9256471 64.7573065,23.0209412 L64.7573065,26.5115294 L64.7573065,26.5115294 Z M65.5597419,0.66 C65.3981452,0.568941176 65.2004839,0.570352941 65.0409677,0.666352941 C64.8814516,0.761647059 64.7829677,0.936 64.7829677,1.12447059 L64.7829677,14.6315294 C64.7829677,14.7642353 64.7136129,14.8877647 64.6005645,14.9541176 C64.4875161,15.0204706 64.3481129,15.0204706 64.2350645,14.9541176 L62.0691129,13.6842353 C61.7459194,13.4943529 61.3485161,13.4950588 61.0253226,13.6842353 L52.374,18.7658824 C52.0508065,18.9557647 51.8517581,19.3065882 51.8517581,19.6863529 L51.8517581,29.8510588 C51.8517581,30.2315294 52.0508065,30.5823529 52.374,30.7722353 L61.024629,35.8574118 C61.3478226,36.0472941 61.7459194,36.0472941 62.0698065,35.8574118 L70.7218226,30.7722353 C71.0450161,30.5823529 71.2440645,30.2315294 71.2440645,29.8510588 L71.2440645,4.51270588 C71.2440645,4.12729412 71.0387742,3.77223529 70.7079516,3.58376471 L65.5597419,0.66 L65.5597419,0.66 Z" id="Fill-3"></path>
                </g>
                <path d="M96.4894709,22.3741816 C96.8057399,22.1873076 97,21.842737 97,21.4696836 L97,19.0451844 C97,18.6728257 96.8057399,18.3275604 96.4887892,18.1406863 L88.0415426,13.1416328 C87.7232287,12.9533694 87.3313004,12.9526747 87.0123049,13.1402434 L78.5132556,18.141381 C78.1956233,18.3282551 78,18.6735204 78,19.0472685 L78,29.0481543 C78,29.4246811 78.1983498,29.7713359 78.5187085,29.9575152 L86.9652735,34.8627843 C87.2767713,35.0441008 87.6584753,35.0454902 87.9720179,34.8683419 L93.0807175,31.9742262 C93.2429417,31.8825259 93.3438206,31.7088512 93.3445022,31.5205878 C93.3458655,31.3316297 93.2470314,31.1572602 93.086852,31.0634759 L84.5339552,26.0595595 C84.3737758,25.9664698 84.2756233,25.7934898 84.2756233,25.6059211 L84.2756233,22.4714395 C84.2756233,22.2845655 84.3737758,22.1115854 84.5325919,22.0184958 L87.1949776,20.4547285 C87.3531121,20.3609441 87.5487354,20.3609441 87.70687,20.4547285 L90.3706188,22.0184958 C90.529435,22.1115854 90.6275874,22.2845655 90.6275874,22.4714395 L90.6275874,24.9376207 C90.6275874,25.1251894 90.7257399,25.2981694 90.8845561,25.3912591 C91.0440538,25.4850435 91.2396771,25.4843488 91.3984933,25.3905644 L96.4894709,22.3741816" id="Fill-5" fill="#2D2E2B" sketch:type="MSShapeGroup"></path>
                <path d="M34.9875152,13.1394899 C35.3042498,12.9535034 35.6943908,12.9535034 36.0111254,13.1394899 L44.4881949,18.1154952 C44.8049295,18.3014818 45,18.6451076 45,19.0177721 L45,28.9780795 C45,29.3500526 44.8049295,29.6936784 44.4881949,29.879665 L36.0111254,34.8605101 C35.6943908,35.0464966 35.3042498,35.0464966 34.9868355,34.8605101 L26.5118051,29.879665 C26.1950705,29.6936784 26,29.3500526 26,28.9780795 L26,19.0177721 C26,18.6451076 26.1950705,18.3014818 26.5124848,18.1154952 L34.9875152,13.1394899" id="Fill-6" fill="#78B742" sketch:type="MSShapeGroup"></path>
                <path d="M112.997892,36 C112.695713,36 112.395643,35.9197326 112.131413,35.763498 L109.37175,34.0986671 C108.959944,33.8635985 109.160928,33.7804644 109.296557,33.7317307 C109.846803,33.5375124 109.957836,33.492362 110.544624,33.1533758 C110.605762,33.1182588 110.686578,33.1311589 110.749824,33.1691426 L112.86929,34.4527035 C112.946592,34.4964205 113.054814,34.4964205 113.125791,34.4527035 L121.390021,29.5879287 C121.467323,29.5427784 121.516514,29.4531943 121.516514,29.3600268 L121.516514,19.6326273 C121.516514,19.5380265 121.467323,19.4484424 121.388616,19.4004253 L113.127196,14.5399506 C113.050597,14.4940836 112.949403,14.4940836 112.872101,14.5399506 L104.61279,19.4018587 C104.532677,19.4484424 104.48208,19.5401765 104.48208,19.6326273 L104.48208,29.3600268 C104.48208,29.4531943 104.532677,29.5406283 104.612087,29.585062 L106.876318,30.9187901 C108.104708,31.5451621 108.857344,30.8077058 108.857344,30.0666661 L108.857344,20.4625344 C108.857344,20.3270832 108.96416,20.220299 109.096978,20.220299 L110.145467,20.220299 C110.276177,20.220299 110.384399,20.3270832 110.384399,20.4625344 L110.384399,30.0666661 C110.384399,31.7386637 109.491918,32.6975719 107.937456,32.6975719 C107.459592,32.6975719 107.083626,32.6975719 106.033732,32.1701007 L103.866479,30.8972899 C103.330991,30.5819539 103,29.9914155 103,29.3600268 L103,19.6326273 C103,19.0012386 103.330991,18.4107002 103.866479,18.0967976 L112.131413,13.2262894 C112.654252,12.9245702 113.349262,12.9245702 113.867885,13.2262894 L122.132115,18.0967976 C122.667604,18.4121336 123,19.0012386 123,19.6326273 L123,29.3600268 C123,29.9914155 122.667604,30.5798038 122.132115,30.8972899 L113.867885,35.763498 C113.603654,35.9197326 113.304287,36 112.997892,36" id="Fill-7" fill="#78B742" sketch:type="MSShapeGroup"></path>
                <path d="M116.119788,29 C112.713435,29 112,27.3678434 112,25.9995395 C112,25.8689946 112.100596,25.7653876 112.225017,25.7653876 L113.231635,25.7653876 C113.344143,25.7653876 113.437459,25.8496546 113.455328,25.9643131 C113.606883,27.033538 114.060225,27.5729854 116.119788,27.5729854 C117.7591,27.5729854 118.457313,27.1861857 118.457313,26.2778972 C118.457313,25.7543361 118.259431,25.366155 115.711449,25.1057559 C113.581734,24.886109 112.264725,24.3950115 112.264725,22.6164236 C112.264725,20.9773599 113.588352,20 115.807412,20 C118.301125,20 119.534745,20.9034536 119.690933,22.8415963 C119.696889,22.9079048 119.674388,22.9721412 119.632032,23.0218726 C119.589014,23.0688411 119.529451,23.0971604 119.46724,23.0971604 L118.456651,23.0971604 C118.352085,23.0971604 118.259431,23.0191097 118.238253,22.9134305 C117.996029,21.7882579 117.406353,21.4290867 115.807412,21.4290867 C114.017207,21.4290867 113.809398,22.0797391 113.809398,22.567383 C113.809398,23.1586339 114.054931,23.3306216 116.471873,23.6642364 C118.863666,23.9943975 120,24.46132 120,26.2157329 C120,27.9860322 118.585705,29 116.119788,29" id="Fill-8" fill="#78B742" sketch:type="MSShapeGroup"></path>
                <path d="M87.8914787,22.025557 C87.9586053,21.991481 88.0406489,21.991481 88.1070296,22.025557 L89.8925974,22.9305374 C89.9589782,22.9646134 90,23.0268676 90,23.0943644 L90,24.9056356 C90,24.9731324 89.9589782,25.0360419 89.8925974,25.070118 L88.1070296,25.974443 C88.0406489,26.008519 87.9586053,26.008519 87.8914787,25.974443 L86.1081484,25.070118 C86.0410218,25.0360419 86,24.9731324 86,24.9056356 L86,23.0943644 C86,23.0268676 86.0410218,22.9646134 86.1081484,22.9305374 L87.8914787,22.025557" id="Fill-9" fill="#78B742" sketch:type="MSShapeGroup"></path>
                <path d="M127.254136,15.3967799 L127.516214,15.3967799 C127.72998,15.3967799 127.770351,15.2459197 127.770351,15.1585796 C127.770351,14.9283194 127.611516,14.9283194 127.524156,14.9283194 L127.254136,14.9283194 L127.254136,15.3967799 L127.254136,15.3967799 Z M126.936466,14.6590207 L127.516214,14.6590207 C127.714758,14.6590207 128.103905,14.6590207 128.103905,15.1029996 C128.103905,15.4126599 127.905361,15.47618 127.785572,15.51588 C128.016545,15.53176 128.031767,15.6826202 128.063534,15.8970004 C128.080079,16.0313189 128.103905,16.2615792 128.150893,16.3409793 L127.794176,16.3409793 C127.785572,16.2615792 127.72998,15.8328187 127.72998,15.8096603 C127.706817,15.7143802 127.674388,15.6667402 127.555923,15.6667402 L127.262078,15.6667402 L127.262078,16.3409793 L126.936466,16.3409793 L126.936466,14.6590207 L126.936466,14.6590207 Z M126.242224,15.49603 C126.242224,16.1940891 126.806089,16.7578297 127.49636,16.7578297 C128.194573,16.7578297 128.758438,16.1821791 128.758438,15.49603 C128.758438,14.7979709 128.187293,14.2421703 127.49636,14.2421703 C126.813369,14.2421703 126.242224,14.7893692 126.242224,15.49603 L126.242224,15.49603 Z M129,15.5 C129,16.3250993 128.325612,17 127.500331,17 C126.68233,17 126,16.3330393 126,15.5 C126,14.6510807 126.698875,14 127.500331,14 C128.309729,14 129,14.6510807 129,15.5 L129,15.5 Z" id="Fill-10" fill="#78B742" sketch:type="MSShapeGroup"></path>
            </g>
        </g>
    </g>
</svg>