<?xml version="1.0" encoding="UTF-8" standalone="no"?>
<svg xmlns="http://www.w3.org/2000/svg" width="52" height="50" viewBox="0 0 52 50">
    <path fill-rule="evenodd"
          d="M25.776 0C11.622 0 .144 11.476.144 25.633c0 11.325 7.344 20.932 17.53 24.322 1.283.236 1.75-.556 1.75-1.236 0-.61-.02-2.22-.034-4.36-7.13 1.55-8.635-3.436-8.635-3.436-1.166-2.962-2.847-3.75-2.847-3.75-2.327-1.59.177-1.558.177-1.558 2.573.18 3.926 2.642 3.926 2.642 2.288 3.917 6.002 2.785 7.462 2.13.233-1.656.895-2.786 1.627-3.426-5.693-.647-11.678-2.847-11.678-12.67 0-2.797 1-5.087 2.64-6.877-.265-.65-1.145-3.256.25-6.784 0 0 2.152-.688 7.05 2.63 2.044-.57 4.238-.854 6.417-.865 2.177.01 4.37.294 6.417.864 4.894-3.318 7.042-2.63 7.042-2.63 1.398 3.53.52 6.136.256 6.785 1.643 1.79 2.634 4.08 2.634 6.878 0 9.847-5.994 12.014-11.703 12.648.92.793 1.74 2.357 1.74 4.747 0 3.427-.033 6.192-.033 7.032 0 .685.463 1.483 1.763 1.233 10.178-3.397 17.517-12.998 17.517-24.32C51.414 11.476 39.934 0 25.776 0"/>
</svg>
