<?xml version="1.0" encoding="UTF-8" standalone="no"?>
<svg xmlns="http://www.w3.org/2000/svg" width="165" height="165" viewBox="0 0 165 165">
    <g fill="none" fill-rule="evenodd">
        <path fill="#F7DF1E" d="M45 45h75v75H45z"/>
        <path fill="#000"
              d="M64.72 107.675l5.74-3.473c1.107 1.963 2.114 3.624 4.53 3.624 2.316 0 3.777-.906 3.777-4.43V79.432h7.048v24.064c0 7.3-4.28 10.623-10.522 10.623-5.64 0-8.91-2.92-10.573-6.445M89.643 106.92l5.74-3.323c1.51 2.468 3.473 4.28 6.946 4.28 2.92 0 4.782-1.46 4.782-3.474 0-2.417-1.913-3.272-5.135-4.682l-1.762-.754c-5.085-2.165-8.458-4.883-8.458-10.623 0-5.286 4.028-9.314 10.32-9.314 4.48 0 7.704 1.56 10.02 5.638l-5.49 3.524c-1.207-2.164-2.515-3.02-4.53-3.02-2.063 0-3.372 1.31-3.372 3.02 0 2.115 1.31 2.97 4.33 4.28l1.76.755c5.992 2.567 9.365 5.185 9.365 11.075 0 6.344-4.984 9.817-11.68 9.817-6.544 0-10.773-3.122-12.837-7.2"/>
    </g>
</svg>
