<svg xmlns="http://www.w3.org/2000/svg" viewBox="0 0 165 165">
  <g fill="#E535AB" fill-rule="nonzero">
    <path d="M44.036 111L40 108.647 84.964 30 89 32.353z"/>
    <path d="M37 103h91v5H37z"/>
    <path d="M85.3 132L40 105.948l2.347-4.05 45.3 26.053L85.301 132zm39.353-67.899l-45.3-26.052L81.699 34 127 60.052l-2.347 4.05z"/>
    <path d="M42.364 63L40 58.965 85.636 33 88 37.035z"/>
    <path d="M123.939 111l-45.24-78.647L82.76 30 128 108.647 123.939 111zM42 55.665h4.69v52.453H42V55.665z"/>
    <path d="M120 56h5v53h-5z"/>
    <path d="M84.077 130L82 126.354 121.923 103l2.077 3.645z"/>
    <path d="M131.648 110.25c-2.727 4.734-8.806 6.35-13.55 3.628-4.743-2.721-6.363-8.787-3.636-13.52 2.727-4.734 8.806-6.35 13.55-3.629 4.772 2.75 6.391 8.787 3.636 13.521M52.509 64.642c-2.727 4.734-8.806 6.35-13.55 3.629-4.743-2.721-6.362-8.787-3.635-13.521 2.727-4.734 8.806-6.35 13.55-3.628 4.743 2.75 6.362 8.787 3.635 13.52M35.352 110.25c-2.727-4.734-1.108-10.771 3.636-13.52 4.744-2.722 10.794-1.106 13.55 3.628 2.727 4.733 1.107 10.77-3.636 13.52-4.772 2.721-10.823 1.106-13.55-3.628m79.139-45.608c-2.727-4.733-1.108-10.77 3.636-13.52 4.743-2.721 10.794-1.106 13.55 3.628 2.726 4.734 1.107 10.771-3.637 13.52-4.743 2.722-10.822 1.106-13.55-3.628M83.5 138c-5.482 0-9.914-4.422-9.914-9.892 0-5.471 4.432-9.893 9.914-9.893 5.482 0 9.914 4.422 9.914 9.893 0 5.442-4.432 9.892-9.914 9.892m0-91.215c-5.482 0-9.914-4.422-9.914-9.893 0-5.47 4.432-9.892 9.914-9.892 5.482 0 9.914 4.422 9.914 9.892 0 5.471-4.432 9.893-9.914 9.893"/>
  </g>
</svg>
