<?xml version="1.0" encoding="UTF-8" standalone="no"?>
<svg xmlns="http://www.w3.org/2000/svg" width="165" height="165" viewBox="0 0 165 165">
    <g fill="none" fill-rule="evenodd">
        <path fill="#FBA919"
              d="M52.113 58.258s1.614 6.23 1.844 8.31c.232 2.076-4.15 6.692-4.15 9s.92 6.462 5.995 8.54c5.074 2.077 5.766 7.385 5.766 10.616 0 3.23-1.845 9.462-1.845 9.462s-1.153 15.463 5.073 18.233c6.227 2.768 4.843 2.768 6.227 2.768 1.383 0 11.53 4.155 17.526 2.54 5.996-1.616 7.61-3.462 7.61-3.462s5.996.46 7.84-4.848c1.846-5.308 2.998-16.385 2.306-21.463-.692-5.078-1.614-11.77 2.537-14.078 4.152-2.31 8.533-5.077 7.84-7.386-.69-2.307-4.38-5.538-4.38-5.538s-.922-5.77-.23-7.154c.69-1.385 4.842-4.848 2.536-7.386-2.306-2.538-6.46-2.538-6.46-2.538l-5.302.46s-8.994-8.077-20.756-7.615c-11.76.46-19.142 7.615-19.142 7.615s-3.92-1.385-7.38 0-4.15 0-3.457 3.923z"/>
        <path fill="#E78724"
              d="M73.185 92.62s-4.567 6.99-7.916 11.948c-.52.767 3.348.82 3.348.82l4.567-12.768zM75.36 78.132s-1.377 3.437-2.13 5.26c-.82 1.98-3.94 2.965-3.94 2.965s1.617-1.698 1.617-6c0-1.805 2.33-2.522 2.33-2.522l2.123.297z"/>
        <path fill="#E78724"
              d="M73.97 80.075s-2.82 3.36-8.058 1.478c-5.238-1.88-5.775-8.6-5.775-10.483 0-1.882 9.938 1.882 11.28 2.688 1.345.807 3.895 4.032 2.552 6.317zM54.187 44.172s4.834-.942 8.057 1.612c3.224 2.554 4.163 4.57 4.163 4.57l-5.432 4.31s-2.625-1.218-3.43-4.713c-.807-3.494-.27-5.106-3.358-5.778z"/>
        <path fill="#E78724"
              d="M72.56 70.37c-2.083-2.957-5.513-4.247-8.252-4.46-4.67-.366-6.887 1.286-6.887 1.286s7.65.324 9.854 3.222c4.104 5.393 10.09 5.83 11.05 4.646-1.11.056-2.326-.493-3.63-1.727-.814-.77-1.475-2.028-2.135-2.967zM59.647 80.826s-8.486-2.92-6.873-5.876c1.61-2.958.33-4.57.33-4.57s-4.74 3.54-3.533 7.304c.744 2.31 1.988 3.982 8.825 7.188 3.28 6.095.677 17.066.833 17.118.26.086 4.603-2.15 4.307-12.413-.09-3.152-.342-7.455-3.888-8.75zM70.768 49.43c-3.56 1.81-8.433 4.33-8.433 4.33l1.918.96c-.183.297-.27.474-.27.474l1.968.896s4.808 3.485 7.754 5.726c-.982-3.027-3.865-7.78-3.865-7.78s-.818-2.185.928-4.605zM82.59 123.175c-10.938 0-14.643-5.557-14.643-5.557l1.71 4.166c.645 1.802 7.538 7.41 12.915 7.41"/>
        <path fill="#E78724"
              d="M69.146 113.864s1.006 6.154 5.035 6.154c3.425 0 4.434-5.198 4.434-6.273l-9.468.12zM62.44 104.582c.358-.986 1.612-4.973 2.015-8.602.482-4.346.306-10.702.306-10.702s-1.074 4.166-2.014 4.84c-.94.67-2.686 5.24-2.686 5.24s-.935 6.803-1.38 9.09c1.23.247 2.27-.48 3.76.134zM52.71 77.617s2.283-.807 2.955-5.78c.67-4.972-.806-9.273-.806-9.273s.133 6.854-.672 8.2c-.807 1.342-1.477 1.746-2.418 3.493-.94 1.748.403 2.822.94 3.36z"/>
        <path fill="#FDC168" d="M55.436 45.348l-.466-.295c-1.374.046.466.295.466.295z"/>
        <path fill="#FBA919"
              d="M72.626 47.96s-2.15-.36-3.224-1.972c-1.074-1.613-4.118-4.84-8.97-4.876-4.852-.036-9.653 1.29-9.653 1.29l4.19 2.65c.443-.013 1.218-.008 2.5.035 5.258.175 6.068 5.38 6.068 5.38l18.534-2.553"/>
        <path fill="#FFF"
              d="M74.417 76.71s-2.507 2.51-6.358 1.703c-3.85-.806-6.18-2.51-6.36-5.466-.178-2.957.808-4.122.808-4.122s4.297 1.345 6.358 3.137c2.06 1.792 3.58 4.66 5.55 4.75z"/>
        <path fill="#C9C9C9"
              d="M71.382 75.814s-2.174.994-4.604.185c-3.182-1.063-3.394-4.375-3.394-4.375s-1.952 5.732 3.52 6.836c4.39.886 6.985-1.66 6.985-1.66l-2.508-.986z"/>
        <path fill="#463014"
              d="M72.928 46.743c-.234-4.916 3.793-8.832 5.188-8.998.077.833-.078 4.082 1.317 5.08.406-2.653 1.78-5.58 7.202-7.496-1.16 3.082-.155 5.664.324 6.86 3.702-3.363 6.197-2.807 6.197-2.807s-2.572 4.443-1.566 7.358c-7.433-.582-18.626.792-18.662.003zM57.168 54.23c-1.773-1.472-.45-2.84-.59-4.512-.078-.89-.148-1.73-.44-2.193-1.633-2.58-5.484-3.362-5.523-3.37l-1.807-.355 1.197-1.4c.155-.182 5.067-4.872 12.67-2.416 5.318 1.716 9.255 7.537 9.4 7.772L69.41 49.01c-.03-.05-3.144-5.52-7.706-6.992-3.688-1.19-7.087-.058-8.543.684 1.548.62 3.572 1.745 4.79 3.672.576.91.673 2.055.767 3.164.124 1.47.24 2.855 1.32 3.753l-2.87.94zM52.43 75.727s2.236-2.773 2.898-8.17c.26-2.124-.202-6.317-.94-7.93.133 3.966-.874 7.93-.874 7.93s-.68 7.364-1.083 8.17z"/>
        <path fill="#463014"
              d="M64.214 51.43c0-.006-.717-3.137-2.7-4.717-2.8-2.23-6.22-1.043-6.252-1.033l-.497-1.535c.166-.053 4.073-1.285 7.674 1.248 3.62 2.547 4.056 4.857 4.094 5.112l-2.32.925zM59.45 73.738s-1.173-1.68-.962-3.526c.105-.913.527-1.85 1.282-2.18 1.4-.617 2.022.972 2.022.972s-1.972.488-2.342 4.734z"/>
        <path fill="#463014"
              d="M72.322 76.298c.05.092.074.143.074.143s-3.657 2.747-7.404-.04c-2.006-1.493-1.816-5.186-1.202-6.752 1.598.362 2.954 1.015 4.087 1.778-1.432-1.28-2.685-2.22-2.682-2.242l-1.627-.46-3.163-1.086c-.04.24-1.195 5.653 2.135 9.34 1.476 1.636 8.396 5.297 11.682-.964l-1.9.284z"/>
        <path fill="#463014"
              d="M71.98 76.7c2.058 3.136 7.253 1.345 7.163-1.97 0 0-3.47 1.916-6.537-1.613-1.79-2.06-7.527-7.742-15.307-5.854 5.372 1.182 12.484 6.094 14.68 9.438z"/>
        <path fill="#463014"
              d="M56.572 85.55c.496.287 2.242 2.097 2.243 4.805 0 1.358-.135 8.178-.806 12.345 1.01.657 1.712.796 2.718 1.466.504-4.826.865-11.82.696-14.644-.192-3.218-1.914-5.378-3.51-6.3-.5-.287-1.024-.57-1.55-.855-2.735-1.48-5.564-3.01-5.564-5.622 0-2.044.794-2.683 1.635-3.36l.09-.074c.558-.45 1.19-.96 1.563-1.8 1.02-2.297 1.188-8.146 0-9.63-.59-.74-2.177-3.228-1.72-4.9.172-.638.574-1.11 1.228-1.446.69-.354 1.626-.534 2.776-.534 2.26 0 4.766.688 6.06 1.098 4.62 1.466 10.195 5.69 11.793 6.95.046.037.073.057.078.06l1.022.712-.64-1.07c-.04-.068-4.09-6.733-11.332-9.177-1.41-.475-4.177-1.273-6.897-1.273-1.62 0-2.995.283-4.083.84-1.326.68-2.224 1.763-2.598 3.132-.914 3.358 2.065 7.096 2.166 7.215.348.62.496 5.127-.307 6.93-.11.25-.412.494-.795.804-.12.098-.255.2-.397.307-1.13.855-2.842 2.146-2.842 5.124 0 4.075 4.126 6.284 7.442 8.06.544.293 1.063.57 1.532.84z"/>
        <g fill="#463014">
            <path d="M57.168 54.23c-1.773-1.472-.45-2.84-.59-4.512-.078-.89-.148-1.73-.44-2.193-1.633-2.58-5.484-3.362-5.523-3.37l-1.807-.355 1.197-1.4c.155-.182 5.067-4.872 12.67-2.416 5.318 1.716 9.255 7.537 9.4 7.772L69.41 49.01c-.03-.05-3.144-5.52-7.706-6.992-3.688-1.19-7.087-.058-8.543.684 1.548.62 3.572 1.745 4.79 3.672.576.91.673 2.055.767 3.164.124 1.47.24 2.855 1.32 3.753l-2.87.94z"/>
            <path d="M57.11 54.532l-.114-.095c-1.315-1.092-1.082-2.168-.856-3.21.103-.48.21-.977.167-1.486-.072-.856-.14-1.664-.398-2.072-1.555-2.456-5.31-3.243-5.35-3.25l-2.256-.443 1.497-1.75c.028-.033 3.182-3.22 8.524-3.22 1.457 0 2.95.243 4.433.722 5.55 1.792 9.51 7.826 9.548 7.886l.16.256-3.155 1.484-.126-.2c-.34-.58-3.33-5.516-7.56-6.882-1.04-.336-2.135-.505-3.254-.505-2.027 0-3.67.553-4.546.924 1.462.66 3.235 1.768 4.356 3.54.61.963.71 2.14.806 3.28.118 1.416.23 2.747 1.223 3.572l.374.31-3.473 1.14z"/>
        </g>
        <g fill="#463014">
            <path d="M64.214 51.43c0-.006-.717-3.137-2.7-4.717-2.8-2.23-6.22-1.043-6.252-1.033l-.497-1.535c.166-.053 4.073-1.285 7.674 1.248 3.62 2.547 4.056 4.857 4.094 5.112l-2.32.925z"/>
            <path d="M64.022 51.796l-.07-.308c-.007-.03-.71-3.054-2.607-4.564-1.082-.862-2.387-1.3-3.876-1.3-1.163 0-2.026.278-2.12.31l-.257.086-.666-2.047.255-.083c.115-.036 1.152-.36 2.62-.36 1.934 0 3.764.568 5.292 1.643 3.713 2.61 4.167 5.026 4.205 5.292l.032.21-2.81 1.12zm-6.552-6.71c1.59 0 3.047.49 4.21 1.416 1.685 1.343 2.478 3.715 2.718 4.565l1.827-.728c-.166-.647-.894-2.584-3.94-4.727-1.458-1.025-3.134-1.544-4.984-1.544-1.014 0-1.803.16-2.193.26l.33 1.018c.382-.103 1.117-.26 2.033-.26z"/>
        </g>
        <path fill="#463014"
              d="M74.013 118.542c-.794 0-1.604-.288-2.165-.775-.43-.37-1.883-1.706-2.524-3.342-.24-.612-.185-1.102.162-1.454.24-.24.735-.53 1.743-.53H76.647c.766 0 1.315.165 1.63.488.407.417.277.948.164 1.228-.198.49-1.015 2.082-2.4 3.563-.495.53-1.216.822-2.03.822zM74.845 76.885L71.98 76.7s.732 1.293 1.206 2.964c.536 1.89-.49 4.652-.49 4.652s3.82-4.328 2.15-7.43zM71.268 126.113c-10.198-.784-13.786-10.428-13.786-12.436h2.663-1.33 1.33c.014.868 2.724 9.117 11.327 9.78l-.204 2.656z"/>
        <path fill="#FFF"
              d="M68.402 108.836c-.16-.922-.176-1.796.02-2.655-.776-.582-2.167-.8-3.21-1.137-.854-.54-5.22.554-8.388-3.283-3.97-4.804-3.134-7.672-3.134-7.672-1.017 1.13-2.003.7-3.555 5.976-1.553 5.277.73 8.956 4.984 12.65 2.008 1.744 4.85 2.462 7.293 2.737-.818-.82 1.4-.903 2.927-1.476-.122-1.234.082-2.433 1.002-3.398.554-.582 1.268-.93 2.008-1.207.042-.096.077-.185.116-.277-.025-.084-.048-.168-.064-.257z"/>
        <path fill="#C9C9C9"
              d="M65.32 113.942c-.09-.26-.156-.523-.222-.79-.07-.29-.422-1.112.012-.173-.112-.24-.185-.49-.238-.74-6.89-.007-12.884-4.74-11.726-14.693-.9-1.198-2.164 2.416-2.164 2.416s-3.45 10.022 5.458 13.907c2.968 1.295 5.59 2.223 6.21 1.85 1.29.26 2.453-.64 2.89-1.23-.083-.182-.157-.364-.22-.548z"/>
        <path fill="#463014"
              d="M68.278 107.393c.01-.84.182-1.654.588-2.465.028-.056.06-.11.092-.163-2.652-.023-5.705-.277-8.305-1.32-2.857-1.143-6.432-5.056-7.046-9.654 0 0-5.382 4.157-3.8 13.052 1.484 8.354 8.468 11.077 16.434 11.538.006-.054-.895-1.915-.61-3.054-4.523.328-9.582-1.42-12.023-5.44-2.236-3.68-1.61-9.965-.69-10.885 2.24 7.078 10.305 8.516 15.36 8.393z"/>
        <path fill="#463014"
              d="M69.113 102.326c-1.434 4.21-4.362 7.617-4.362 7.617s4.03-.183 4.25-.896c.166-.526 3.638-8.66 4.97-18.19-1.253 2.06-4.735 11.11-4.857 11.47z"/>
        <path fill="#E78724"
              d="M91.932 92.62s4.566 6.99 7.917 11.948c.517.767-3.352.82-3.352.82L91.932 92.62zM89.757 78.132s1.377 3.437 2.13 5.26c.82 1.98 3.94 2.965 3.94 2.965s-1.618-1.698-1.618-6c0-1.805-2.33-2.522-2.33-2.522l-2.123.297z"/>
        <path fill="#E78724"
              d="M91.148 80.075s2.82 3.36 8.06 1.478c5.237-1.88 5.774-8.6 5.774-10.483 0-1.882-9.94 1.882-11.282 2.688-1.344.807-3.895 4.032-2.552 6.317zM110.93 44.172s-4.834-.942-8.058 1.612c-3.223 2.554-4.163 4.57-4.163 4.57l5.432 4.31s2.626-1.218 3.432-4.713c.805-3.494.268-5.106 3.357-5.778z"/>
        <path fill="#E78724"
              d="M92.558 70.37c2.082-2.957 5.51-4.247 8.25-4.46 4.672-.366 6.888 1.286 6.888 1.286s-7.65.324-9.854 3.222c-4.104 5.393-10.09 5.83-11.047 4.646 1.107.056 2.326-.493 3.628-1.727.814-.77 1.475-2.028 2.135-2.967zM105.47 80.826s8.485-2.92 6.874-5.876c-1.612-2.958-.33-4.57-.33-4.57s4.74 3.54 3.53 7.304c-.74 2.31-1.986 3.982-8.822 7.188-3.28 6.095-.677 17.066-.832 17.118-.26.086-4.604-2.15-4.307-12.413.09-3.152.342-7.455 3.887-8.75zM94.35 49.43c3.557 1.81 8.433 4.33 8.433 4.33l-1.92.96c.185.297.273.474.273.474l-1.97.896s-4.807 3.485-7.752 5.726c.98-3.027 3.864-7.78 3.864-7.78s.818-2.185-.928-4.605zM82.53 123.175c10.934 0 14.64-5.557 14.64-5.557l-1.71 4.166c-.645 1.802-7.538 7.41-12.914 7.41"/>
        <path fill="#E78724"
              d="M95.972 113.864s-1.008 6.154-5.036 6.154c-3.423 0-4.432-5.198-4.432-6.273l9.468.12zM102.677 104.582c-.358-.986-1.61-4.973-2.015-8.602-.483-4.346-.306-10.702-.306-10.702s1.075 4.166 2.014 4.84c.94.67 2.686 5.24 2.686 5.24s.936 6.803 1.38 9.09c-1.23.247-2.267-.48-3.76.134zM112.408 77.617s-2.284-.807-2.955-5.78c-.67-4.972.806-9.273.806-9.273s-.136 6.854.67 8.2c.807 1.343 1.478 1.746 2.418 3.493.94 1.748-.403 2.822-.94 3.36z"/>
        <path fill="#FDC168" d="M109.68 45.348l.468-.295c1.374.046-.467.295-.467.295z"/>
        <path fill="#FBA919"
              d="M92.49 47.96s2.15-.36 3.224-1.972c1.075-1.613 4.12-4.84 8.972-4.876 4.852-.036 9.653 1.29 9.653 1.29l-4.192 2.65c-.443-.013-1.218-.008-2.5.035-5.26.175-6.07 5.38-6.07 5.38l-18.532-2.553"/>
        <path fill="#FFF"
              d="M90.7 76.71s2.508 2.51 6.357 1.703c3.85-.806 6.18-2.51 6.36-5.466.177-2.957-.807-4.122-.807-4.122s-4.3 1.345-6.358 3.137c-2.06 1.792-3.58 4.66-5.552 4.75z"/>
        <path fill="#C9C9C9"
              d="M93.734 75.814s2.175.994 4.605.185c3.18-1.063 3.393-4.375 3.393-4.375s1.95 5.732-3.52 6.836c-4.39.886-6.986-1.66-6.986-1.66l2.507-.986z"/>
        <path fill="#463014"
              d="M107.95 54.23c1.772-1.472.452-2.84.592-4.512.075-.89.145-1.73.438-2.193 1.633-2.58 5.483-3.362 5.523-3.37l1.807-.355-1.196-1.4c-.155-.182-5.068-4.872-12.672-2.416-5.317 1.716-9.254 7.537-9.4 7.772l2.665 1.255c.033-.05 3.145-5.52 7.708-6.992 3.688-1.19 7.087-.058 8.542.684-1.547.62-3.572 1.745-4.79 3.672-.576.91-.672 2.055-.766 3.164-.122 1.47-.24 2.855-1.32 3.753l2.87.94zM112.685 75.727s-2.233-2.773-2.895-8.17c-.26-2.124.2-6.317.94-7.93-.135 3.966.873 7.93.873 7.93s.68 7.364 1.082 8.17z"/>
        <path fill="#463014"
              d="M100.903 51.43c0-.006.717-3.137 2.702-4.717 2.8-2.23 6.218-1.043 6.25-1.033l.498-1.535c-.166-.053-4.073-1.285-7.675 1.248-3.623 2.547-4.056 4.857-4.095 5.112l2.32.925zM105.668 73.738s1.172-1.68.96-3.526c-.104-.913-.526-1.85-1.28-2.18-1.402-.617-2.023.972-2.023.972s1.973.488 2.343 4.734z"/>
        <path fill="#463014"
              d="M92.796 76.298c-.05.092-.075.143-.075.143s3.657 2.747 7.404-.04c2.007-1.493 1.818-5.186 1.202-6.752-1.597.362-2.952 1.015-4.086 1.778 1.432-1.28 2.686-2.22 2.68-2.242l1.63-.46 3.162-1.085c.04.24 1.194 5.652-2.137 9.34-1.476 1.634-8.395 5.296-11.68-.965l1.9.283z"/>
        <path fill="#463014"
              d="M93.137 76.7c-2.06 3.136-7.252 1.345-7.162-1.97 0 0 3.47 1.916 6.536-1.613 1.79-2.06 7.53-7.742 15.31-5.854-5.374 1.182-12.487 6.094-14.683 9.438z"/>
        <path fill="#463014"
              d="M108.546 85.55c-.496.287-2.243 2.097-2.243 4.805 0 1.358.134 8.178.806 12.345-1.01.657-1.714.796-2.72 1.466-.504-4.826-.866-11.82-.696-14.644.192-3.218 1.913-5.378 3.51-6.3.5-.287 1.023-.57 1.55-.855 2.735-1.48 5.564-3.01 5.564-5.622 0-2.044-.795-2.683-1.635-3.36l-.09-.074c-.558-.45-1.19-.96-1.563-1.8-1.02-2.297-1.188-8.146 0-9.63.59-.74 2.178-3.228 1.722-4.9-.175-.638-.577-1.11-1.23-1.446-.692-.354-1.625-.534-2.777-.534-2.258 0-4.766.688-6.058 1.098-4.62 1.466-10.195 5.69-11.795 6.95-.045.037-.072.057-.077.06l-1.023.712.64-1.07c.04-.068 4.09-6.733 11.332-9.177 1.41-.475 4.177-1.273 6.898-1.273 1.62 0 2.993.283 4.082.84 1.327.68 2.224 1.763 2.598 3.132.915 3.358-2.064 7.096-2.166 7.215-.347.62-.494 5.127.307 6.93.11.25.413.494.797.804.12.098.253.2.396.307 1.132.855 2.843 2.146 2.843 5.124 0 4.075-4.127 6.284-7.442 8.06-.544.293-1.064.57-1.532.84z"/>
        <path fill="#463014"
              d="M103.624 53.75c-.656-1.11-2.335-3.26-6.203-5.147-4.316-2.105-9.312-3.174-14.85-3.176v-.002h-.022c-5.54.004-10.537 1.073-14.853 3.178-3.868 1.888-5.545 4.035-6.202 5.148l-.282.374 3.313.738.105-.133.056-.123c.05-.22.495-1.402 4.188-3.204 3.948-1.927 8.553-2.904 13.686-2.906 5.133.002 9.736.98 13.684 2.906 3.693 1.802 4.14 2.985 4.19 3.204l.055.122.104.132 3.314-.738-.28-.373z"/>
        <g fill="#463014">
            <path d="M107.95 54.23c1.772-1.472.452-2.84.592-4.512.075-.89.145-1.73.438-2.193 1.633-2.58 5.483-3.362 5.523-3.37l1.807-.355-1.196-1.4c-.155-.182-5.068-4.872-12.672-2.416-5.317 1.716-9.254 7.537-9.4 7.772l2.665 1.255c.033-.05 3.145-5.52 7.708-6.992 3.688-1.19 7.087-.058 8.542.684-1.547.62-3.572 1.745-4.79 3.672-.576.91-.672 2.055-.766 3.164-.122 1.47-.24 2.855-1.32 3.753l2.87.94z"/>
            <path d="M104.535 53.394l.373-.31c.993-.825 1.105-2.157 1.225-3.573.096-1.138.195-2.317.805-3.28 1.12-1.77 2.895-2.88 4.356-3.538-.875-.37-2.52-.924-4.546-.924-1.12 0-2.212.17-3.252.505-4.232 1.366-7.223 6.302-7.56 6.88l-.128.202-3.154-1.485.16-.256c.037-.06 3.996-6.094 9.547-7.885 1.485-.48 2.977-.723 4.434-.723 5.342 0 8.497 3.187 8.524 3.22l1.496 1.75-2.257.442c-.038.007-3.793.793-5.35 3.25-.256.408-.324 1.215-.397 2.072-.043.51.064 1.007.168 1.487.226 1.04.46 2.117-.857 3.21l-.113.093-3.472-1.14z"/>
        </g>
        <g fill="#463014">
            <path d="M100.903 51.43c0-.006.717-3.137 2.702-4.717 2.8-2.23 6.218-1.043 6.25-1.033l.498-1.535c-.166-.053-4.073-1.285-7.675 1.248-3.623 2.547-4.056 4.857-4.095 5.112l2.32.925z"/>
            <path d="M98.287 50.676l.03-.21c.04-.267.494-2.68 4.207-5.293 1.527-1.075 3.358-1.643 5.293-1.643 1.468 0 2.505.323 2.62.36l.254.083-.664 2.047-.257-.086c-.097-.032-.96-.31-2.122-.31-1.49 0-2.792.437-3.874 1.3-1.9 1.51-2.6 4.534-2.608 4.564l-.07.307-2.81-1.12zm11.394-5.328l.332-1.02c-.39-.098-1.18-.26-2.195-.26-1.85 0-3.527.52-4.984 1.545-3.047 2.143-3.775 4.08-3.94 4.726l1.828.727c.24-.85 1.032-3.222 2.718-4.565 1.164-.925 2.62-1.415 4.21-1.415.914 0 1.65.158 2.033.26z"/>
        </g>
        <path fill="#463014"
              d="M89.076 117.72c-1.384-1.482-2.203-3.075-2.4-3.564-.114-.28-.242-.81.163-1.228.316-.323.864-.49 1.63-.49h1.18c1.23 0 2.667 0 3.522.002h.717c1.006 0 1.502.29 1.74.53.35.353.403.842.164 1.455-.64 1.636-2.095 2.972-2.524 3.342-.563.487-1.37.775-2.165.775-.813 0-1.534-.293-2.03-.823zM90.273 76.885l2.864-.184s-.73 1.293-1.206 2.964c-.535 1.89.49 4.652.49 4.652s-3.82-4.328-2.147-7.43z"/>
        <path fill="#E78724"
              d="M82.56 66.648c-1.827 0-4.208-.05-5.994-1.335 0 0 2.34 4.104 5.99 4.104l.003-.52.002.52c3.652 0 5.99-4.104 5.99-4.104-1.786 1.285-4.17 1.335-5.993 1.335z"/>
        <path fill="#463014"
              d="M87.587 66.628c-1.832 1.11-3.468 1.494-5.028 1.528-1.562-.034-3.197-.418-5.03-1.528 0 0 2.67 3.258 5.016 3.283v.003h.025v-.002c2.346-.024 5.015-3.282 5.015-3.282zM93.85 126.113l-.205-2.657c8.602-.662 11.312-8.91 11.326-9.78h2.664c0 2.01-3.588 11.653-13.784 12.437z"/>
        <path fill="#FFF"
              d="M96.715 108.836c.16-.922.176-1.796-.02-2.655.778-.582 2.167-.8 3.21-1.137.854-.54 5.22.554 8.39-3.283 3.968-4.804 3.132-7.672 3.132-7.672 1.018 1.13 2.004.7 3.556 5.976 1.553 5.277-.73 8.956-4.985 12.65-2.01 1.744-4.85 2.462-7.294 2.737.818-.82-1.398-.903-2.926-1.476.123-1.234-.083-2.433-1.002-3.398-.554-.582-1.27-.93-2.008-1.207-.042-.096-.078-.185-.116-.277.024-.084.047-.168.063-.257z"/>
        <path fill="#C9C9C9"
              d="M99.797 113.942c.09-.26.155-.523.22-.79.073-.29.424-1.112-.01-.173.112-.24.184-.49.238-.74 6.89-.007 12.883-4.74 11.724-14.693.9-1.198 2.165 2.416 2.165 2.416s3.45 10.022-5.46 13.907c-2.967 1.295-5.59 2.223-6.208 1.85-1.29.26-2.454-.64-2.89-1.23.082-.182.158-.364.22-.548z"/>
        <path fill="#463014"
              d="M96.838 107.393c-.01-.84-.182-1.654-.586-2.465-.03-.056-.062-.11-.092-.163 2.65-.023 5.704-.277 8.304-1.32 2.857-1.143 6.432-5.056 7.047-9.654 0 0 5.383 4.157 3.8 13.052-1.484 8.354-8.468 11.077-16.434 11.538-.004-.054.896-1.915.61-3.054 4.524.328 9.582-1.42 12.025-5.44 2.235-3.68 1.608-9.965.69-10.885-2.24 7.078-10.305 8.516-15.362 8.393z"/>
        <path fill="#463014"
              d="M100.055 109.488c-.952-1.03-2.702-2.257-6.736-2.257l-10.747-.005h-.028l-10.748.006c-4.033 0-5.783 1.23-6.735 2.258-1.387 1.498-1.605 3.583-.645 6.188 2.55 6.936 6.133 13.98 18.128 13.99v.002h.025c11.994-.01 15.577-7.056 18.128-13.992.96-2.605.74-4.69-.645-6.188zm-1.867 5.702c-1.215 3.483-4.48 11.912-15.63 11.927-11.15-.015-14.414-8.444-15.63-11.927-.67-1.932-.62-3.362.16-4.25.53-.607 1.75-1.332 4.535-1.332h2.908c2.146-.003 4.84-.005 8.03-.006 3.187 0 5.882.003 8.027.005h2.906c2.785 0 4.006.725 4.538 1.333.778.89.83 2.318.158 4.25z"/>
        <path fill="#463014"
              d="M96.004 102.326c1.434 4.21 4.36 7.617 4.36 7.617s-4.026-.183-4.25-.896c-.162-.526-3.635-8.66-4.967-18.19 1.252 2.06 4.734 11.11 4.857 11.47z"/>
    </g>
</svg>
