<svg width="165" height="165" viewBox="0 0 165 165" xmlns="http://www.w3.org/2000/svg"><g fill="none" fill-rule="evenodd"><path d="M52.636 120.47L46 45h73l-6.636 75.47L82.42 129" fill="#E34F26"/><path d="M82.58 122.438l24.118-6.727 5.666-64.64H82.58" fill="#EF652A"/><path d="M82.58 79.125H70.44l-.808-9.516h12.95V60.42H59.594l.162 2.46 2.266 25.595H82.58v-9.352zm0 24.117h-.16l-10.198-2.79-.648-7.382H62.51l1.133 14.602 18.776 5.25h.16v-9.68z" fill="#EBEBEB"/><path d="M82.42 79.125v9.352h11.33l-1.134 11.976-10.197 2.79v9.68l18.775-5.25.162-1.642 2.104-24.444.325-2.46H82.42zm0-18.703v9.187h22.174l.162-1.97.486-4.757.162-2.46H82.42z" fill="#FFF"/></g></svg>