<svg width="165" height="165" viewBox="0 0 165 165" xmlns="http://www.w3.org/2000/svg"><g fill="none" fill-rule="evenodd"><g fill="#2D2E2B"><path d="M42.383 80.41c0-.383-.197-.734-.522-.924l-8.646-5.065c-.146-.087-.31-.132-.477-.14h-.09c-.164.008-.328.053-.476.14l-8.647 5.066c-.323.19-.523.54-.523.924l.02 13.64c0 .19.096.365.26.458.16.098.36.098.518 0l5.14-2.996c.325-.196.522-.542.522-.92v-6.374c0-.38.2-.73.522-.92l2.19-1.283c.162-.095.34-.143.522-.143.178 0 .36.048.52.143l2.187 1.283c.325.19.524.54.524.92v6.373c0 .38.2.728.523.922l5.138 2.996c.16.098.362.098.522 0 .16-.093.26-.27.26-.46l.016-13.638M87.757 87.512c0 .094-.05.182-.13.23l-2.97 1.742c-.08.047-.18.047-.26 0l-2.972-1.742c-.08-.048-.13-.136-.13-.23v-3.49c0-.096.05-.184.13-.232l2.97-1.746c.08-.048.18-.048.26 0l2.972 1.746c.08.048.13.136.13.23v3.492zm.803-25.852c-.162-.09-.36-.09-.52.006-.16.096-.257.27-.257.458v13.508c0 .132-.07.256-.182.322-.112.066-.252.066-.365 0l-2.166-1.27c-.324-.19-.72-.19-1.045 0l-8.65 5.082c-.324.19-.523.54-.523.92V90.85c0 .382.2.732.522.922l8.65 5.085c.324.19.722.19 1.046 0l8.652-5.085c.323-.19.522-.54.522-.92V65.51c0-.385-.205-.74-.536-.928L88.56 61.66z"/></g><path d="M119.49 83.374c.316-.187.51-.53.51-.904v-2.425c0-.372-.194-.717-.51-.904l-8.448-4.998c-.32-.19-.71-.19-1.03-.002l-8.5 5c-.316.188-.512.534-.512.907v10c0 .378.198.724.52.91l8.445 4.906c.312.18.693.182 1.007.005l5.11-2.894c.16-.09.262-.265.263-.453 0-.188-.098-.363-.258-.457l-8.553-5.003c-.16-.094-.258-.267-.258-.454V83.47c0-.185.098-.358.257-.452l2.662-1.563c.158-.094.354-.094.512 0l2.664 1.563c.16.094.258.267.258.453v2.468c0 .187.098.36.257.453.16.095.355.094.513 0l5.09-3.016" fill="#2D2E2B"/><path d="M57.988 74.14c.316-.186.706-.186 1.023 0l8.478 4.975c.317.186.512.53.512.903v9.96c0 .372-.195.716-.512.902l-8.477 4.98c-.316.186-.706.186-1.023 0l-8.475-4.98c-.317-.186-.512-.53-.512-.902v-9.96c0-.373.195-.717.512-.903l8.476-4.976M135.998 97c-.302 0-.602-.08-.867-.237l-2.758-1.664c-.412-.236-.21-.32-.075-.368.55-.194.66-.24 1.248-.58.06-.034.142-.02.205.017l2.12 1.283c.077.043.185.043.256 0l8.264-4.865c.077-.045.127-.135.127-.228v-9.727c0-.095-.05-.185-.128-.233l-8.263-4.86c-.076-.046-.178-.046-.255 0l-8.26 4.862c-.08.046-.13.138-.13.23v9.728c0 .093.05.18.13.225l2.264 1.334c1.23.625 1.98-.112 1.98-.853v-9.604c0-.136.108-.243.24-.243h1.05c.13 0 .238.107.238.243v9.604c0 1.672-.892 2.63-2.447 2.63-.477 0-.853 0-1.903-.527l-2.168-1.273c-.535-.315-.866-.906-.866-1.537v-9.727c0-.632.33-1.222.866-1.536l8.265-4.87c.524-.302 1.22-.302 1.738 0l8.264 4.87c.536.315.868.904.868 1.536v9.727c0 .63-.332 1.22-.868 1.537l-8.264 4.866c-.264.157-.564.237-.87.237" fill="#78B742"/><path d="M139.12 90c-3.407 0-4.12-1.632-4.12-3 0-.13.1-.235.225-.235h1.007c.112 0 .205.085.223.2.152 1.07.605 1.608 2.665 1.608 1.64 0 2.337-.387 2.337-1.295 0-.524-.198-.912-2.746-1.172-2.128-.22-3.445-.71-3.445-2.49 0-1.64 1.323-2.616 3.542-2.616 2.494 0 3.728.903 3.884 2.842.007.066-.016.13-.058.18-.043.047-.103.075-.165.075h-1.01c-.105 0-.198-.078-.22-.184-.24-1.125-.83-1.484-2.43-1.484-1.79 0-1.998.65-1.998 1.137 0 .592.245.764 2.662 1.097 2.392.33 3.528.797 3.528 2.552 0 1.77-1.414 2.784-3.88 2.784M110.89 83.026c.07-.035.15-.035.217 0l1.786.905c.066.035.107.097.107.164v1.812c0 .067-.04.13-.107.164l-1.786.904c-.066.035-.148.035-.216 0l-1.782-.904c-.067-.034-.108-.097-.108-.164v-1.812c0-.067.04-.13.108-.163l1.783-.904M150.254 76.397h.262c.214 0 .254-.15.254-.238 0-.232-.158-.232-.246-.232h-.27v.47zm-.318-.738h.58c.2 0 .588 0 .588.443 0 .31-.2.373-.318.413.23.016.246.167.278.38.016.135.04.366.087.445h-.356c-.008-.078-.064-.507-.064-.53-.023-.096-.056-.143-.174-.143h-.294v.674h-.326v-1.68zm-.694.836c0 .698.564 1.262 1.254 1.262.7 0 1.262-.576 1.262-1.262 0-.698-.57-1.254-1.262-1.254-.683 0-1.254.547-1.254 1.254zM152 76.5c0 .825-.674 1.5-1.5 1.5-.818 0-1.5-.667-1.5-1.5 0-.85.7-1.5 1.5-1.5.81 0 1.5.65 1.5 1.5z" fill="#78B742"/></g></svg>