<svg width="52" height="50" viewBox="0 0 52 50" xmlns="http://www.w3.org/2000/svg"><path d="M25.78 50c14.156 0 25.634-11.193 25.634-25S39.936 0 25.78 0C11.62 0 .143 11.193.143 25S11.62 50 25.78 50zm14.314-33.695c1.475-.886 2.61-2.29 3.143-3.96-1.382.82-2.91 1.415-4.54 1.736-1.303-1.39-3.16-2.26-5.217-2.26-3.948 0-7.148 3.206-7.148 7.16 0 .56.063 1.107.185 1.63-5.94-.297-11.208-3.148-14.733-7.48-.616 1.058-.968 2.288-.968 3.6 0 2.484 1.262 4.675 3.18 5.96-1.172-.038-2.274-.36-3.238-.896v.09c0 3.468 2.464 6.362 5.734 7.02-.6.163-1.232.25-1.884.25-.46 0-.908-.044-1.344-.128.91 2.845 3.55 4.914 6.677 4.972-2.446 1.92-5.528 3.065-8.877 3.065-.576 0-1.146-.034-1.705-.1 3.164 2.03 6.92 3.216 10.958 3.216 13.147 0 20.337-10.91 20.337-20.37 0-.31-.007-.62-.02-.926 1.396-1.01 2.608-2.27 3.566-3.706-1.283.57-2.66.954-4.106 1.127z" fill="#737E8C" fill-rule="evenodd"/></svg>