<?xml version="1.0" encoding="UTF-8" standalone="no"?><svg xmlns="http://www.w3.org/2000/svg" width="52" height="50" viewBox="0 0 52 50"><path fill="#737E8C" fill-rule="evenodd" d="M25.78 50c14.156 0 25.634-11.193 25.634-25S39.936 0 25.78 0C11.62 0 .143 11.193.143 25S11.62 50 25.78 50zm14.314-33.695a7.18 7.18 0 0 0 3.143-3.96 14.3 14.3 0 0 1-4.54 1.736 7.134 7.134 0 0 0-5.217-2.26c-3.948 0-7.148 3.206-7.148 7.16 0 .56.063 1.107.185 1.63-5.94-.297-11.208-3.148-14.733-7.48a7.134 7.134 0 0 0-.968 3.6 7.16 7.16 0 0 0 3.18 5.96 7.11 7.11 0 0 1-3.238-.896v.09a7.16 7.16 0 0 0 5.734 7.02 7.147 7.147 0 0 1-3.228.122 7.156 7.156 0 0 0 6.677 4.972 14.328 14.328 0 0 1-8.877 3.065c-.576 0-1.146-.034-1.705-.1a20.21 20.21 0 0 0 10.958 3.216c13.147 0 20.337-10.91 20.337-20.37 0-.31-.007-.62-.02-.926a14.54 14.54 0 0 0 3.566-3.706c-1.283.57-2.66.954-4.106 1.127z"/></svg>